G04*
G04 #@! TF.GenerationSoftware,Altium Limited,Altium Designer,23.0.1 (38)*
G04*
G04 Layer_Color=32896*
%FSLAX44Y44*%
%MOMM*%
G71*
G04*
G04 #@! TF.SameCoordinates,AC13AACC-C9C6-46D0-8271-6E1567557673*
G04*
G04*
G04 #@! TF.FilePolarity,Positive*
G04*
G01*
G75*
G36*
X382867Y165453D02*
X382888Y165427D01*
X382893Y165387D01*
X382888Y165369D01*
X382890Y165164D01*
X382888Y164290D01*
X382885Y164287D01*
X382879Y162428D01*
X382870Y161391D01*
X382864Y160641D01*
X382859Y160623D01*
X382853Y159648D01*
X382847Y159538D01*
X382841Y159521D01*
X382844Y159506D01*
X382841Y159117D01*
X382836Y159099D01*
X382830Y157743D01*
X382824Y157725D01*
X382827Y156880D01*
X382836Y155849D01*
X382841Y155832D01*
X382847Y154867D01*
X382853Y154850D01*
X382850Y154668D01*
X382844Y154230D01*
X382836Y153540D01*
X382830Y153522D01*
X382824Y153390D01*
X382804Y153369D01*
X382784Y153361D01*
X382749Y153355D01*
X382639Y153349D01*
X382273Y153352D01*
X381834Y153358D01*
X381170Y153364D01*
X381043Y153369D01*
X381026Y153375D01*
X380887Y153381D01*
X380855Y153395D01*
X380835Y153427D01*
X380824Y153456D01*
X380818Y153514D01*
X380821Y154152D01*
X380826Y154261D01*
X380832Y154279D01*
X380829Y154322D01*
X380832Y154775D01*
X380838Y154792D01*
X380844Y155601D01*
X380850Y155618D01*
X380844Y155635D01*
X380847Y155996D01*
X380853Y156233D01*
X380850Y158868D01*
X380855Y158961D01*
X380850Y158978D01*
X380853Y159102D01*
X380858Y159385D01*
X380864Y160014D01*
X380870Y160892D01*
X380878Y161772D01*
X380884Y161790D01*
X380890Y162656D01*
X380896Y162673D01*
X380893Y163992D01*
X380884Y164440D01*
X380878Y164480D01*
X380873Y164832D01*
X380867Y164925D01*
X380861Y165138D01*
X380855Y165283D01*
X380850Y165375D01*
X380861Y165421D01*
X380887Y165447D01*
X380916Y165459D01*
X380956Y165453D01*
X381031Y165418D01*
X381083Y165413D01*
X381106Y165407D01*
X381147Y165389D01*
X381352Y165392D01*
X381577Y165398D01*
X381606Y165404D01*
X381704Y165410D01*
X381785Y165415D01*
X381877Y165421D01*
X381993Y165427D01*
X382022Y165433D01*
X382154Y165438D01*
X382339Y165444D01*
X382547Y165450D01*
X382605Y165456D01*
X382827Y165464D01*
X382867Y165453D01*
D02*
G37*
G36*
X391345Y157696D02*
X391767Y157691D01*
X391790Y157685D01*
X391845Y157676D01*
X391903Y157670D01*
X391983Y157659D01*
X392006Y157653D01*
X392035Y157642D01*
X392047Y157636D01*
X392084Y157587D01*
X392090Y157512D01*
X392084Y157494D01*
X392090Y157431D01*
X392096Y157414D01*
X392102Y157356D01*
X392096Y157338D01*
X392099Y157122D01*
X392096Y156496D01*
X392090Y156478D01*
X392093Y156019D01*
X392099Y155771D01*
X392108Y155174D01*
X392113Y155156D01*
X392119Y154966D01*
X392125Y154948D01*
X392131Y154365D01*
X392136Y154348D01*
X392133Y154189D01*
X392128Y153906D01*
X392131Y153846D01*
X392125Y153828D01*
X392119Y153701D01*
X392113Y153661D01*
X392108Y153644D01*
X392102Y153592D01*
X392079Y153540D01*
X392033Y153511D01*
X391995Y153496D01*
X391978Y153491D01*
X391897Y153485D01*
X391880Y153479D01*
X391106Y153473D01*
X390736Y153479D01*
X390280Y153485D01*
X390263Y153491D01*
X390194Y153485D01*
X390153Y153479D01*
X390090Y153462D01*
X390061Y153450D01*
X389986Y153444D01*
X389686Y153450D01*
X389668Y153456D01*
X389299Y153462D01*
X389282Y153468D01*
X389131Y153473D01*
X389039Y153479D01*
X389033D01*
X388791Y153485D01*
X388733Y153502D01*
X388701Y153534D01*
X388695Y153603D01*
X388701Y153621D01*
X388707Y153771D01*
X388713Y153794D01*
X388727Y153831D01*
X388736Y153990D01*
X388742Y154007D01*
X388739Y154235D01*
X388733Y154258D01*
X388727Y154287D01*
X388730Y154521D01*
X388736Y154538D01*
X388742Y154665D01*
X388736Y154683D01*
X388730Y154769D01*
X388724Y154787D01*
X388727Y155026D01*
X388733Y155101D01*
X388739Y155153D01*
X388745Y155321D01*
X388750Y155355D01*
X388765Y155416D01*
X388771Y155439D01*
X388776Y155456D01*
X388782Y155537D01*
X388791Y155563D01*
X388848Y155586D01*
X388860Y155598D01*
X388872Y155627D01*
X388877Y155661D01*
X388895Y155731D01*
X388903Y155832D01*
X388909Y155872D01*
X388915Y155895D01*
X388929Y155921D01*
X388950Y155976D01*
X388958Y155985D01*
X388993Y155990D01*
X389004Y156008D01*
X389033Y156019D01*
X389082Y156068D01*
X389100Y156097D01*
X389128Y156161D01*
X389140Y156172D01*
X389155Y156193D01*
X389166Y156221D01*
X389172Y156244D01*
X389180Y156276D01*
X389192Y156305D01*
X389198Y156392D01*
X389204Y156432D01*
X389221Y156473D01*
X389230Y156568D01*
X389235Y156620D01*
X389247Y156695D01*
X389258Y156764D01*
X389264Y156845D01*
X389270Y156897D01*
X389279Y156992D01*
X389302Y157085D01*
X389310Y157116D01*
X389325Y157206D01*
X389331Y157223D01*
X389336Y157292D01*
X389342Y157315D01*
X389359Y157356D01*
X389365Y157390D01*
X389371Y157408D01*
X389368Y157428D01*
X389371Y157454D01*
X389377Y157494D01*
X389383Y157517D01*
X389397Y157543D01*
X389449Y157572D01*
X389501Y157578D01*
X389524Y157584D01*
X389582Y157590D01*
X389648Y157610D01*
X389677Y157621D01*
X389746Y157639D01*
X389775Y157645D01*
X389833Y157650D01*
X390044Y157659D01*
X390084Y157665D01*
X390162Y157673D01*
X390223Y157682D01*
X390240Y157688D01*
X390442Y157694D01*
X390459Y157699D01*
X391345Y157696D01*
D02*
G37*
G36*
X384755Y163109D02*
X384813Y163103D01*
X384853Y163097D01*
X384931Y163089D01*
X385021Y163074D01*
X385061Y163069D01*
X385188Y163057D01*
X385206Y163063D01*
X385214Y163060D01*
X385442Y163051D01*
X385460Y163045D01*
X386141Y163040D01*
X386158Y163045D01*
X386429Y163040D01*
X386447Y163034D01*
X386499Y163028D01*
X386539Y163022D01*
X386568Y163011D01*
X386588Y162991D01*
X386594Y162933D01*
X386588Y162915D01*
X386582Y162858D01*
X386577Y162840D01*
X386571Y160930D01*
X386577Y160912D01*
X386574Y159818D01*
X386568Y159553D01*
X386562Y159137D01*
X386554Y159059D01*
X386559Y159042D01*
X386557Y158998D01*
X386551Y158715D01*
X386539Y158646D01*
X386530Y158268D01*
X386525Y158251D01*
X386519Y157823D01*
X386513Y157806D01*
X386507Y157362D01*
X386502Y157344D01*
X386505Y156978D01*
X386502Y156888D01*
X386496Y156871D01*
X386499Y156828D01*
X386505Y156141D01*
X386510Y155326D01*
X386516Y154738D01*
X386522Y154385D01*
X386528Y153704D01*
X386525Y153493D01*
X386513Y153413D01*
X386507Y153390D01*
X386487Y153375D01*
X386372Y153369D01*
X386354Y153364D01*
X385748Y153358D01*
X384807Y153352D01*
X384559Y153346D01*
X384536Y153341D01*
X384461Y153346D01*
X384432Y153358D01*
X384420Y153364D01*
X384406Y153390D01*
X384409Y153415D01*
X384415Y153444D01*
X384420Y153560D01*
X384426Y153641D01*
X384432Y153779D01*
X384444Y153825D01*
X384452Y154100D01*
X384458Y154117D01*
X384464Y154648D01*
X384469Y154665D01*
X384475Y155578D01*
X384481Y156900D01*
X384487Y156957D01*
X384481Y156975D01*
X384484Y157324D01*
X384492Y158014D01*
X384498Y158158D01*
X384492Y158176D01*
X384495Y158202D01*
X384501Y158271D01*
X384507Y158571D01*
X384516Y159076D01*
X384521Y159094D01*
X384527Y159515D01*
X384533Y159532D01*
X384539Y159844D01*
X384544Y159861D01*
X384539Y159965D01*
X384544Y159983D01*
X384553Y160193D01*
X384559Y160453D01*
X384565Y160869D01*
X384571Y160898D01*
X384579Y161345D01*
Y161351D01*
X384582Y161793D01*
X384579Y162552D01*
X384573Y162713D01*
X384579Y162737D01*
X384573Y162754D01*
X384568Y162921D01*
X384562Y162996D01*
X384568Y163054D01*
X384579Y163083D01*
X384611Y163109D01*
X384732Y163115D01*
X384755Y163109D01*
D02*
G37*
G36*
X374917Y158104D02*
X374932Y158089D01*
X374952Y158057D01*
X374961Y158014D01*
X374967Y157997D01*
X374961Y157390D01*
X374955Y157373D01*
X374949Y157050D01*
X374944Y156992D01*
X374949Y156975D01*
X374946Y156937D01*
X374941Y156094D01*
X374944Y155786D01*
X374949Y155659D01*
X374944Y155641D01*
X374946Y155615D01*
X374952Y155569D01*
X374958Y155419D01*
X374975Y154945D01*
X374981Y154847D01*
X374987Y154709D01*
X374992Y154599D01*
X374998Y154501D01*
X375004Y154391D01*
X375010Y154276D01*
X375016Y154241D01*
X375024Y154082D01*
Y154077D01*
X375027Y154051D01*
X375036Y153840D01*
X375042Y153817D01*
X375047Y153799D01*
X375053Y153713D01*
X375059Y153695D01*
X375065Y153505D01*
X375047Y153465D01*
X375042Y153453D01*
X375033Y153450D01*
X375019Y153436D01*
X374990Y153424D01*
X374946Y153415D01*
X374917Y153404D01*
X374854Y153398D01*
X374776Y153390D01*
X374718Y153384D01*
X374643Y153378D01*
X374505Y153372D01*
X374476Y153366D01*
X374343Y153361D01*
X373924Y153352D01*
X373907Y153346D01*
X373186Y153341D01*
X372729Y153346D01*
X372712Y153352D01*
X372626Y153358D01*
X372579Y153369D01*
X372559Y153390D01*
X372548Y153418D01*
X372542Y153441D01*
X372524Y153505D01*
X372519Y153522D01*
X372513Y153644D01*
X372507Y153719D01*
X372513Y153742D01*
X372507Y153782D01*
X372501Y153805D01*
X372496Y153823D01*
X372499Y154403D01*
X372504Y154680D01*
X372510Y154807D01*
X372519Y155145D01*
X372513Y155185D01*
X372519Y155202D01*
X372513Y155341D01*
X372507Y155710D01*
X372501Y155993D01*
X372496Y156016D01*
X372490Y156034D01*
X372484Y156415D01*
X372478Y156432D01*
X372472Y156778D01*
X372467Y156975D01*
X372472Y156992D01*
X372467Y157194D01*
X372472Y157269D01*
X372467Y157287D01*
X372472Y157304D01*
X372478Y157431D01*
X372484Y157448D01*
X372490Y157604D01*
X372496Y157621D01*
X372501Y157754D01*
X372507Y157777D01*
X372519Y157806D01*
X372524Y157870D01*
X372530Y157893D01*
X372553Y157916D01*
X372588Y157939D01*
X372617Y157950D01*
X372666Y157959D01*
X372698Y157968D01*
X372727Y157979D01*
X372796Y157985D01*
X372871Y157997D01*
X372963Y158008D01*
X373027Y158014D01*
X373142Y158020D01*
X373200Y158026D01*
X373344Y158031D01*
X373483Y158043D01*
X373575Y158049D01*
X373598Y158054D01*
X373714Y158060D01*
X374020Y158072D01*
X374043Y158077D01*
X374176Y158083D01*
X374438Y158092D01*
X374479Y158098D01*
X374496Y158104D01*
X374877Y158109D01*
X374917Y158104D01*
D02*
G37*
G36*
X377123Y162913D02*
X377163Y162895D01*
X377198Y162889D01*
X377221Y162884D01*
X377305Y162858D01*
X377354Y162849D01*
X377371Y162843D01*
X378159Y162846D01*
X378511Y162852D01*
X378610Y162858D01*
X378716Y162866D01*
X378734Y162872D01*
X378884Y162878D01*
X378915Y162892D01*
X378944Y162904D01*
X378970Y162901D01*
X378996Y162875D01*
X379002Y162852D01*
X379008Y162835D01*
X378999Y162757D01*
X378993Y162687D01*
X378988Y162451D01*
X378982Y162231D01*
X378973Y161998D01*
X378968Y161853D01*
X378973Y161836D01*
X378970Y161827D01*
X378965Y161608D01*
X378953Y161025D01*
X378947Y160430D01*
X378941Y159963D01*
X378944Y159602D01*
X378939Y159584D01*
X378933Y158257D01*
X378939Y156917D01*
X378944Y156900D01*
X378950Y155023D01*
X378944Y155006D01*
X378939Y154082D01*
X378933Y153315D01*
X378915Y153274D01*
X378910Y153263D01*
X378895Y153254D01*
X378803Y153248D01*
X378786Y153242D01*
X378494Y153245D01*
X378459Y153251D01*
X378283Y153260D01*
X378266Y153265D01*
X378070Y153271D01*
X378052Y153277D01*
X377842Y153286D01*
X377611Y153291D01*
X377565Y153297D01*
X377310Y153303D01*
X377155Y153309D01*
X377085Y153320D01*
X377030Y153329D01*
X377007Y153335D01*
X376950Y153341D01*
X376909Y153346D01*
X376906Y153349D01*
X376880Y153358D01*
X376860Y153378D01*
X376854Y153401D01*
X376860Y153459D01*
X376854Y153476D01*
X376849Y154227D01*
X376854Y154943D01*
X376860Y155260D01*
X376854Y155277D01*
X376857Y155326D01*
X376854Y155514D01*
X376863Y155592D01*
X376869Y156891D01*
X376878Y157754D01*
X376883Y157772D01*
X376898Y159322D01*
X376903Y159581D01*
X376912Y160323D01*
X376918Y160341D01*
X376915Y160384D01*
X376918Y160860D01*
X376924Y160901D01*
X376930Y162205D01*
X376935Y162223D01*
X376941Y162615D01*
X376947Y162656D01*
X376953Y162673D01*
X376958Y162748D01*
X376964Y162765D01*
X376958Y162835D01*
X376964Y162858D01*
X376976Y162887D01*
X377007Y162913D01*
X377100Y162918D01*
X377123Y162913D01*
D02*
G37*
G36*
X378021Y152269D02*
X378454Y152264D01*
X379037Y152258D01*
X379487Y152252D01*
X379790Y152244D01*
X379808Y152238D01*
X380206Y152232D01*
X380223Y152226D01*
X380552Y152220D01*
X380570Y152215D01*
X380619Y152218D01*
X380697Y152215D01*
X380714Y152209D01*
X382443Y152212D01*
X383352Y152220D01*
X383370Y152226D01*
X384195Y152220D01*
X384212Y152215D01*
X384444Y152209D01*
X384461Y152203D01*
X385079Y152197D01*
X385096Y152192D01*
X386320Y152186D01*
X386337Y152192D01*
X386406Y152186D01*
X386424Y152192D01*
X386897Y152197D01*
X386914Y152203D01*
X387316Y152200D01*
X388035Y152192D01*
X388052Y152186D01*
X388600Y152180D01*
X388693Y152174D01*
X388710Y152169D01*
X388730Y152171D01*
X389045Y152169D01*
X389137Y152163D01*
X389155Y152157D01*
X389172Y152163D01*
X389238Y152160D01*
X389556Y152154D01*
X390228Y152145D01*
X390246Y152140D01*
X391320Y152134D01*
X391337Y152140D01*
X392388Y152145D01*
X392428Y152140D01*
X392457Y152128D01*
X392477Y152108D01*
X392483Y152096D01*
X392489Y152079D01*
X392486Y152065D01*
X392480Y152001D01*
X392483Y151865D01*
X392489Y151825D01*
X392494Y151473D01*
Y151467D01*
X392500Y151132D01*
X392506Y150693D01*
X392500Y150445D01*
X392489Y150416D01*
X392480Y150408D01*
X392460Y150393D01*
X392431Y150382D01*
X392379Y150376D01*
X392278Y150367D01*
X392261Y150361D01*
X392001Y150356D01*
X391856Y150350D01*
X391839Y150356D01*
X391802Y150353D01*
X391773Y150347D01*
X391750Y150341D01*
X391345Y150336D01*
X391317Y150330D01*
X391019Y150321D01*
X390849Y150312D01*
X390641Y150307D01*
X390248Y150295D01*
X390064Y150289D01*
X389686Y150281D01*
X389668Y150275D01*
X389345Y150269D01*
X389328Y150263D01*
X387980Y150266D01*
X387541Y150278D01*
X387350Y150283D01*
X387206Y150289D01*
X387073Y150295D01*
X386733Y150307D01*
X386606Y150312D01*
X386455Y150318D01*
X386427Y150324D01*
X386031Y150333D01*
X386014Y150338D01*
X385852Y150344D01*
X385835Y150350D01*
X385090Y150356D01*
X384461Y150361D01*
X384444Y150356D01*
X384342Y150359D01*
X384270Y150356D01*
X384253Y150361D01*
X382654Y150367D01*
X381713Y150361D01*
X381499Y150356D01*
X380939Y150350D01*
X380760Y150344D01*
X380743Y150350D01*
X380726Y150344D01*
X380027Y150338D01*
X380010Y150333D01*
X379559Y150327D01*
X378601Y150333D01*
X378583Y150338D01*
X377695Y150344D01*
X377677Y150350D01*
X377668Y150347D01*
X376690Y150350D01*
X376673Y150344D01*
X376260Y150347D01*
X374017Y150361D01*
X374000Y150367D01*
X371454Y150373D01*
X371379Y150379D01*
X371361Y150385D01*
X371301Y150382D01*
X371263Y150385D01*
X371223Y150402D01*
X371197Y150428D01*
X371191Y150451D01*
X371185Y150468D01*
X371188Y150483D01*
X371197Y150572D01*
X371191Y150590D01*
X371194Y150696D01*
X371199Y151124D01*
X371205Y151147D01*
X371211Y151372D01*
X371217Y151539D01*
X371223Y151591D01*
X371228Y151782D01*
X371240Y151966D01*
X371246Y152093D01*
X371243Y152171D01*
X371249Y152194D01*
X371260Y152223D01*
X371272Y152235D01*
X371301Y152246D01*
X371367Y152255D01*
X371384Y152261D01*
X371520Y152258D01*
X371783Y152249D01*
X371800Y152244D01*
X371921Y152238D01*
X371944Y152232D01*
X372022Y152223D01*
X372126Y152206D01*
X372239Y152197D01*
X372256Y152192D01*
X372395Y152186D01*
X372412Y152180D01*
X372654Y152174D01*
X372672Y152169D01*
X373007Y152163D01*
X373024Y152157D01*
X373953Y152151D01*
X374063Y152157D01*
X374080Y152163D01*
X374098Y152157D01*
X374193Y152160D01*
X374470Y152166D01*
X374493Y152171D01*
X374597Y152177D01*
X374788Y152183D01*
X374883Y152192D01*
X374906Y152197D01*
X374938Y152206D01*
X375131Y152215D01*
X375148Y152220D01*
X375316Y152226D01*
X375333Y152232D01*
X375472Y152238D01*
X375720Y152244D01*
X375760Y152238D01*
X375778Y152244D01*
X375974Y152249D01*
X375991Y152255D01*
X376609Y152261D01*
X376702Y152267D01*
X376719Y152272D01*
X378021Y152269D01*
D02*
G37*
G36*
X372247Y148979D02*
X372421Y148973D01*
X372501Y148967D01*
X372594Y148961D01*
X372692Y148956D01*
X372715Y148950D01*
X372830Y148944D01*
X373131Y148933D01*
X373237Y148924D01*
X373538Y148918D01*
X373616Y148910D01*
X373772Y148904D01*
X374020Y148898D01*
X374049Y148892D01*
X374274Y148886D01*
X374482Y148881D01*
X374632Y148875D01*
X374822Y148869D01*
X374967Y148863D01*
X375157Y148857D01*
X375477Y148849D01*
X375495Y148843D01*
X375778Y148837D01*
X375795Y148832D01*
X376217Y148826D01*
X376234Y148820D01*
X376522Y148814D01*
X376540Y148808D01*
X377533Y148814D01*
X377573Y148820D01*
X377590Y148826D01*
X377896Y148832D01*
X377914Y148837D01*
X378468Y148849D01*
X378485Y148855D01*
X379351Y148860D01*
X379369Y148866D01*
X381112Y148860D01*
X381130Y148855D01*
X381496Y148857D01*
X383058Y148855D01*
X383271Y148849D01*
X383289Y148855D01*
X383309Y148852D01*
X383782Y148846D01*
X384178Y148837D01*
X384253Y148832D01*
X384270Y148826D01*
X384319Y148829D01*
X384651Y148826D01*
X384669Y148820D01*
X385125Y148814D01*
X385165Y148808D01*
X385223Y148814D01*
X385240Y148808D01*
X386005Y148811D01*
X386868Y148820D01*
X386886Y148826D01*
X387163Y148832D01*
X387255Y148837D01*
X387272Y148832D01*
X387287Y148834D01*
X387512Y148840D01*
X387783Y148846D01*
X388222Y148857D01*
X388525Y148866D01*
X388704Y148872D01*
X388722Y148878D01*
X388727Y148872D01*
X388805Y148875D01*
X388996Y148881D01*
X389310Y148889D01*
X389328Y148895D01*
X389778Y148901D01*
X389853Y148907D01*
X390084Y148912D01*
X391285Y148918D01*
X391302Y148912D01*
X391741Y148907D01*
X391758Y148901D01*
X392001Y148895D01*
X392018Y148889D01*
X392186Y148883D01*
X392203Y148878D01*
X392237Y148872D01*
X392255Y148866D01*
X392261Y148872D01*
X392327Y148869D01*
X392356Y148863D01*
X392411Y148855D01*
X392434Y148849D01*
X392451Y148843D01*
X392474Y148837D01*
X392483Y148829D01*
X392512Y148788D01*
X392518Y148500D01*
X392523Y148482D01*
X392529Y147576D01*
X392535Y147558D01*
X392532Y147521D01*
X392535Y147114D01*
X392523Y147085D01*
X392515Y147076D01*
X392503Y147071D01*
X392494Y147062D01*
X392466Y147051D01*
X392396Y147039D01*
X392333Y147033D01*
X392263Y147027D01*
X392211Y147022D01*
X391784Y147004D01*
X391755Y146999D01*
X391348Y146990D01*
X391331Y146984D01*
X391256Y146978D01*
X391239Y146984D01*
X391227Y146978D01*
X390471Y146973D01*
X390448Y146967D01*
X390430Y146961D01*
X390020Y146955D01*
X390003Y146949D01*
X389599Y146944D01*
X389582Y146938D01*
X389466Y146932D01*
X389022Y146921D01*
X388667Y146912D01*
X388545Y146906D01*
X388436Y146900D01*
X388251Y146895D01*
X388222Y146889D01*
X388156Y146880D01*
X388138Y146886D01*
X388124Y146883D01*
X387928Y146877D01*
X387789Y146872D01*
X387766Y146866D01*
X387526Y146857D01*
X387509Y146851D01*
X387128Y146846D01*
X387111Y146840D01*
X386467Y146843D01*
X386248Y146848D01*
X386005Y146854D01*
X385844Y146860D01*
X385572Y146866D01*
X385416Y146872D01*
X385133Y146877D01*
X384683Y146883D01*
X384247Y146892D01*
X384230Y146897D01*
X384112Y146895D01*
X383970Y146886D01*
X383953Y146880D01*
X383820Y146874D01*
X383803Y146869D01*
X383598Y146860D01*
X383372Y146854D01*
X383003Y146848D01*
X382948Y146851D01*
X382931Y146846D01*
X382446Y146840D01*
X382429Y146834D01*
X381643Y146828D01*
X381568Y146822D01*
X381551Y146817D01*
X381190Y146819D01*
X381101Y146817D01*
X381083Y146811D01*
X381066Y146817D01*
X381006Y146814D01*
X380688Y146808D01*
X380497Y146802D01*
X380243Y146796D01*
X380093Y146791D01*
X379833Y146785D01*
X379591Y146779D01*
X378968Y146773D01*
X378295Y146776D01*
X378278Y146782D01*
X377643Y146788D01*
X377585Y146793D01*
X377215Y146799D01*
X377198Y146793D01*
X377178Y146796D01*
X377143Y146802D01*
X377077Y146811D01*
X377059Y146805D01*
X377016Y146808D01*
X376600Y146814D01*
X376427Y146819D01*
X376072Y146828D01*
X375980Y146834D01*
X375974D01*
X375821Y146837D01*
X375792Y146843D01*
X375636Y146848D01*
X375400Y146854D01*
X375365Y146860D01*
X375047Y146872D01*
X374926Y146877D01*
X374892Y146883D01*
X374537Y146892D01*
X374467Y146903D01*
X374450Y146909D01*
X374395Y146906D01*
X374092Y146909D01*
X374034Y146915D01*
X374017Y146921D01*
X373007Y146926D01*
X371875Y146932D01*
X371800Y146938D01*
X371396Y146944D01*
X371373Y146949D01*
X371321Y146973D01*
X371309Y146978D01*
X371289Y147010D01*
X371292Y147071D01*
X371303Y147117D01*
X371301Y147576D01*
X371295Y147593D01*
X371289Y148413D01*
X371295Y148430D01*
X371292Y148445D01*
X371286Y148491D01*
X371289Y148690D01*
X371283Y148707D01*
X371286Y148826D01*
X371295Y148904D01*
X371306Y148933D01*
X371315Y148941D01*
X371379Y148976D01*
X371396Y148982D01*
X372247Y148979D01*
D02*
G37*
G36*
X382815Y145593D02*
X382830Y145578D01*
X382847Y145549D01*
X382833Y145500D01*
X382815Y145454D01*
X382810Y145373D01*
X382801Y145145D01*
X382795Y145128D01*
X382789Y144776D01*
X382784Y144493D01*
X382778Y144476D01*
X382781Y143867D01*
X382792Y143324D01*
X382798Y143156D01*
X382804Y142972D01*
X382810Y142729D01*
X382815Y142695D01*
X382824Y142299D01*
X382830Y142282D01*
X382836Y142010D01*
X382841Y141993D01*
X382847Y141508D01*
X382853Y141491D01*
X382850Y141453D01*
X382853Y141375D01*
X382859Y141358D01*
X382864Y140134D01*
X382870Y139955D01*
X382864Y139938D01*
X382867Y139866D01*
X382864Y139759D01*
X382859Y139701D01*
X382853Y139678D01*
X382841Y139649D01*
X382821Y139629D01*
X382469Y139623D01*
X382452Y139629D01*
X381176Y139635D01*
X381158Y139629D01*
X381006Y139632D01*
X380887Y139629D01*
X380864Y139635D01*
X380855Y139643D01*
X380841Y139663D01*
X380832Y139707D01*
X380826Y139724D01*
X380821Y139851D01*
X380826Y139868D01*
X380824Y139946D01*
X380826Y140469D01*
X380832Y140486D01*
X380838Y142819D01*
X380832Y144279D01*
X380826Y144597D01*
Y144603D01*
X380821Y145370D01*
X380826Y145388D01*
X380821Y145509D01*
X380826Y145532D01*
X380838Y145561D01*
X380853Y145575D01*
X380893Y145598D01*
X380982Y145596D01*
X382596Y145598D01*
X382775Y145604D01*
X382815Y145593D01*
D02*
G37*
G36*
X391735Y145570D02*
X391776Y145564D01*
X391816Y145552D01*
X391830Y145538D01*
X391853Y145497D01*
X391859Y145480D01*
X391865Y145267D01*
X391871Y145249D01*
X391877Y144493D01*
X391882Y144476D01*
X391880Y143168D01*
X391874Y142729D01*
X391868Y142695D01*
X391862Y142417D01*
X391856Y142250D01*
X391851Y141857D01*
X391845Y141811D01*
X391839Y141580D01*
X391833Y141390D01*
X391828Y141274D01*
X391822Y141182D01*
X391816Y141066D01*
X391810Y140934D01*
X391802Y140532D01*
X391790Y140463D01*
X391784Y140076D01*
X391778Y140059D01*
X391773Y139793D01*
X391758Y139756D01*
X391726Y139736D01*
X391677Y139727D01*
X391660Y139721D01*
X391221Y139715D01*
X391204Y139721D01*
X390523Y139727D01*
X390430Y139733D01*
X390413Y139739D01*
X390353Y139736D01*
X390006Y139730D01*
X389761Y139733D01*
X389651Y139739D01*
X389593Y139744D01*
X389553Y139756D01*
X389541Y139767D01*
X389501Y139773D01*
X389423Y139782D01*
X389342Y139788D01*
X389279Y139793D01*
X389250Y139799D01*
X389227Y139805D01*
X389189Y139814D01*
X389149Y139819D01*
X389120Y139831D01*
X389056Y139866D01*
X389016Y139883D01*
X389002Y139897D01*
X388993Y139917D01*
X388987Y139941D01*
X388990Y140030D01*
X388996Y140047D01*
X389002Y140105D01*
X388996Y140146D01*
X388984Y140186D01*
X388973Y140215D01*
X388967Y140226D01*
X388950Y140244D01*
X388944Y140255D01*
X388924Y140264D01*
X388900Y140270D01*
X388889Y140281D01*
X388866Y140287D01*
X388840Y140296D01*
X388825Y140316D01*
X388791Y140374D01*
X388785Y140397D01*
X388776Y140463D01*
X388782Y140480D01*
X388779Y140593D01*
X388773Y140616D01*
X388762Y140685D01*
X388756Y140714D01*
X388750Y140737D01*
X388742Y140786D01*
X388736Y140804D01*
X388730Y140908D01*
X388724Y140925D01*
X388719Y141023D01*
X388724Y141040D01*
X388722Y141297D01*
X388713Y141733D01*
X388707Y141843D01*
X388701Y141860D01*
X388704Y141875D01*
X388710Y141984D01*
X388716Y142244D01*
X388722Y142400D01*
X388727Y142481D01*
X388733Y142573D01*
X388739Y142671D01*
X388747Y142842D01*
X388753Y142859D01*
X388759Y142946D01*
X388765Y142963D01*
X388771Y143113D01*
X388776Y143136D01*
X388788Y143165D01*
X388794Y143321D01*
X388799Y143338D01*
X388805Y143552D01*
X388811Y143575D01*
X388843Y143607D01*
X388935Y143612D01*
X388944Y143621D01*
X388955Y143650D01*
X388961Y143725D01*
X388967Y143748D01*
X388973Y143765D01*
X388978Y143806D01*
X388984Y143823D01*
X388990Y143962D01*
X388984Y143985D01*
X388990Y144025D01*
X389016Y144074D01*
X389022Y144167D01*
X389027Y144242D01*
X389051Y144334D01*
X389062Y144398D01*
X389068Y144467D01*
X389065Y144597D01*
X389071Y144637D01*
X389077Y144655D01*
X389082Y144718D01*
X389077Y144759D01*
X389071Y144776D01*
X389077Y144868D01*
X389088Y144897D01*
X389114Y144946D01*
X389123Y144989D01*
X389117Y145007D01*
X389123Y145053D01*
X389128Y145070D01*
X389134Y145215D01*
X389146Y145243D01*
X389157Y145255D01*
X389163Y145267D01*
X389172Y145269D01*
X389180Y145278D01*
X389186Y145290D01*
X389215Y145330D01*
X389221Y145342D01*
X389267Y145370D01*
X389296Y145382D01*
X389319Y145388D01*
X389356Y145396D01*
X389388Y145405D01*
X389443Y145414D01*
X389466Y145420D01*
X389544Y145428D01*
X389567Y145434D01*
X389596Y145440D01*
X389660Y145445D01*
X389798Y145469D01*
X389850Y145474D01*
X390047Y145480D01*
X390104Y145486D01*
X390150Y145492D01*
X390220Y145503D01*
X390275Y145512D01*
X390292Y145518D01*
X390384Y145523D01*
X390425Y145529D01*
X390442Y145535D01*
X390580Y145541D01*
X390598Y145547D01*
X390858Y145552D01*
X390875Y145558D01*
X391083Y145564D01*
X391088D01*
X391207Y145567D01*
X391435Y145575D01*
X391735Y145570D01*
D02*
G37*
G36*
X374964Y145714D02*
X374981Y145697D01*
X374992Y145668D01*
X374998Y145645D01*
X374995Y145515D01*
X374990Y145497D01*
X374984Y145105D01*
Y145099D01*
X374987Y144207D01*
X374992Y143624D01*
X374998Y143335D01*
X375004Y143133D01*
X375010Y142723D01*
X375016Y142452D01*
X375021Y142256D01*
X375030Y141520D01*
X375036Y141502D01*
X375033Y141453D01*
X375036Y141381D01*
X375042Y141364D01*
X375039Y140512D01*
X375033Y139721D01*
X375036Y139655D01*
X375027Y139623D01*
X374964Y139588D01*
X373751Y139594D01*
X373676Y139600D01*
X373659Y139594D01*
X373627Y139597D01*
X373203Y139606D01*
X373186Y139612D01*
X373087Y139617D01*
X373047Y139623D01*
X373007Y139635D01*
X372986Y139655D01*
X372975Y139701D01*
X372969Y139718D01*
X372960Y139773D01*
X372963Y139868D01*
X372969Y139886D01*
X372966Y140044D01*
X372960Y140287D01*
X372955Y140483D01*
X372949Y140518D01*
X372940Y140786D01*
X372934Y140804D01*
X372929Y141248D01*
X372923Y141289D01*
X372929Y141306D01*
X372926Y141355D01*
X372914Y141424D01*
X372908Y141580D01*
X372900Y141803D01*
X372877Y141860D01*
X372879Y141915D01*
X372877Y142241D01*
X372868Y142273D01*
X372862Y142296D01*
X372856Y142406D01*
X372851Y142504D01*
X372845Y142735D01*
X372839Y143185D01*
X372828Y143584D01*
X372822Y143641D01*
X372813Y143985D01*
X372807Y144043D01*
X372802Y144060D01*
X372804Y144207D01*
X372802Y144839D01*
X372807Y144932D01*
X372813Y144949D01*
X372810Y145085D01*
X372813Y145342D01*
X372819Y145359D01*
X372825Y145503D01*
X372836Y145549D01*
X372859Y145573D01*
X372906Y145601D01*
X372934Y145613D01*
X372957Y145619D01*
X372986Y145624D01*
X373038Y145630D01*
X373136Y145636D01*
X373165Y145642D01*
X373304Y145647D01*
X373526Y145656D01*
X373584Y145662D01*
X373601Y145668D01*
X373988Y145674D01*
X374005Y145679D01*
X374438Y145685D01*
X374456Y145691D01*
X374594Y145697D01*
X374612Y145702D01*
X374871Y145708D01*
X374912Y145714D01*
X374929Y145720D01*
X374964Y145714D01*
D02*
G37*
G36*
X377357Y145665D02*
X377562Y145656D01*
X377579Y145650D01*
X378000Y145645D01*
X378018Y145639D01*
X378347Y145633D01*
X378364Y145627D01*
X378402Y145630D01*
X378468Y145627D01*
X378485Y145622D01*
X378760Y145624D01*
X378866Y145622D01*
X378890Y145616D01*
X378915Y145584D01*
X378924Y145535D01*
X378921Y145370D01*
X378915Y144984D01*
Y144978D01*
Y144487D01*
X378910Y144470D01*
X378915Y140088D01*
X378921Y140030D01*
X378915Y139678D01*
X378910Y139655D01*
X378915Y139637D01*
X378910Y139603D01*
X378904Y139580D01*
X378895Y139571D01*
X378861Y139560D01*
X378849Y139565D01*
X378780Y139560D01*
X378763Y139554D01*
X378148Y139557D01*
X377937Y139565D01*
X377602Y139571D01*
X377579Y139577D01*
X377562Y139583D01*
X377163Y139588D01*
X377123Y139600D01*
X377100Y139606D01*
X377007Y139612D01*
X376984Y139617D01*
X376944Y139629D01*
X376924Y139661D01*
X376918Y140024D01*
X376912Y140117D01*
X376918Y140134D01*
X376915Y140166D01*
X376918Y140504D01*
X376912Y140521D01*
X376915Y140864D01*
X376912Y141485D01*
X376906Y141647D01*
X376912Y141664D01*
X376909Y141811D01*
X376912Y142149D01*
X376906Y142172D01*
X376912Y142189D01*
X376909Y142244D01*
X376901Y143044D01*
X376895Y143188D01*
X376889Y143205D01*
X376895Y143223D01*
X376892Y143335D01*
X376886Y144028D01*
X376880Y144063D01*
X376883Y144377D01*
X376878Y144395D01*
X376880Y144530D01*
X376889Y145163D01*
X376895Y145290D01*
X376889Y145307D01*
X376895Y145365D01*
X376901Y145382D01*
X376906Y145440D01*
X376901Y145457D01*
X376906Y145544D01*
X376912Y145567D01*
X376930Y145607D01*
X376961Y145633D01*
X376981Y145642D01*
X377106Y145662D01*
X377123Y145668D01*
X377357Y145665D01*
D02*
G37*
G36*
X384689Y145890D02*
X384755Y145876D01*
X384793Y145861D01*
X384856Y145838D01*
X384885Y145832D01*
X384980Y145812D01*
X384998Y145806D01*
X385079Y145801D01*
X385102Y145795D01*
X385119Y145789D01*
X385232Y145780D01*
X385289Y145775D01*
X385335Y145769D01*
X385393Y145763D01*
X385468Y145757D01*
X385566Y145751D01*
X385650Y145743D01*
X385728Y145734D01*
X385797Y145723D01*
X385826Y145717D01*
X385875Y145708D01*
X385898Y145702D01*
X385973Y145697D01*
X386005Y145688D01*
X386034Y145676D01*
X386063Y145671D01*
X386121Y145665D01*
X386155Y145659D01*
X386193Y145650D01*
X386262Y145639D01*
X386302Y145633D01*
X386320Y145627D01*
X386401Y145622D01*
X386438Y145607D01*
X386461Y145567D01*
X386473Y145474D01*
X386467Y145457D01*
X386470Y145373D01*
X386476Y145281D01*
X386481Y145200D01*
X386487Y145108D01*
X386493Y144946D01*
X386499Y144709D01*
X386510Y144323D01*
X386516Y144201D01*
X386522Y144005D01*
X386530Y143615D01*
X386536Y143598D01*
X386542Y143055D01*
X386548Y142824D01*
Y142819D01*
X386551Y142273D01*
X386548Y141173D01*
X386554Y141156D01*
X386551Y140258D01*
X386554Y139649D01*
X386542Y139620D01*
X386496Y139591D01*
X386450Y139580D01*
X386253Y139574D01*
X386005Y139568D01*
X385809Y139563D01*
X385676Y139557D01*
X385555Y139551D01*
X385405Y139545D01*
X385307Y139539D01*
X385226Y139534D01*
X385133Y139528D01*
X385110Y139522D01*
X385044Y139513D01*
X384966Y139505D01*
X384937Y139499D01*
X384902Y139493D01*
X384874Y139487D01*
X384813Y139479D01*
X384796Y139473D01*
X384646Y139467D01*
X384599Y139479D01*
X384571Y139490D01*
X384556Y139505D01*
X384527Y139545D01*
X384521Y139643D01*
X384527Y139666D01*
X384533Y139828D01*
X384539Y139845D01*
X384544Y139978D01*
X384550Y140053D01*
X384556Y140070D01*
X384562Y141300D01*
X384568Y141323D01*
X384562Y141341D01*
X384556Y142703D01*
X384550Y142720D01*
X384553Y143006D01*
X384550Y144054D01*
X384556Y144071D01*
X384553Y144155D01*
X384556Y144660D01*
X384562Y144678D01*
X384568Y145261D01*
X384573Y145278D01*
X384568Y145324D01*
X384573Y145342D01*
X384579Y145590D01*
X384585Y145607D01*
X384591Y145815D01*
X384596Y145838D01*
X384608Y145867D01*
X384646Y145893D01*
X384689Y145890D01*
D02*
G37*
G36*
X397208Y138162D02*
X397240Y138148D01*
X397246Y138113D01*
X397229Y138073D01*
X397200Y138033D01*
X397194Y138021D01*
X397139Y137966D01*
X397127Y137960D01*
X397113Y137946D01*
X397078Y137882D01*
X397041Y137845D01*
X397029Y137839D01*
X397003Y137813D01*
X396997Y137802D01*
X396974Y137767D01*
X396969Y137755D01*
X396876Y137663D01*
X396870Y137652D01*
X396824Y137605D01*
X396819Y137594D01*
X396807Y137582D01*
X396801Y137571D01*
X396772Y137542D01*
X396767Y137530D01*
X396729Y137493D01*
X396717Y137487D01*
X396706Y137475D01*
X396694Y137470D01*
X396683Y137458D01*
X396657Y137426D01*
X396651Y137415D01*
X396631Y137395D01*
X396602Y137377D01*
X396521Y137296D01*
X396510Y137291D01*
X396437Y137219D01*
X396423Y137198D01*
X396412Y137192D01*
X396394Y137175D01*
X396383Y137169D01*
X396331Y137118D01*
X396305Y137086D01*
X396299Y137074D01*
X396290Y137065D01*
X396279Y137060D01*
X396218Y136999D01*
X396212Y136988D01*
X396195Y136970D01*
X396163Y136944D01*
X396152Y136938D01*
X396143Y136930D01*
X396137Y136918D01*
X396109Y136878D01*
X396103Y136866D01*
X396077Y136840D01*
X396065Y136835D01*
X396016Y136785D01*
X395947Y136693D01*
X395941Y136682D01*
X395912Y136641D01*
X395877Y136578D01*
X395866Y136537D01*
X395843Y136503D01*
X395834Y136482D01*
X395826Y136445D01*
X395820Y136422D01*
X395802Y136364D01*
X395797Y136347D01*
X395791Y136289D01*
X395785Y136272D01*
X395779Y136110D01*
X395774Y136052D01*
X395768Y136012D01*
X395774Y135995D01*
X395771Y135963D01*
X395765Y135772D01*
X395759Y135622D01*
X395753Y135501D01*
X395748Y135351D01*
X395739Y135036D01*
X395733Y134874D01*
X395727Y134857D01*
X395722Y134563D01*
X395716Y134545D01*
X395710Y134274D01*
X395704Y134257D01*
X395699Y133899D01*
X395693Y133882D01*
X395687Y133477D01*
X395681Y133333D01*
X395676Y132964D01*
X395670Y132946D01*
X395664Y132507D01*
X395658Y132490D01*
X395652Y131203D01*
X395647Y131185D01*
X395649Y129826D01*
X395655Y128989D01*
X395661Y128954D01*
X395667Y128544D01*
X395673Y128082D01*
X395687Y127669D01*
X395693Y127652D01*
X395690Y127424D01*
X395693Y127219D01*
X395699Y127202D01*
X395704Y126607D01*
X395710Y126590D01*
X395716Y125978D01*
X395710Y125920D01*
X395716Y125880D01*
X395727Y125851D01*
X395724Y125675D01*
X395719Y125582D01*
X395713Y125461D01*
X395707Y125415D01*
X395701Y125288D01*
X395696Y125178D01*
X395687Y125002D01*
X395676Y124973D01*
X395670Y124904D01*
X395664Y124864D01*
X395638Y124659D01*
X395632Y124578D01*
X395626Y124549D01*
X395615Y124520D01*
X395609Y124497D01*
X395603Y124428D01*
X395589Y124361D01*
X395583Y124338D01*
X395574Y124306D01*
X395569Y124283D01*
X395554Y124246D01*
X395548Y124223D01*
X395543Y124205D01*
X395537Y124171D01*
X395531Y124130D01*
X395496Y124055D01*
X395485Y124044D01*
X395479Y124032D01*
X395456Y124009D01*
X395442Y123989D01*
X395416Y123957D01*
X395410Y123946D01*
X395401Y123937D01*
X395381Y123923D01*
X395335Y123894D01*
X395300Y123871D01*
X395271Y123859D01*
X395240Y123850D01*
X395199Y123833D01*
X395156Y123813D01*
X395066Y123781D01*
X395017Y123767D01*
X394994Y123761D01*
X394951Y123752D01*
X394911Y123747D01*
X394853Y123723D01*
X394830Y123718D01*
X394789Y123712D01*
X394731Y123694D01*
X394700Y123680D01*
X394671Y123668D01*
X394648Y123663D01*
X394581Y123648D01*
X394535Y123637D01*
X394478Y123631D01*
X394454Y123625D01*
X394426Y123608D01*
X394385Y123602D01*
X394362Y123596D01*
X394287Y123591D01*
X394264Y123585D01*
X394186Y123576D01*
X394094Y123565D01*
X394019Y123559D01*
X393990Y123553D01*
X393926Y123547D01*
X393834Y123541D01*
X393770Y123536D01*
X393718Y123530D01*
X393661Y123524D01*
X393562Y123518D01*
X393525Y123510D01*
X393508Y123504D01*
X393207Y123498D01*
X393098Y123492D01*
X393080Y123487D01*
X392587Y123490D01*
X392442Y123495D01*
X392272Y123504D01*
X392232Y123510D01*
X392200Y123518D01*
X392177Y123524D01*
X392108Y123530D01*
X392070Y123539D01*
X392041Y123550D01*
X392030Y123556D01*
X391998Y123588D01*
X391992Y123634D01*
X392021Y123697D01*
X392027Y123709D01*
X392090Y123772D01*
X392125Y123836D01*
X392136Y123848D01*
X392142Y123859D01*
X392151Y123868D01*
X392162Y123874D01*
X392194Y123905D01*
X392200Y123917D01*
X392217Y123934D01*
X392223Y123946D01*
X392269Y123992D01*
X392275Y124003D01*
X392286Y124015D01*
X392292Y124026D01*
X392304Y124038D01*
X392310Y124050D01*
X392347Y124087D01*
X392359Y124093D01*
X392379Y124113D01*
X392408Y124153D01*
X392413Y124177D01*
X392457Y124220D01*
X392468Y124226D01*
X392512Y124269D01*
X392529Y124298D01*
X392541Y124309D01*
X392564Y124350D01*
X392569Y124361D01*
X392578Y124364D01*
X392590Y124376D01*
X392601Y124382D01*
X392624Y124405D01*
X392636Y124410D01*
X392639Y124419D01*
X392696Y124500D01*
X392702Y124511D01*
X392731Y124552D01*
X392760Y124604D01*
X392771Y124633D01*
X392783Y124644D01*
X392789Y124656D01*
X392797Y124659D01*
X392841Y124719D01*
X392846Y124731D01*
X392861Y124757D01*
X392875Y124794D01*
X392913Y124878D01*
X392933Y124933D01*
X392945Y124962D01*
X392962Y124979D01*
X392968Y124991D01*
X392976Y124999D01*
X392985Y125037D01*
X392991Y125077D01*
X393008Y125135D01*
X393017Y125167D01*
X393028Y125213D01*
X393034Y125247D01*
X393040Y125276D01*
X393046Y125311D01*
X393057Y125386D01*
X393069Y125455D01*
X393075Y125536D01*
X393080Y125582D01*
X393086Y125640D01*
X393092Y125704D01*
X393098Y125842D01*
X393103Y125865D01*
X393109Y125894D01*
X393115Y126033D01*
X393126Y126194D01*
X393132Y126292D01*
X393138Y126321D01*
X393144Y126472D01*
X393150Y126737D01*
X393155Y126766D01*
X393153Y127860D01*
X393147Y128177D01*
Y128183D01*
Y128749D01*
X393141Y128766D01*
X393135Y129863D01*
X393141Y129881D01*
X393138Y130236D01*
X393141Y130556D01*
X393147Y131047D01*
X393153Y131953D01*
X393158Y131976D01*
X393153Y132017D01*
X393158Y132034D01*
X393164Y132456D01*
X393173Y132533D01*
X393178Y133117D01*
X393184Y133388D01*
X393190Y133422D01*
X393196Y133827D01*
X393202Y133855D01*
X393210Y134274D01*
X393216Y134291D01*
X393222Y134413D01*
X393228Y134869D01*
X393233Y134886D01*
X393239Y135619D01*
X393245Y135677D01*
X393239Y135694D01*
X393242Y136044D01*
X393248Y136500D01*
X393254Y137389D01*
X393259Y137574D01*
X393265Y137776D01*
X393271Y137903D01*
X393277Y137937D01*
X393297Y138033D01*
X393314Y138096D01*
X393326Y138108D01*
X393331Y138119D01*
X393381Y138151D01*
X393404Y138157D01*
X393421Y138162D01*
X393658Y138168D01*
X393958Y138162D01*
X394016Y138157D01*
X394186Y138148D01*
X394278Y138142D01*
X394411Y138137D01*
X394440Y138131D01*
X394544Y138125D01*
X394729Y138113D01*
X395006Y138102D01*
X395586Y138093D01*
X395603Y138087D01*
X395751Y138090D01*
X396201Y138096D01*
X396345Y138102D01*
X396625Y138111D01*
X396654Y138122D01*
X396712Y138128D01*
X396790Y138137D01*
X396824Y138142D01*
X396908Y138151D01*
X396925Y138157D01*
X397145Y138162D01*
X397168Y138168D01*
X397208Y138162D01*
D02*
G37*
G36*
X406255Y136962D02*
X406269Y136947D01*
X406275Y136837D01*
X406269Y136820D01*
X406272Y136696D01*
X406278Y136627D01*
X406284Y136500D01*
X406290Y136390D01*
X406296Y136332D01*
X406301Y136286D01*
X406310Y136220D01*
X406316Y136202D01*
X406321Y136110D01*
X406327Y136087D01*
X406342Y136055D01*
X406353Y136026D01*
X406359Y135980D01*
X406365Y135951D01*
X406385Y135896D01*
X406408Y135804D01*
X406437Y135712D01*
X406448Y135666D01*
X406466Y135625D01*
X406495Y135573D01*
X406500Y135550D01*
X406518Y135510D01*
X406524Y135498D01*
X406547Y135463D01*
X406573Y135409D01*
X406587Y135371D01*
X406599Y135342D01*
X406610Y135331D01*
X406616Y135308D01*
X406624Y135299D01*
X406653Y135235D01*
X406668Y135198D01*
X406682Y135183D01*
X406708Y135152D01*
X406737Y135100D01*
X406760Y135065D01*
X406789Y135025D01*
X406847Y134915D01*
X406870Y134880D01*
X406876Y134869D01*
X406904Y134840D01*
X406922Y134811D01*
X406945Y134759D01*
X406951Y134747D01*
X406971Y134727D01*
X406994Y134693D01*
X407009Y134655D01*
X407032Y134621D01*
X407060Y134580D01*
X407089Y134528D01*
X407124Y134465D01*
X407147Y134424D01*
X407153Y134413D01*
X407164Y134401D01*
X407188Y134361D01*
X407245Y134251D01*
X407251Y134240D01*
X407268Y134222D01*
X407314Y134136D01*
X407326Y134124D01*
X407372Y134037D01*
X407407Y133957D01*
X407424Y133910D01*
X407436Y133882D01*
X407441Y133870D01*
X407467Y133844D01*
X407491Y133809D01*
X407499Y133772D01*
X407517Y133731D01*
X407540Y133691D01*
X407566Y133636D01*
X407580Y133599D01*
X407623Y133503D01*
X407638Y133466D01*
X407644Y133448D01*
X407649Y133425D01*
X407690Y133362D01*
X407696Y133350D01*
X407704Y133342D01*
X407736Y133252D01*
X407794Y133171D01*
X407799Y133160D01*
X407869Y133015D01*
X407880Y133004D01*
X407886Y132981D01*
X407898Y132969D01*
X407903Y132958D01*
X407921Y132941D01*
X407961Y132865D01*
X408007Y132819D01*
X408013Y132808D01*
X408053Y132767D01*
X408059Y132756D01*
X408079Y132736D01*
X408131Y132707D01*
X408143Y132695D01*
X408154Y132689D01*
X408180Y132646D01*
X408215Y132611D01*
X408250Y132548D01*
X408282Y132516D01*
X408293Y132510D01*
X408325Y132450D01*
X408339Y132418D01*
X408377Y132363D01*
X408429Y132265D01*
X408458Y132225D01*
X408463Y132213D01*
X408472Y132204D01*
X408495Y132170D01*
X408507Y132141D01*
X408515Y132109D01*
X408547Y132043D01*
X408556Y132011D01*
X408590Y131936D01*
X408599Y131927D01*
X408610Y131898D01*
X408634Y131835D01*
X408645Y131806D01*
X408662Y131771D01*
X408680Y131725D01*
X408689Y131676D01*
X408694Y131653D01*
X408720Y131604D01*
X408735Y131538D01*
X408758Y131480D01*
X408775Y131439D01*
X408789Y131402D01*
X408807Y131356D01*
X408836Y131292D01*
X408844Y131255D01*
X408856Y131208D01*
X408865Y131182D01*
X408876Y131154D01*
X408885Y131116D01*
X408891Y131093D01*
X408928Y131009D01*
X408934Y130986D01*
X408948Y130949D01*
X408980Y130848D01*
X408994Y130787D01*
X409026Y130721D01*
X409032Y130698D01*
X409041Y130660D01*
X409058Y130602D01*
X409064Y130579D01*
X409081Y130521D01*
X409098Y130481D01*
X409104Y130470D01*
X409133Y130429D01*
X409139Y130417D01*
X409150Y130406D01*
X409156Y130366D01*
X409168Y130319D01*
X409191Y130285D01*
X409199Y130265D01*
X409208Y130227D01*
X409220Y130198D01*
X409237Y130158D01*
X409260Y130123D01*
X409266Y130112D01*
X409306Y130048D01*
X409312Y130036D01*
X409324Y130025D01*
X409347Y129985D01*
X409364Y129967D01*
X409387Y129927D01*
X409410Y129892D01*
X409416Y129881D01*
X409459Y129837D01*
X409488Y129831D01*
X409540Y129883D01*
X409569Y129895D01*
X409609Y129889D01*
X409647Y129840D01*
X409653Y129811D01*
X409644Y129785D01*
X409630Y129748D01*
X409624Y129731D01*
X409618Y129673D01*
X409624Y129632D01*
X409670Y129534D01*
X409679Y129525D01*
X409696Y129479D01*
X409707Y129451D01*
X409713Y129427D01*
X409719Y129398D01*
X409725Y129364D01*
X409731Y129335D01*
X409736Y129312D01*
X409751Y129274D01*
X409785Y129199D01*
X409814Y129159D01*
X409820Y129147D01*
X409829Y129139D01*
X409858Y129075D01*
X409863Y129046D01*
X409869Y129012D01*
X409875Y128983D01*
X409884Y128911D01*
X409889Y128888D01*
X409901Y128847D01*
X409927Y128787D01*
X409941Y128749D01*
X409947Y128726D01*
X409964Y128668D01*
X409982Y128628D01*
X409993Y128582D01*
X410005Y128553D01*
X410016Y128541D01*
X410037Y128509D01*
X410048Y128452D01*
X410054Y128417D01*
X410060Y128388D01*
X410068Y128333D01*
X410086Y128264D01*
X410106Y128215D01*
X410120Y128177D01*
Y128172D01*
X410123Y128169D01*
X410132Y128120D01*
X410158Y128076D01*
X410175Y128042D01*
X410181Y128019D01*
X410195Y127981D01*
X410210Y127949D01*
X410215Y127921D01*
X410230Y127837D01*
X410247Y127768D01*
X410256Y127742D01*
X410265Y127704D01*
X410270Y127681D01*
X410282Y127641D01*
X410291Y127632D01*
X410302Y127603D01*
X410311Y127565D01*
X410325Y127516D01*
X410337Y127470D01*
X410345Y127433D01*
X410357Y127387D01*
X410377Y127320D01*
X410386Y127283D01*
X410392Y127225D01*
X410406Y127176D01*
X410415Y127121D01*
X410429Y127072D01*
X410435Y127049D01*
X410455Y126959D01*
X410467Y126890D01*
X410472Y126873D01*
X410478Y126803D01*
X410484Y126780D01*
X410493Y126749D01*
X410498Y126726D01*
X410504Y126679D01*
X410510Y126645D01*
X410522Y126587D01*
X410527Y126564D01*
X410533Y126535D01*
X410542Y126480D01*
X410547Y126463D01*
X410553Y126359D01*
X410559Y126336D01*
X410565Y126319D01*
X410574Y126212D01*
X410579Y126154D01*
X410588Y126059D01*
X410594Y126041D01*
X410600Y125903D01*
X410605Y125880D01*
X410611Y125862D01*
X410617Y125776D01*
X410625Y125698D01*
X410631Y125663D01*
X410640Y125620D01*
X410646Y125603D01*
X410651Y125568D01*
X410657Y125551D01*
X410663Y125476D01*
X410669Y125452D01*
X410677Y125421D01*
X410683Y125398D01*
X410689Y125265D01*
X410695Y125219D01*
X410700Y125190D01*
X410706Y125155D01*
X410712Y125132D01*
X410718Y125103D01*
X410727Y125037D01*
X410732Y124996D01*
X410744Y124967D01*
X410750Y124921D01*
X410755Y124864D01*
X410761Y124840D01*
X410767Y124800D01*
X410779Y124731D01*
X410793Y124682D01*
X410799Y124659D01*
X410810Y124630D01*
X410819Y124581D01*
X410825Y124558D01*
X410836Y124529D01*
X410845Y124474D01*
X410851Y124428D01*
X410862Y124382D01*
X410874Y124353D01*
X410900Y124281D01*
X410911Y124240D01*
X410926Y124191D01*
X410934Y124142D01*
X410940Y124119D01*
X410972Y124058D01*
X410992Y124003D01*
X411015Y123951D01*
X411044Y123888D01*
X411067Y123836D01*
X411079Y123807D01*
X411102Y123767D01*
X411107Y123755D01*
X411128Y123735D01*
X411139Y123729D01*
X411174Y123694D01*
X411188Y123657D01*
X411162Y123631D01*
X411107Y123611D01*
X411084Y123605D01*
X411041Y123596D01*
X411024Y123591D01*
X410810Y123585D01*
X410793Y123591D01*
X410741Y123585D01*
X410724Y123591D01*
X409676Y123588D01*
X409174Y123582D01*
X408616Y123573D01*
X408212Y123579D01*
X408183Y123591D01*
X408172Y123596D01*
X408149Y123643D01*
X408143Y123666D01*
X408137Y123764D01*
X408131Y123833D01*
X408120Y123983D01*
X408114Y124087D01*
X408108Y124110D01*
X408102Y124231D01*
X408094Y124506D01*
X408088Y124529D01*
X408082Y124546D01*
X408074Y124653D01*
X408065Y124766D01*
X408059Y124783D01*
X408053Y124939D01*
X408048Y124962D01*
X408036Y124991D01*
X408027Y125092D01*
X408022Y125155D01*
X408010Y125259D01*
X407996Y125400D01*
X407984Y125429D01*
X407978Y125487D01*
X407970Y125565D01*
X407947Y125715D01*
X407941Y125750D01*
X407932Y125828D01*
X407926Y125851D01*
X407909Y125891D01*
X407903Y125949D01*
X407880Y126041D01*
X407860Y126108D01*
X407849Y126154D01*
X407837Y126212D01*
X407831Y126275D01*
X407825Y126298D01*
X407814Y126327D01*
X407805Y126370D01*
X407788Y126469D01*
X407776Y126515D01*
X407753Y126590D01*
X407747Y126613D01*
X407739Y126645D01*
X407733Y126673D01*
X407727Y126708D01*
X407719Y126740D01*
X407710Y126749D01*
X407675Y126806D01*
X407664Y126835D01*
X407646Y126881D01*
X407641Y126910D01*
X407632Y126959D01*
X407609Y127017D01*
X407592Y127034D01*
X407586Y127046D01*
X407574Y127058D01*
X407569Y127069D01*
X407534Y127104D01*
X407505Y127156D01*
X407488Y127173D01*
X407459Y127184D01*
X407395Y127196D01*
X407314Y127202D01*
X407286Y127208D01*
X407147Y127213D01*
X406567Y127222D01*
X406492Y127216D01*
X406474Y127222D01*
X406431Y127219D01*
X405989Y127210D01*
X405972Y127216D01*
X405513Y127213D01*
X402857Y127208D01*
X402479Y127199D01*
X402199Y127184D01*
X402133Y127176D01*
X402110Y127170D01*
X402081Y127158D01*
X402055Y127127D01*
X402038Y127080D01*
X402032Y127058D01*
X402023Y127026D01*
X401994Y126962D01*
X401983Y126893D01*
X401977Y126870D01*
X401963Y126809D01*
X401957Y126786D01*
X401948Y126760D01*
X401937Y126731D01*
X401931Y126702D01*
X401925Y126645D01*
X401913Y126599D01*
X401908Y126564D01*
X401890Y126477D01*
X401882Y126440D01*
X401876Y126422D01*
X401870Y126353D01*
X401856Y126316D01*
X401844Y126287D01*
X401838Y126258D01*
X401833Y126194D01*
X401821Y126137D01*
X401815Y126102D01*
X401810Y126073D01*
X401804Y126039D01*
X401798Y126010D01*
X401789Y125949D01*
X401784Y125891D01*
X401775Y125859D01*
X401769Y125836D01*
X401763Y125785D01*
X401758Y125750D01*
X401752Y125727D01*
X401746Y125698D01*
X401740Y125675D01*
X401735Y125646D01*
X401729Y125623D01*
X401723Y125594D01*
X401714Y125562D01*
X401708Y125545D01*
X401703Y125470D01*
X401688Y125421D01*
X401677Y125392D01*
X401671Y125328D01*
X401654Y125242D01*
X401648Y125207D01*
X401639Y125152D01*
X401633Y125135D01*
X401628Y125020D01*
X401622Y124996D01*
X401610Y124967D01*
X401605Y124893D01*
X401599Y124869D01*
X401590Y124791D01*
X401573Y124688D01*
X401558Y124575D01*
X401553Y124552D01*
X401544Y124520D01*
X401538Y124468D01*
X401533Y124393D01*
X401527Y124341D01*
X401521Y124295D01*
X401515Y124231D01*
X401509Y124116D01*
X401504Y124087D01*
X401498Y124064D01*
X401492Y123966D01*
X401486Y123908D01*
X401480Y123856D01*
X401472Y123767D01*
X401466Y123749D01*
X401460Y123645D01*
X401455Y123622D01*
X401446Y123614D01*
X401394Y123573D01*
X401273Y123567D01*
X401163Y123562D01*
X401146Y123567D01*
X401085Y123565D01*
X400791Y123559D01*
X400190Y123553D01*
X399775Y123547D01*
X399665Y123541D01*
X399538Y123536D01*
X399330Y123530D01*
X399232Y123524D01*
X399139Y123518D01*
X399076Y123513D01*
X399018Y123507D01*
X398897Y123501D01*
X398868Y123495D01*
X398845Y123490D01*
X398730Y123484D01*
X398545Y123472D01*
X398435Y123467D01*
X398406Y123461D01*
X398089Y123449D01*
X397956Y123443D01*
X397924Y123446D01*
X397884Y123452D01*
X397806Y123461D01*
X397768Y123469D01*
X397739Y123481D01*
X397725Y123495D01*
X397710Y123516D01*
X397713Y123611D01*
X397725Y123640D01*
X397745Y123654D01*
X397768Y123689D01*
X397774Y123712D01*
X397780Y123747D01*
X397797Y123793D01*
X397823Y123865D01*
X397864Y123951D01*
X397884Y123989D01*
X397904Y124044D01*
X397915Y124073D01*
X397942Y124093D01*
X397953Y124099D01*
X397973Y124125D01*
X397979Y124159D01*
X397985Y124182D01*
X398025Y124269D01*
X398031Y124281D01*
X398042Y124309D01*
X398094Y124419D01*
X398100Y124431D01*
X398109Y124439D01*
X398123Y124477D01*
X398144Y124526D01*
X398167Y124560D01*
X398178Y124589D01*
X398190Y124636D01*
X398219Y124699D01*
X398236Y124745D01*
X398250Y124783D01*
X398262Y124812D01*
X398279Y124852D01*
X398294Y124884D01*
X398302Y124927D01*
X398308Y124950D01*
X398343Y125008D01*
X398349Y125066D01*
X398369Y125132D01*
X398398Y125213D01*
X398412Y125285D01*
X398418Y125302D01*
X398424Y125372D01*
X398429Y125395D01*
X398455Y125455D01*
X398467Y125530D01*
X398496Y125646D01*
X398502Y125675D01*
X398507Y125698D01*
X398516Y125735D01*
X398522Y125753D01*
X398527Y125834D01*
X398551Y125885D01*
X398565Y126015D01*
X398585Y126151D01*
X398591Y126168D01*
X398597Y126266D01*
X398629Y126339D01*
X398634Y126408D01*
X398652Y126518D01*
X398657Y126552D01*
X398666Y126607D01*
X398672Y126624D01*
X398678Y126699D01*
X398683Y126723D01*
X398692Y126749D01*
X398703Y126777D01*
X398712Y126838D01*
X398721Y126916D01*
X398738Y127031D01*
X398744Y127066D01*
X398753Y127115D01*
X398758Y127173D01*
X398776Y127213D01*
X398784Y127314D01*
X398790Y127349D01*
X398796Y127372D01*
X398802Y127401D01*
X398819Y127470D01*
X398828Y127502D01*
X398834Y127519D01*
X398839Y127589D01*
X398845Y127612D01*
X398862Y127669D01*
X398868Y127710D01*
X398877Y127788D01*
X398885Y127848D01*
X398903Y127918D01*
X398917Y127967D01*
X398923Y127990D01*
X398932Y128045D01*
X398943Y128085D01*
X398955Y128114D01*
X398960Y128137D01*
X398966Y128177D01*
X398978Y128218D01*
X398995Y128287D01*
X399018Y128362D01*
X399033Y128411D01*
X399053Y128501D01*
X399079Y128544D01*
X399087Y128582D01*
X399093Y128622D01*
X399131Y128706D01*
X399142Y128735D01*
X399171Y128798D01*
X399188Y128844D01*
X399200Y128873D01*
X399206Y128896D01*
X399215Y128934D01*
X399272Y129061D01*
X399376Y129263D01*
X399399Y129303D01*
X399434Y129401D01*
X399445Y129413D01*
X399451Y129424D01*
X399460Y129433D01*
X399474Y129471D01*
X399555Y129638D01*
X399604Y129728D01*
X399633Y129774D01*
X399639Y129797D01*
X399647Y129829D01*
X399694Y129875D01*
X399743Y129976D01*
X399777Y130074D01*
X399792Y130112D01*
X399844Y130187D01*
X399858Y130207D01*
X399884Y130279D01*
X399896Y130290D01*
X399902Y130302D01*
X399910Y130311D01*
X399930Y130366D01*
X399936Y130389D01*
X399948Y130417D01*
X400000Y130516D01*
X400017Y130545D01*
X400040Y130579D01*
X400069Y130631D01*
X400080Y130660D01*
X400092Y130706D01*
X400132Y130793D01*
X400155Y130845D01*
X400170Y130865D01*
X400187Y130900D01*
X400196Y130931D01*
X400236Y131018D01*
X400262Y131067D01*
X400274Y131096D01*
X400288Y131162D01*
X400311Y131197D01*
X400332Y131229D01*
X400340Y131266D01*
X400366Y131333D01*
X400389Y131390D01*
X400404Y131428D01*
X400421Y131486D01*
X400435Y131523D01*
X400444Y131555D01*
X400450Y131578D01*
X400479Y131670D01*
X400485Y131711D01*
X400499Y131760D01*
X400537Y131867D01*
X400568Y131968D01*
X400577Y132005D01*
X400583Y132028D01*
X400594Y132069D01*
X400603Y132077D01*
X400615Y132106D01*
X400623Y132161D01*
X400632Y132193D01*
X400640Y132230D01*
X400664Y132288D01*
X400727Y132409D01*
X400733Y132467D01*
X400750Y132507D01*
X400756Y132519D01*
X400768Y132530D01*
X400785Y132559D01*
X400796Y132606D01*
X400912Y132842D01*
X400920Y132851D01*
X400932Y132880D01*
X400941Y132917D01*
X400952Y132946D01*
X400975Y132981D01*
X400993Y133027D01*
X401007Y133065D01*
X401062Y133137D01*
X401079Y133183D01*
X401091Y133212D01*
X401097Y133235D01*
X401125Y133281D01*
X401140Y133301D01*
X401154Y133339D01*
X401160Y133362D01*
X401172Y133391D01*
X401212Y133443D01*
X401218Y133466D01*
X401229Y133495D01*
X401253Y133535D01*
X401287Y133599D01*
X401322Y133679D01*
X401356Y133743D01*
X401365Y133752D01*
X401380Y133789D01*
X401397Y133830D01*
X401403Y133841D01*
X401414Y133853D01*
X401420Y133864D01*
X401429Y133873D01*
X401449Y133928D01*
X401455Y133945D01*
X401498Y134023D01*
X401512Y134060D01*
X401521Y134092D01*
X401527Y134115D01*
X401541Y134153D01*
X401558Y134170D01*
X401564Y134182D01*
X401576Y134193D01*
X401596Y134237D01*
X401605Y134268D01*
X401633Y134309D01*
X401651Y134355D01*
X401657Y134378D01*
X401691Y134453D01*
X401743Y134563D01*
X401766Y134603D01*
X401778Y134615D01*
X401784Y134626D01*
X401792Y134635D01*
X401804Y134664D01*
X401818Y134701D01*
X401844Y134750D01*
X401856Y134779D01*
X401864Y134817D01*
X401882Y134857D01*
X401888Y134869D01*
X401922Y134903D01*
X401957Y134967D01*
X401963Y134990D01*
X401974Y135019D01*
X402017Y135103D01*
X402026Y135134D01*
X402038Y135163D01*
X402043Y135175D01*
X402061Y135192D01*
X402084Y135232D01*
X402101Y135273D01*
X402107Y135284D01*
X402124Y135302D01*
X402188Y135423D01*
X402199Y135452D01*
X402222Y135486D01*
X402228Y135498D01*
X402240Y135510D01*
X402269Y135562D01*
X402280Y135590D01*
X402303Y135625D01*
X402349Y135712D01*
X402378Y135740D01*
X402407Y135793D01*
X402424Y135833D01*
X402430Y135844D01*
X402442Y135856D01*
X402448Y135868D01*
X402534Y135989D01*
X402540Y136000D01*
X402569Y136046D01*
X402575Y136058D01*
X402595Y136073D01*
X402621Y136104D01*
X402626Y136127D01*
X402644Y136168D01*
X402650Y136179D01*
X402658Y136188D01*
X402684Y136220D01*
X402699Y136240D01*
X402753Y136312D01*
X402759Y136324D01*
X402785Y136350D01*
X402797Y136355D01*
X402814Y136373D01*
X402840Y136404D01*
X402863Y136445D01*
X402869Y136456D01*
X402886Y136474D01*
X402892Y136485D01*
X402912Y136505D01*
X402924Y136511D01*
X402956Y136543D01*
X402961Y136555D01*
X402973Y136566D01*
X403005Y136592D01*
X403080Y136632D01*
X403120Y136661D01*
X403132Y136667D01*
X403178Y136696D01*
X403218Y136719D01*
X403247Y136731D01*
X403270Y136736D01*
X403282Y136748D01*
X403293Y136754D01*
X403305Y136765D01*
X403325Y136780D01*
X403348Y136785D01*
X403383Y136791D01*
X403406Y136797D01*
X403461Y136817D01*
X403490Y136829D01*
X403547Y136846D01*
X403588Y136858D01*
X403611Y136863D01*
X403628Y136869D01*
X403686Y136875D01*
X403709Y136881D01*
X403758Y136895D01*
X403917Y136904D01*
X403934Y136910D01*
X404154Y136904D01*
X404194Y136898D01*
X404390Y136892D01*
X404408Y136887D01*
X404598Y136881D01*
X404615Y136875D01*
X404691Y136869D01*
X405008Y136863D01*
X405025Y136869D01*
X405034Y136866D01*
X405487Y136869D01*
X405510Y136875D01*
X405528Y136881D01*
X405649Y136887D01*
X405689Y136892D01*
X405787Y136904D01*
X405805Y136910D01*
X405909Y136915D01*
X405932Y136921D01*
X405972Y136944D01*
X406001Y136950D01*
X406111Y136956D01*
X406128Y136962D01*
X406232Y136967D01*
X406255Y136962D01*
D02*
G37*
G36*
X384406Y136462D02*
X384568Y136456D01*
X384712Y136451D01*
X384839Y136445D01*
X384920Y136439D01*
X385061Y136430D01*
X385102Y136425D01*
X385131Y136413D01*
X385185Y136404D01*
X385237Y136399D01*
X385272Y136393D01*
X385301Y136387D01*
X385335Y136381D01*
X385364Y136376D01*
X385387Y136370D01*
X385416Y136364D01*
X385529Y136350D01*
X385561Y136341D01*
X385589Y136329D01*
X385613Y136324D01*
X385659Y136318D01*
X385728Y136300D01*
X385815Y136283D01*
X385838Y136278D01*
X385867Y136272D01*
X385890Y136266D01*
X385973Y136251D01*
X386034Y136226D01*
X386077Y136217D01*
X386100Y136211D01*
X386141Y136194D01*
X386199Y136171D01*
X386256Y136153D01*
X386297Y136142D01*
X386320Y136136D01*
X386352Y136127D01*
X386395Y136119D01*
X386418Y136113D01*
X386479Y136081D01*
X386528Y136073D01*
X386585Y136055D01*
X386652Y136029D01*
X386681Y136018D01*
X386753Y135992D01*
X386790Y135977D01*
X386834Y135969D01*
X386857Y135963D01*
X386897Y135946D01*
X386909Y135940D01*
X386917Y135931D01*
X386955Y135917D01*
X386978Y135911D01*
X387062Y135873D01*
X387090Y135862D01*
X387145Y135842D01*
X387174Y135830D01*
X387246Y135798D01*
X387275Y135793D01*
X387313Y135784D01*
X387324Y135772D01*
X387336Y135766D01*
X387353Y135749D01*
X387382Y135732D01*
X387469Y135691D01*
X387535Y135660D01*
X387570Y135637D01*
X387607Y135622D01*
X387659Y135599D01*
X387671Y135593D01*
X387679Y135579D01*
X387711Y135553D01*
X387752Y135530D01*
X387769Y135513D01*
X387821Y135472D01*
X387832Y135466D01*
X387930Y135397D01*
X387942Y135391D01*
X387954Y135380D01*
X387965Y135374D01*
X387982Y135357D01*
X387994Y135351D01*
X388003Y135342D01*
X388008Y135331D01*
X388063Y135276D01*
X388075Y135270D01*
X388078Y135261D01*
X388086Y135259D01*
X388101Y135244D01*
X388107Y135232D01*
X388127Y135212D01*
X388167Y135183D01*
X388190Y135178D01*
X388205Y135163D01*
X388234Y135111D01*
X388239Y135100D01*
X388283Y135068D01*
X388294Y135062D01*
X388309Y135048D01*
X388315Y135036D01*
X388343Y134996D01*
X388349Y134984D01*
X388361Y134973D01*
X388375Y134952D01*
X388401Y134921D01*
X388442Y134869D01*
X388447Y134857D01*
X388467Y134837D01*
X388479Y134831D01*
X388482Y134823D01*
X388540Y134765D01*
X388545Y134753D01*
X388580Y134719D01*
X388586Y134707D01*
X388597Y134696D01*
X388603Y134684D01*
X388615Y134672D01*
X388620Y134661D01*
X388667Y134615D01*
X388672Y134603D01*
X388730Y134545D01*
X388736Y134534D01*
X388745Y134525D01*
X388771Y134494D01*
X388776Y134482D01*
X388811Y134447D01*
X388817Y134436D01*
X388854Y134398D01*
X388866Y134392D01*
X388883Y134375D01*
X388921Y134320D01*
X388926Y134309D01*
X388975Y134271D01*
X388987Y134265D01*
X389007Y134228D01*
X389019Y134199D01*
X389033Y134185D01*
X389045Y134179D01*
X389077Y134147D01*
X389123Y134060D01*
X389128Y134049D01*
X389143Y134035D01*
X389155Y134029D01*
X389175Y134009D01*
X389180Y133997D01*
X389192Y133985D01*
X389198Y133974D01*
X389215Y133957D01*
X389221Y133945D01*
X389232Y133933D01*
X389238Y133922D01*
X389250Y133910D01*
X389273Y133870D01*
X389302Y133830D01*
X389342Y133755D01*
X389348Y133743D01*
X389371Y133720D01*
X389377Y133708D01*
X389403Y133665D01*
X389414Y133636D01*
X389472Y133521D01*
X389492Y133466D01*
X389504Y133425D01*
X389524Y133405D01*
X389550Y133373D01*
X389556Y133327D01*
X389602Y133142D01*
X389611Y133111D01*
X389616Y133088D01*
X389637Y132992D01*
X389651Y132943D01*
X389657Y132914D01*
X389663Y132857D01*
X389674Y132799D01*
X389680Y132776D01*
X389697Y132689D01*
X389703Y132666D01*
X389712Y132606D01*
X389717Y132548D01*
X389723Y132525D01*
X389732Y132493D01*
X389740Y132248D01*
X389746Y132230D01*
X389743Y131644D01*
X389738Y131610D01*
X389732Y131512D01*
X389726Y131465D01*
X389715Y131408D01*
X389703Y131362D01*
X389686Y131315D01*
X389671Y131278D01*
X389660Y131208D01*
X389631Y131168D01*
X389619Y131139D01*
X389602Y131099D01*
X389596Y131087D01*
X389585Y131076D01*
X389567Y131047D01*
X389556Y131018D01*
X389538Y130977D01*
X389533Y130966D01*
X389504Y130937D01*
X389463Y130885D01*
X389458Y130874D01*
X389440Y130845D01*
X389417Y130804D01*
X389411Y130793D01*
X389400Y130781D01*
X389394Y130770D01*
X389380Y130755D01*
X389368Y130750D01*
X389348Y130729D01*
X389308Y130654D01*
X389284Y130631D01*
X389279Y130620D01*
X389267Y130608D01*
X389261Y130597D01*
X389244Y130579D01*
X389221Y130539D01*
X389198Y130504D01*
X389192Y130493D01*
X389149Y130449D01*
X389137Y130443D01*
X389123Y130429D01*
X389117Y130417D01*
X389105Y130406D01*
X389082Y130366D01*
X389059Y130331D01*
X389027Y130305D01*
X389016Y130299D01*
X388996Y130279D01*
X388990Y130267D01*
X388909Y130187D01*
X388903Y130175D01*
X388892Y130163D01*
X388886Y130152D01*
X388843Y130109D01*
X388831Y130103D01*
X388814Y130086D01*
X388802Y130080D01*
X388771Y130048D01*
X388765Y130036D01*
X388753Y130025D01*
X388747Y130013D01*
X388704Y129970D01*
X388693Y129964D01*
X388641Y129912D01*
X388629Y129907D01*
X388620Y129898D01*
X388589Y129872D01*
X388577Y129866D01*
X388502Y129791D01*
X388491Y129785D01*
X388462Y129756D01*
X388450Y129751D01*
X388415Y129716D01*
X388404Y129710D01*
X388387Y129693D01*
X388375Y129687D01*
X388364Y129676D01*
X388352Y129670D01*
X388349Y129661D01*
X388340Y129658D01*
X388306Y129624D01*
X388242Y129589D01*
X388211Y129557D01*
X388205Y129546D01*
X388190Y129537D01*
X388144Y129520D01*
X388104Y129502D01*
X388043Y129459D01*
X388008Y129436D01*
X387971Y129422D01*
X387942Y129410D01*
X387902Y129393D01*
X387884Y129375D01*
X387873Y129370D01*
X387864Y129361D01*
X387809Y129341D01*
X387777Y129326D01*
X387743Y129309D01*
X387705Y129300D01*
X387630Y129266D01*
X387590Y129248D01*
X387532Y129231D01*
X387474Y129208D01*
X387443Y129194D01*
X387405Y129179D01*
X387382Y129173D01*
X387330Y129150D01*
X387301Y129139D01*
X387295D01*
X387255Y129133D01*
X387232Y129127D01*
X387122Y129093D01*
X387099Y129087D01*
X387067Y129078D01*
X386998Y129061D01*
X386943Y129052D01*
X386920Y129046D01*
X386894Y129038D01*
X386834Y129023D01*
X386810Y129017D01*
X386773Y129003D01*
X386718Y128983D01*
X386695Y128977D01*
X386626Y128966D01*
X386585Y128954D01*
X386554Y128945D01*
X386493Y128931D01*
X386461Y128922D01*
X386432Y128911D01*
X386389Y128902D01*
X386349Y128896D01*
X386164Y128850D01*
X386132Y128841D01*
X386109Y128836D01*
X386049Y128827D01*
X386020Y128815D01*
X386008Y128810D01*
X385999Y128801D01*
X385970Y128790D01*
X385919Y128784D01*
X385890Y128778D01*
X385858Y128769D01*
X385835Y128764D01*
X385794Y128758D01*
X385771Y128752D01*
X385702Y128740D01*
X385656Y128729D01*
X385598Y128723D01*
X385546Y128700D01*
X385483Y128694D01*
X385413Y128683D01*
X385390Y128677D01*
X385315Y128654D01*
X385284Y128645D01*
X385237Y128634D01*
X385194Y128625D01*
X385136Y128619D01*
X385128Y128610D01*
X385099Y128599D01*
X385006Y128587D01*
X384949Y128576D01*
X384856Y128553D01*
X384819Y128544D01*
X384801Y128538D01*
X384721Y128532D01*
X384683Y128518D01*
X384654Y128507D01*
X384625Y128501D01*
X384591Y128495D01*
X384498Y128472D01*
X384469Y128466D01*
X384432Y128457D01*
X384331Y128426D01*
X384276Y128417D01*
X384253Y128411D01*
X384221Y128403D01*
X384198Y128397D01*
X384152Y128391D01*
X384123Y128385D01*
X384077Y128374D01*
X384045Y128365D01*
X383930Y128336D01*
X383901Y128325D01*
X383855Y128319D01*
X383808Y128307D01*
X383782Y128293D01*
X383754Y128281D01*
X383710Y128273D01*
X383575Y128229D01*
X383511Y128206D01*
X383453Y128183D01*
X383422Y128175D01*
X383375Y128163D01*
X383335Y128140D01*
X383289Y128123D01*
X383237Y128099D01*
X383208Y128088D01*
X383133Y128053D01*
X383069Y128019D01*
X382937Y127955D01*
X382919Y127938D01*
X382908Y127932D01*
X382902Y127921D01*
X382839Y127886D01*
X382804Y127863D01*
X382792Y127857D01*
X382763Y127828D01*
X382752Y127822D01*
X382671Y127742D01*
X382659Y127736D01*
X382636Y127713D01*
X382625Y127707D01*
X382564Y127646D01*
X382530Y127583D01*
X382512Y127542D01*
X382495Y127525D01*
X382475Y127493D01*
X382460Y127456D01*
X382449Y127415D01*
X382426Y127363D01*
X382417Y127355D01*
X382400Y127309D01*
X382377Y127164D01*
X382379Y126959D01*
X382388Y126881D01*
X382397Y126832D01*
X382403Y126792D01*
X382455Y126682D01*
X382478Y126630D01*
X382524Y126544D01*
X382535Y126515D01*
X382576Y126428D01*
X382605Y126376D01*
X382622Y126336D01*
X382642Y126316D01*
X382671Y126281D01*
X382683Y126252D01*
X382697Y126215D01*
X382743Y126168D01*
X382749Y126157D01*
X382763Y126142D01*
X382775Y126137D01*
X382784Y126122D01*
X382789Y126111D01*
X382801Y126099D01*
X382807Y126088D01*
X382844Y126050D01*
X382856Y126044D01*
X382870Y126030D01*
X382899Y125989D01*
X382905Y125978D01*
X382925Y125958D01*
X382937Y125952D01*
X382954Y125934D01*
X382966Y125929D01*
X382968Y125920D01*
X382980Y125909D01*
X382986Y125897D01*
X383000Y125883D01*
X383052Y125854D01*
X383078Y125828D01*
X383084Y125816D01*
X383092Y125808D01*
X383104Y125802D01*
X383116Y125790D01*
X383156Y125767D01*
X383237Y125709D01*
X383335Y125657D01*
X383346Y125652D01*
X383361Y125637D01*
X383433Y125611D01*
X383528Y125568D01*
X383557Y125556D01*
X383673Y125516D01*
X383710Y125507D01*
X383751Y125502D01*
X383774Y125496D01*
X383803Y125484D01*
X383820Y125478D01*
X384253Y125473D01*
X384467Y125478D01*
X384484Y125484D01*
X384646Y125490D01*
X384669Y125496D01*
X384686Y125502D01*
X384784Y125507D01*
X384807Y125513D01*
X384885Y125522D01*
X384914Y125527D01*
X384969Y125536D01*
X384986Y125542D01*
X385055Y125548D01*
X385096Y125554D01*
X385139Y125580D01*
X385177Y125588D01*
X385217Y125594D01*
X385249Y125603D01*
X385364Y125631D01*
X385393Y125637D01*
X385428Y125643D01*
X385451Y125649D01*
X385517Y125657D01*
X385558Y125669D01*
X385566Y125678D01*
X385595Y125689D01*
X385639Y125698D01*
X385662Y125704D01*
X385690Y125715D01*
X385754Y125744D01*
X385794Y125761D01*
X385901Y125810D01*
X385930Y125822D01*
X385962Y125831D01*
X386028Y125868D01*
X386066Y125877D01*
X386089Y125883D01*
X386106Y125888D01*
X386126Y125903D01*
X386158Y125929D01*
X386210Y125958D01*
X386274Y125986D01*
X386285Y125992D01*
X386331Y126021D01*
X386383Y126050D01*
X386435Y126073D01*
X386447Y126079D01*
X386464Y126096D01*
X386496Y126116D01*
X386533Y126131D01*
X386609Y126183D01*
X386684Y126223D01*
X386695Y126229D01*
X386733Y126266D01*
X386764Y126292D01*
X386851Y126339D01*
X386862Y126344D01*
X386909Y126391D01*
X386961Y126419D01*
X386984Y126425D01*
X387007Y126448D01*
X387018Y126454D01*
X387030Y126466D01*
X387050Y126480D01*
X387105Y126518D01*
X387145Y126541D01*
X387157Y126546D01*
X387174Y126564D01*
X387186Y126570D01*
X387241Y126624D01*
X387275Y126642D01*
X387313Y126656D01*
X387336Y126679D01*
X387388Y126720D01*
X387417Y126737D01*
X387451Y126760D01*
X387463Y126766D01*
X387483Y126786D01*
X387489Y126798D01*
X387512Y126821D01*
X387544Y126847D01*
X387596Y126876D01*
X387636Y126916D01*
X387648Y126922D01*
X387650Y126931D01*
X387682Y126962D01*
X387757Y127003D01*
X387772Y127017D01*
X387803Y127043D01*
X387855Y127072D01*
X388011Y127182D01*
X388040Y127193D01*
X388104Y127222D01*
X388115Y127228D01*
X388127Y127239D01*
X388156Y127257D01*
X388208Y127280D01*
X388219Y127285D01*
X388234Y127300D01*
X388262Y127311D01*
X388317Y127320D01*
X388349Y127329D01*
X388415Y127343D01*
X388433Y127349D01*
X388540Y127346D01*
X388606Y127338D01*
X388646Y127332D01*
X388687Y127314D01*
X388716Y127303D01*
X388756Y127285D01*
X388773Y127268D01*
X388794Y127254D01*
X388825Y127228D01*
X388889Y127193D01*
X388900Y127187D01*
X389013Y127075D01*
X389019Y127063D01*
X389100Y126982D01*
X389105Y126971D01*
X389117Y126942D01*
X389134Y126902D01*
X389149Y126887D01*
X389160Y126881D01*
X389195Y126858D01*
X389241Y126766D01*
X389267Y126734D01*
X389290Y126671D01*
X389325Y126613D01*
X389348Y126573D01*
X389374Y126523D01*
X389385Y126495D01*
X389414Y126414D01*
X389423Y126359D01*
X389429Y126336D01*
X389455Y126287D01*
X389460Y126217D01*
X389466Y126183D01*
X389475Y126116D01*
X389481Y126099D01*
X389478Y125998D01*
X389469Y125891D01*
X389458Y125862D01*
X389452Y125782D01*
X389440Y125735D01*
X389429Y125695D01*
X389377Y125585D01*
X389371Y125574D01*
X389359Y125562D01*
X389354Y125551D01*
X389336Y125533D01*
X389296Y125458D01*
X389270Y125432D01*
X389241Y125415D01*
X389221Y125395D01*
X389198Y125354D01*
X389183Y125340D01*
X389155Y125323D01*
X389134Y125302D01*
X389114Y125271D01*
X389091Y125236D01*
X389079Y125230D01*
X389039Y125201D01*
X389027Y125196D01*
X389013Y125175D01*
X389007Y125164D01*
X388996Y125152D01*
X388990Y125141D01*
X388941Y125092D01*
X388929Y125086D01*
X388918Y125074D01*
X388906Y125069D01*
X388903Y125060D01*
X388880Y125037D01*
X388875Y125025D01*
X388863Y125014D01*
X388808Y124976D01*
X388797Y124970D01*
X388788Y124962D01*
X388782Y124950D01*
X388765Y124933D01*
X388759Y124921D01*
X388747Y124916D01*
X388690Y124881D01*
X388649Y124829D01*
X388595Y124791D01*
X388583Y124786D01*
X388566Y124768D01*
X388554Y124763D01*
X388543Y124751D01*
X388531Y124745D01*
X388519Y124734D01*
X388508Y124728D01*
X388496Y124716D01*
X388476Y124702D01*
X388444Y124676D01*
X388392Y124636D01*
X388381Y124630D01*
X388369Y124618D01*
X388358Y124613D01*
X388312Y124566D01*
X388237Y124526D01*
X388225Y124520D01*
X388222Y124511D01*
X388202Y124491D01*
X388162Y124468D01*
X388127Y124445D01*
X388115Y124439D01*
X388092Y124416D01*
X388081Y124410D01*
X388072Y124402D01*
X388040Y124376D01*
X388029Y124370D01*
X387994Y124347D01*
X387965Y124330D01*
X387930Y124306D01*
X387919Y124301D01*
X387890Y124272D01*
X387803Y124226D01*
X387783Y124205D01*
X387752Y124179D01*
X387740Y124174D01*
X387688Y124151D01*
X387677Y124145D01*
X387665Y124133D01*
X387625Y124104D01*
X387613Y124099D01*
X387550Y124070D01*
X387538Y124058D01*
X387526Y124052D01*
X387518Y124044D01*
X387472Y124015D01*
X387437Y123992D01*
X387408Y123980D01*
X387385Y123975D01*
X387356Y123963D01*
X387324Y123937D01*
X387261Y123914D01*
X387232Y123902D01*
X387134Y123850D01*
X387105Y123839D01*
X387053Y123816D01*
X387030Y123810D01*
X386987Y123784D01*
X386949Y123775D01*
X386862Y123735D01*
X386810Y123729D01*
X386770Y123718D01*
X386712Y123694D01*
X386663Y123674D01*
X386571Y123651D01*
X386505Y123637D01*
X386481Y123631D01*
X386455Y123622D01*
X386427Y123611D01*
X386352Y123599D01*
X386328Y123594D01*
X386294Y123588D01*
X386265Y123582D01*
X386230Y123576D01*
X386184Y123570D01*
X386149Y123565D01*
X386089Y123556D01*
X386031Y123550D01*
X386002Y123539D01*
X385872Y123524D01*
X385826Y123518D01*
X385760Y123510D01*
X385742Y123504D01*
X385633Y123498D01*
X385592Y123492D01*
X385543Y123478D01*
X385439Y123472D01*
X385315Y123464D01*
X385298Y123458D01*
X385159Y123452D01*
X385119Y123446D01*
X385102Y123441D01*
X384276Y123435D01*
X384259Y123441D01*
X384143Y123446D01*
X384120Y123452D01*
X384011Y123458D01*
X383993Y123464D01*
X383826Y123469D01*
X383803Y123475D01*
X383785Y123481D01*
X383679Y123490D01*
X383577Y123498D01*
X383554Y123504D01*
X383476Y123513D01*
X383375Y123521D01*
X383344Y123530D01*
X383315Y123536D01*
X383246Y123541D01*
X383003Y123582D01*
X382934Y123588D01*
X382911Y123594D01*
X382879Y123602D01*
X382856Y123608D01*
X382815Y123614D01*
X382706Y123648D01*
X382659Y123660D01*
X382599Y123686D01*
X382553Y123703D01*
X382509Y123712D01*
X382486Y123718D01*
X382460Y123726D01*
X382431Y123738D01*
X382400Y123747D01*
X382354Y123758D01*
X382313Y123775D01*
X382281Y123790D01*
X382244Y123804D01*
X382134Y123856D01*
X382126Y123865D01*
X382097Y123876D01*
X382065Y123885D01*
X382004Y123911D01*
X381967Y123925D01*
X381921Y123937D01*
X381857Y123977D01*
X381805Y124006D01*
X381765Y124029D01*
X381753Y124041D01*
X381742Y124047D01*
X381724Y124064D01*
X381661Y124099D01*
X381620Y124116D01*
X381591Y124128D01*
X381539Y124179D01*
X381528Y124185D01*
X381488Y124214D01*
X381476Y124220D01*
X381447Y124249D01*
X381436Y124255D01*
X381378Y124295D01*
X381366Y124301D01*
X381358Y124309D01*
X381326Y124335D01*
X381314Y124341D01*
X381297Y124358D01*
X381285Y124364D01*
X381274Y124376D01*
X381262Y124382D01*
X381233Y124410D01*
X381193Y124439D01*
X381181Y124445D01*
X381164Y124462D01*
X381138Y124494D01*
X381133Y124506D01*
X381112Y124526D01*
X381101Y124532D01*
X381072Y124543D01*
X381052Y124563D01*
X381046Y124575D01*
X381034Y124586D01*
X381029Y124598D01*
X380997Y124630D01*
X380985Y124636D01*
X380953Y124667D01*
X380948Y124679D01*
X380887Y124740D01*
X380876Y124745D01*
X380864Y124757D01*
X380853Y124763D01*
X380815Y124800D01*
X380780Y124864D01*
X380766Y124878D01*
X380726Y124901D01*
X380711Y124916D01*
X380682Y124967D01*
X380650Y124993D01*
X380639Y124999D01*
X380613Y125031D01*
X380607Y125043D01*
X380590Y125060D01*
X380584Y125071D01*
X380575Y125080D01*
X380564Y125086D01*
X380532Y125118D01*
X380526Y125129D01*
X380509Y125147D01*
X380503Y125158D01*
X380492Y125170D01*
X380477Y125190D01*
X380451Y125222D01*
X380445Y125233D01*
X380417Y125262D01*
X380411Y125274D01*
X380359Y125325D01*
X380353Y125337D01*
X380341Y125349D01*
X380336Y125360D01*
X380307Y125406D01*
X380301Y125418D01*
X380293Y125427D01*
X380281Y125432D01*
X380269Y125444D01*
X380246Y125478D01*
X380232Y125516D01*
X380163Y125585D01*
X380111Y125683D01*
X380099Y125695D01*
X380093Y125707D01*
X380082Y125718D01*
X380076Y125730D01*
X380047Y125758D01*
X380030Y125787D01*
X380007Y125845D01*
X379995Y125857D01*
X379989Y125868D01*
X379981Y125877D01*
X379940Y125958D01*
X379914Y125989D01*
X379891Y126030D01*
X379883Y126039D01*
X379868Y126076D01*
X379839Y126116D01*
X379805Y126180D01*
X379790Y126212D01*
X379781Y126243D01*
X379764Y126284D01*
X379758Y126295D01*
X379750Y126298D01*
X379715Y126333D01*
X379695Y126388D01*
X379657Y126472D01*
X379643Y126509D01*
X379637Y126532D01*
X379614Y126607D01*
X379600Y126639D01*
X379588Y126668D01*
X379580Y126705D01*
X379548Y126777D01*
X379536Y126841D01*
X379519Y126910D01*
X379513Y126939D01*
X379507Y126962D01*
X379499Y127011D01*
X379487Y127040D01*
X379481Y127133D01*
X379476Y127190D01*
X379470Y127208D01*
X379476Y127565D01*
X379481Y127623D01*
X379487Y127641D01*
X379493Y127704D01*
X379510Y127825D01*
X379528Y127923D01*
X379533Y127947D01*
X379539Y127964D01*
X379545Y128033D01*
X379556Y128074D01*
X379565Y128082D01*
X379577Y128111D01*
X379582Y128134D01*
X379588Y128180D01*
X379611Y128273D01*
X379617Y128302D01*
X379623Y128325D01*
X379628Y128354D01*
X379637Y128391D01*
X379643Y128408D01*
X379655Y128489D01*
X379680Y128550D01*
X379695Y128610D01*
X379701Y128634D01*
X379721Y128683D01*
X379735Y128720D01*
X379747Y128749D01*
X379770Y128801D01*
X379779Y128821D01*
X379790Y128850D01*
X379810Y128905D01*
X379833Y128963D01*
X379874Y129038D01*
X379903Y129084D01*
X379908Y129095D01*
X379937Y129136D01*
X379955Y129165D01*
X379995Y129228D01*
X380001Y129240D01*
X380012Y129251D01*
X380018Y129263D01*
X380030Y129274D01*
X380036Y129286D01*
X380076Y129326D01*
X380105Y129378D01*
X380111Y129390D01*
X380131Y129410D01*
X380142Y129416D01*
X380163Y129436D01*
X380168Y129448D01*
X380186Y129465D01*
X380191Y129476D01*
X380215Y129500D01*
X380220Y129511D01*
X380238Y129528D01*
X380243Y129540D01*
X380264Y129560D01*
X380275Y129566D01*
X380298Y129589D01*
X380310Y129595D01*
X380313Y129604D01*
X380336Y129627D01*
X380341Y129638D01*
X380405Y129702D01*
X380411Y129713D01*
X380445Y129742D01*
X380500Y129780D01*
X380512Y129785D01*
X380555Y129829D01*
X380561Y129840D01*
X380593Y129866D01*
X380645Y129895D01*
X380679Y129930D01*
X380691Y129936D01*
X380702Y129947D01*
X380754Y129976D01*
X380766Y129982D01*
X380798Y130013D01*
X380870Y130068D01*
X380991Y130138D01*
X381003Y130143D01*
X381020Y130161D01*
X381118Y130213D01*
X381130Y130224D01*
X381193Y130259D01*
X381291Y130311D01*
X381314Y130316D01*
X381349Y130340D01*
X381389Y130368D01*
X381479Y130417D01*
X381516Y130432D01*
X381568Y130455D01*
X381600Y130475D01*
X381638Y130490D01*
X381661Y130496D01*
X381747Y130536D01*
X381796Y130556D01*
X381834Y130570D01*
X381886Y130594D01*
X381915Y130611D01*
X381967Y130623D01*
X382004Y130637D01*
X382039Y130660D01*
X382099Y130674D01*
X382160Y130700D01*
X382195Y130723D01*
X382267Y130750D01*
X382339Y130781D01*
X382368Y130793D01*
X382406Y130801D01*
X382429Y130807D01*
X382489Y130833D01*
X382521Y130842D01*
X382544Y130848D01*
X382628Y130885D01*
X382674Y130903D01*
X382711Y130917D01*
X382807Y130960D01*
X382853Y130972D01*
X382885Y130980D01*
X382896Y130992D01*
X382937Y131015D01*
X382994Y131021D01*
X383023Y131032D01*
X383113Y131070D01*
X383142Y131081D01*
X383188Y131099D01*
X383260Y131125D01*
X383283Y131131D01*
X383323Y131142D01*
X383372Y131168D01*
X383401Y131174D01*
X383436Y131180D01*
X383494Y131191D01*
X383543Y131200D01*
X383601Y131217D01*
X383687Y131252D01*
X383733Y131257D01*
X383756Y131263D01*
X383782Y131272D01*
X383820Y131286D01*
X383843Y131292D01*
X383884Y131298D01*
X383993Y131333D01*
X384025Y131341D01*
X384048Y131347D01*
X384086Y131356D01*
X384132Y131367D01*
X384189Y131373D01*
X384212Y131379D01*
X384253Y131408D01*
X384299Y131413D01*
X384339Y131419D01*
X384363Y131425D01*
X384403Y131437D01*
X384426Y131442D01*
X384458Y131451D01*
X384481Y131457D01*
X384519Y131465D01*
X384542Y131471D01*
X384559Y131477D01*
X384628Y131483D01*
X384669Y131494D01*
X384677Y131503D01*
X384706Y131515D01*
X384770Y131520D01*
X384799Y131526D01*
X384822Y131532D01*
X384851Y131538D01*
X384920Y131555D01*
X384949Y131561D01*
X385012Y131578D01*
X385073Y131587D01*
X385096Y131592D01*
X385128Y131607D01*
X385157Y131618D01*
X385203Y131624D01*
X385272Y131636D01*
X385309Y131644D01*
X385333Y131650D01*
X385434Y131682D01*
X385457Y131688D01*
X385523Y131696D01*
X385546Y131702D01*
X385575Y131714D01*
X385584Y131722D01*
X385644Y131737D01*
X385676Y131745D01*
X385734Y131769D01*
X385780Y131786D01*
X385812Y131795D01*
X385913Y131826D01*
X385968Y131835D01*
X385997Y131846D01*
X386008Y131858D01*
X386049Y131881D01*
X386083Y131887D01*
X386124Y131904D01*
X386170Y131933D01*
X386268Y131985D01*
X386279Y131991D01*
X386349Y132060D01*
X386401Y132089D01*
X386427Y132115D01*
X386444Y132144D01*
X386464Y132193D01*
X386481Y132239D01*
X386493Y132268D01*
X386510Y132314D01*
X386516Y132337D01*
X386525Y132375D01*
X386530Y132392D01*
X386536Y132473D01*
X386542Y132513D01*
X386548Y132530D01*
X386545Y132926D01*
X386539Y132972D01*
X386533Y133070D01*
X386528Y133134D01*
X386522Y133180D01*
X386513Y133246D01*
X386507Y133264D01*
X386502Y133368D01*
X386479Y133420D01*
X386470Y133440D01*
X386464Y133463D01*
X386458Y133492D01*
X386453Y133515D01*
X386438Y133552D01*
X386427Y133581D01*
X386398Y133622D01*
X386352Y133708D01*
X386323Y133755D01*
X386317Y133766D01*
X386288Y133830D01*
X386256Y133855D01*
X386245Y133861D01*
X386170Y133936D01*
X386158Y133942D01*
X386147Y133954D01*
X386135Y133960D01*
X386106Y133988D01*
X386066Y134017D01*
X386025Y134040D01*
X386014Y134046D01*
X385999Y134060D01*
X385970Y134072D01*
X385939Y134081D01*
X385916Y134087D01*
X385817Y134133D01*
X385768Y134153D01*
X385731Y134167D01*
X385673Y134190D01*
X385639Y134196D01*
X385592Y134208D01*
X385552Y134231D01*
X385457Y134245D01*
X385434Y134251D01*
X385405Y134257D01*
X385382Y134263D01*
X385353Y134268D01*
X385292Y134277D01*
X385275Y134283D01*
X385171Y134289D01*
X385148Y134294D01*
X385096Y134317D01*
X385038Y134323D01*
X384879Y134343D01*
X384790Y134352D01*
X384772Y134358D01*
X384247Y134364D01*
X384230Y134369D01*
X384140Y134367D01*
X384008Y134361D01*
X383843Y134352D01*
X383745Y134340D01*
X383667Y134332D01*
X383632Y134326D01*
X383586Y134320D01*
X383476Y134303D01*
X383448Y134297D01*
X383390Y134291D01*
X383361Y134286D01*
X383315Y134274D01*
X383280Y134268D01*
X383234Y134257D01*
X383173Y134242D01*
X383150Y134237D01*
X383110Y134231D01*
X383087Y134225D01*
X383046Y134213D01*
X382997Y134193D01*
X382948Y134185D01*
X382888Y134159D01*
X382859Y134147D01*
X382821Y134138D01*
X382732Y134101D01*
X382694Y134087D01*
X382665Y134075D01*
X382559Y134026D01*
X382478Y133997D01*
X382446Y133971D01*
X382417Y133954D01*
X382371Y133942D01*
X382342Y133931D01*
X382241Y133870D01*
X382203Y133855D01*
X382146Y133832D01*
X382134Y133821D01*
X382123Y133815D01*
X382111Y133804D01*
X382091Y133795D01*
X382036Y133775D01*
X382007Y133746D01*
X381987Y133731D01*
X381955Y133723D01*
X381892Y133694D01*
X381851Y133671D01*
X381753Y133619D01*
X381681Y133575D01*
X381643Y133561D01*
X381603Y133550D01*
X381577Y133535D01*
X381542Y133512D01*
X381430Y133469D01*
X381401Y133457D01*
X381334Y133425D01*
X381280Y133405D01*
X381257Y133399D01*
X381181Y133376D01*
X381054Y133336D01*
X381023Y133327D01*
X380994Y133316D01*
X380971Y133310D01*
X380913Y133298D01*
X380847Y133290D01*
X380737Y133295D01*
X380714Y133301D01*
X380705Y133310D01*
X380691Y133348D01*
X380682Y133437D01*
X380688Y133495D01*
X380694Y133512D01*
X380700Y133616D01*
X380694Y133639D01*
X380688Y133783D01*
X380694Y133801D01*
X380691Y133965D01*
X380682Y134078D01*
X380676Y134095D01*
X380671Y134257D01*
X380665Y134280D01*
X380653Y134361D01*
X380645Y134439D01*
X380636Y134528D01*
X380630Y134551D01*
X380624Y134592D01*
X380619Y134609D01*
X380607Y134707D01*
X380581Y134750D01*
X380561Y134840D01*
X380549Y134869D01*
X380529Y134918D01*
X380523Y134941D01*
X380503Y134996D01*
X380492Y135025D01*
X380474Y135065D01*
X380463Y135117D01*
X380457Y135140D01*
X380448Y135166D01*
X380425Y135201D01*
X380417Y135232D01*
X380405Y135279D01*
X380388Y135319D01*
X380373Y135351D01*
X380359Y135388D01*
X380341Y135429D01*
X380330Y135458D01*
X380313Y135498D01*
X380301Y135527D01*
X380295Y135562D01*
X380284Y135608D01*
X380272Y135619D01*
X380252Y135651D01*
X380232Y135740D01*
X380191Y135827D01*
X380186Y135885D01*
X380197Y135914D01*
X380212Y135928D01*
X380232Y135937D01*
X380301Y135943D01*
X380336Y135948D01*
X380402Y135957D01*
X380420Y135963D01*
X380604Y135969D01*
X380621Y135963D01*
X380705Y135966D01*
X380864Y135974D01*
X380881Y135980D01*
X380919Y135977D01*
X380965Y135971D01*
X381000Y135966D01*
X381060Y135957D01*
X381078Y135951D01*
X381109Y135954D01*
X381144Y135960D01*
X381219Y135971D01*
X381265Y135983D01*
X381352Y136000D01*
X381389Y136009D01*
X381436Y136020D01*
X381453Y136026D01*
X381511Y136032D01*
X381534Y136038D01*
X381560Y136046D01*
X381589Y136058D01*
X381626Y136067D01*
X381666Y136073D01*
X381713Y136084D01*
X381770Y136101D01*
X381817Y136113D01*
X381848Y136122D01*
X381894Y136133D01*
X381932Y136142D01*
X382001Y136153D01*
X382036Y136176D01*
X382094Y136182D01*
X382163Y136200D01*
X382195Y136208D01*
X382241Y136220D01*
X382273Y136228D01*
X382319Y136240D01*
X382336Y136246D01*
X382406Y136251D01*
X382429Y136257D01*
X382460Y136272D01*
X382498Y136286D01*
X382576Y136295D01*
X382634Y136306D01*
X382668Y136312D01*
X382697Y136318D01*
X382732Y136324D01*
X382769Y136332D01*
X382786Y136338D01*
X382850Y136344D01*
X382873Y136350D01*
X382905Y136358D01*
X382934Y136370D01*
X383009Y136376D01*
X383043Y136381D01*
X383119Y136393D01*
X383147Y136399D01*
X383222Y136410D01*
X383274Y136416D01*
X383332Y136422D01*
X383396Y136433D01*
X383499Y136439D01*
X383627Y136451D01*
X383774Y136459D01*
X383791Y136465D01*
X384406Y136462D01*
D02*
G37*
G36*
X355848Y138341D02*
X355923Y138336D01*
X355993Y138318D01*
X356042Y138298D01*
X356065Y138292D01*
X356102Y138278D01*
X356125Y138272D01*
X356235Y138220D01*
X356258Y138214D01*
X356287Y138203D01*
X356310Y138180D01*
X356330Y138165D01*
X356359Y138154D01*
X356391Y138145D01*
X356431Y138116D01*
X356443Y138111D01*
X356478Y138087D01*
X356506Y138070D01*
X356553Y138041D01*
X356564Y138035D01*
X356581Y138018D01*
X356593Y138012D01*
X356604Y138001D01*
X356616Y137995D01*
X356645Y137966D01*
X356665Y137957D01*
X356720Y137937D01*
X356752Y137906D01*
X356758Y137894D01*
X356766Y137891D01*
X356775Y137882D01*
X356807Y137856D01*
X356859Y137828D01*
X356890Y137796D01*
X356896Y137784D01*
X356934Y137747D01*
X356945Y137741D01*
X356957Y137729D01*
X356968Y137724D01*
X356986Y137706D01*
X356997Y137701D01*
X357014Y137683D01*
X357026Y137677D01*
X357075Y137628D01*
X357081Y137617D01*
X357092Y137605D01*
X357098Y137594D01*
X357130Y137562D01*
X357141Y137556D01*
X357216Y137481D01*
X357228Y137475D01*
X357243Y137461D01*
X357271Y137421D01*
X357277Y137409D01*
X357323Y137363D01*
X357329Y137351D01*
X357341Y137340D01*
X357346Y137328D01*
X357393Y137282D01*
X357421Y137242D01*
X357427Y137230D01*
X357450Y137195D01*
X357456Y137184D01*
X357485Y137155D01*
X357491Y137143D01*
X357508Y137126D01*
X357543Y137063D01*
X357548Y137051D01*
X357572Y137016D01*
X357586Y136996D01*
X357615Y136938D01*
X357621Y136915D01*
X357629Y136878D01*
X357638Y136846D01*
X357649Y136817D01*
X357652Y136814D01*
X357670Y136780D01*
X357693Y136722D01*
X357699Y136474D01*
X357693Y136399D01*
X357687Y136376D01*
X357670Y136318D01*
X357655Y136286D01*
X357641Y136249D01*
X357623Y136179D01*
X357612Y136151D01*
X357606Y136127D01*
X357589Y136087D01*
X357554Y136052D01*
X357508Y135966D01*
X357502Y135954D01*
X357491Y135943D01*
X357433Y135856D01*
X357404Y135804D01*
X357398Y135793D01*
X357349Y135743D01*
X357338Y135738D01*
X357306Y135706D01*
X357283Y135666D01*
X357257Y135639D01*
X357216Y135611D01*
X357205Y135605D01*
X357179Y135567D01*
X357173Y135556D01*
X357165Y135547D01*
X357113Y135507D01*
X357101Y135501D01*
X357092Y135492D01*
X357087Y135481D01*
X357032Y135426D01*
X357020Y135420D01*
X357003Y135403D01*
X356991Y135397D01*
X356957Y135362D01*
X356945Y135357D01*
X356934Y135345D01*
X356922Y135339D01*
X356899Y135316D01*
X356887Y135310D01*
X356847Y135281D01*
X356772Y135241D01*
X356732Y135201D01*
X356711Y135186D01*
X356683Y135175D01*
X356651Y135166D01*
X356610Y135137D01*
X356512Y135085D01*
X356483Y135074D01*
X356443Y135056D01*
X356408Y135033D01*
X356388Y135025D01*
X356356Y135016D01*
X356304Y134993D01*
X356273Y134973D01*
X356218Y134964D01*
X356160Y134947D01*
X356111Y134932D01*
X356065Y134921D01*
X356016Y134912D01*
X355998Y134906D01*
X355918Y134901D01*
X355860Y134895D01*
X355842Y134889D01*
X355568Y134892D01*
X355450Y134901D01*
X355427Y134906D01*
X355386Y134924D01*
X355363Y134929D01*
X355323Y134935D01*
X355257Y134955D01*
X355219Y134970D01*
X355121Y135016D01*
X355109Y135022D01*
X355060Y135059D01*
X354988Y135085D01*
X354977Y135097D01*
X354965Y135103D01*
X354939Y135123D01*
X354867Y135178D01*
X354826Y135201D01*
X354800Y135227D01*
X354728Y135281D01*
X354717Y135287D01*
X354633Y135371D01*
X354627Y135383D01*
X354607Y135403D01*
X354595Y135409D01*
X354578Y135426D01*
X354567Y135432D01*
X354546Y135452D01*
X354541Y135463D01*
X354532Y135472D01*
X354518Y135510D01*
X354506Y135521D01*
X354500Y135533D01*
X354460Y135573D01*
X354454Y135585D01*
X354417Y135622D01*
X354405Y135628D01*
X354362Y135694D01*
X354356Y135706D01*
X354327Y135735D01*
X354321Y135746D01*
X354304Y135764D01*
X354298Y135775D01*
X354269Y135816D01*
X354263Y135827D01*
X354240Y135862D01*
X354177Y135983D01*
X354165Y136012D01*
X354139Y136055D01*
X354110Y136101D01*
X354096Y136139D01*
X354087Y136171D01*
X354076Y136217D01*
X354067Y136254D01*
X354056Y136300D01*
X354050Y136318D01*
X354044Y136508D01*
X354038Y136526D01*
X354044Y136607D01*
X354053Y136685D01*
X354058Y136719D01*
X354064Y136748D01*
X354070Y136783D01*
X354076Y136812D01*
X354082Y136835D01*
X354090Y136889D01*
X354096Y136912D01*
X354108Y136941D01*
X354116Y136950D01*
X354145Y136996D01*
X354154Y137039D01*
X354168Y137071D01*
X354185Y137118D01*
X354206Y137172D01*
X354223Y137213D01*
X354252Y137265D01*
X354281Y137294D01*
X354321Y137369D01*
X354327Y137380D01*
X354350Y137403D01*
X354367Y137432D01*
X354396Y137472D01*
X354402Y137484D01*
X354414Y137496D01*
X354419Y137507D01*
X354474Y137562D01*
X354486Y137568D01*
X354518Y137611D01*
X354541Y137652D01*
X354561Y137672D01*
X354572Y137677D01*
X354618Y137724D01*
X354645Y137755D01*
X354650Y137767D01*
X354673Y137790D01*
X354679Y137802D01*
X354694Y137816D01*
X354734Y137839D01*
X354751Y137856D01*
X354763Y137862D01*
X354766Y137871D01*
X354821Y137926D01*
X354832Y137931D01*
X354844Y137943D01*
X354855Y137949D01*
X354881Y137975D01*
X354936Y138012D01*
X354948Y138018D01*
X354982Y138053D01*
X355023Y138076D01*
X355051Y138087D01*
X355121Y138134D01*
X355132Y138139D01*
X355144Y138151D01*
X355155Y138157D01*
X355251Y138200D01*
X355280Y138211D01*
X355337Y138246D01*
X355369Y138255D01*
X355398Y138266D01*
X355444Y138295D01*
X355502Y138301D01*
X355551Y138315D01*
X355597Y138327D01*
X355626Y138333D01*
X355661Y138338D01*
X355825Y138347D01*
X355848Y138341D01*
D02*
G37*
G36*
X357243Y134020D02*
X357277Y134014D01*
X357352Y134009D01*
X357390Y134000D01*
X357401Y133988D01*
X357427Y133957D01*
X357433Y133933D01*
X357439Y133916D01*
X357436Y133752D01*
X357430Y133578D01*
X357424Y133140D01*
X357419Y132955D01*
X357410Y132530D01*
X357404Y132473D01*
X357410Y132398D01*
X357404Y132375D01*
X357398Y131919D01*
X357393Y131901D01*
X357387Y131018D01*
X357381Y130839D01*
X357387Y130799D01*
X357381Y130781D01*
X357375Y129442D01*
X357381Y129424D01*
X357375Y128547D01*
X357381Y128530D01*
X357378Y128053D01*
X357381Y127727D01*
X357375Y127635D01*
X357369Y127283D01*
X357375Y127265D01*
X357372Y127251D01*
X357367Y126962D01*
X357361Y126316D01*
X357355Y125450D01*
X357349Y125415D01*
X357343Y124970D01*
X357338Y124705D01*
X357332Y124555D01*
X357326Y124526D01*
X357320Y124353D01*
X357312Y124113D01*
X357306Y124096D01*
X357297Y123989D01*
X357289Y123871D01*
X357283Y123848D01*
X357277Y123790D01*
X357271Y123772D01*
X357266Y123692D01*
X357254Y123645D01*
X357243Y123617D01*
X357228Y123602D01*
X357176Y123573D01*
X357072Y123567D01*
X357055Y123562D01*
X356859Y123556D01*
X356841Y123550D01*
X356327Y123544D01*
X356310Y123539D01*
X355987Y123533D01*
X355970Y123527D01*
X354950Y123530D01*
X354737Y123536D01*
X354388Y123544D01*
X354370Y123550D01*
X354128Y123556D01*
X354058Y123567D01*
X354035Y123573D01*
X353995Y123579D01*
X353955Y123596D01*
X353943Y123602D01*
X353923Y123634D01*
X353926Y123660D01*
X353934Y123709D01*
X353940Y123732D01*
X353957Y123790D01*
X353969Y123830D01*
X353975Y123853D01*
X353986Y123894D01*
X353992Y123917D01*
X354004Y123957D01*
X354012Y123989D01*
X354021Y124032D01*
X354027Y124055D01*
X354056Y124119D01*
X354061Y124148D01*
X354067Y124171D01*
X354085Y124269D01*
X354096Y124338D01*
X354108Y124384D01*
X354122Y124422D01*
X354142Y124511D01*
X354151Y124543D01*
X354157Y124572D01*
X354162Y124618D01*
X354168Y124653D01*
X354174Y124682D01*
X354191Y124797D01*
X354197Y124832D01*
X354206Y124921D01*
X354212Y124962D01*
X354223Y124991D01*
X354235Y125181D01*
X354240Y125198D01*
X354246Y125343D01*
X354252Y125400D01*
X354261Y125432D01*
X354266Y125461D01*
X354272Y125571D01*
X354278Y125629D01*
X354284Y125681D01*
X354289Y125738D01*
X354295Y125842D01*
X354301Y125877D01*
X354307Y126027D01*
X354315Y126290D01*
X354327Y126319D01*
X354333Y126382D01*
X354327Y126399D01*
X354330Y126414D01*
X354341Y126754D01*
X354347Y126956D01*
X354353Y127205D01*
X354359Y127407D01*
X354367Y127843D01*
X354373Y127860D01*
X354379Y128368D01*
X354385Y128385D01*
X354390Y128807D01*
X354396Y128882D01*
X354390Y128899D01*
X354396Y128986D01*
X354402Y129003D01*
X354399Y129052D01*
X354402Y129436D01*
X354408Y129453D01*
X354405Y130276D01*
X354399Y131073D01*
X354393Y131621D01*
X354385Y131693D01*
X354390Y131711D01*
X354388Y131754D01*
X354379Y132300D01*
Y132305D01*
X354373Y133379D01*
X354367Y133397D01*
X354370Y133578D01*
X354379Y133812D01*
X354390Y133882D01*
X354402Y133922D01*
X354414Y133951D01*
X354425Y133962D01*
X354454Y133974D01*
X354492Y133982D01*
X354515Y133988D01*
X354543Y134000D01*
X354740Y133994D01*
X354757Y133988D01*
X355282Y133982D01*
X355300Y133977D01*
X355597Y133985D01*
X355788Y133991D01*
X355961Y133997D01*
X356169Y134003D01*
X356301Y134009D01*
X356599Y134017D01*
X356616Y134023D01*
X357165Y134029D01*
X357243Y134020D01*
D02*
G37*
G36*
X361624Y138327D02*
X361734Y138321D01*
X361786Y138315D01*
X361815Y138310D01*
X361870Y138301D01*
X361893Y138295D01*
X361951Y138289D01*
X362043Y138284D01*
X362083Y138266D01*
X362138Y138258D01*
X362167Y138252D01*
X362236Y138235D01*
X362271Y138229D01*
X362314Y138220D01*
X362360Y138209D01*
X362401Y138197D01*
X362424Y138191D01*
X362493Y138180D01*
X362502Y138171D01*
X362531Y138160D01*
X362568Y138151D01*
X362592Y138145D01*
X362640Y138131D01*
X362721Y138102D01*
X362759Y138087D01*
X362817Y138064D01*
X362854Y138050D01*
X362903Y138041D01*
X362932Y138030D01*
X362975Y137998D01*
X362999Y137992D01*
X363042Y137983D01*
X363076Y137960D01*
X363117Y137937D01*
X363137Y137929D01*
X363166Y137917D01*
X363203Y137903D01*
X363235Y137888D01*
X363293Y137854D01*
X363330Y137839D01*
X363377Y137828D01*
X363411Y137793D01*
X363423Y137787D01*
X363432Y137779D01*
X363469Y137764D01*
X363515Y137735D01*
X363683Y137649D01*
X363694Y137637D01*
X363706Y137631D01*
X363714Y137623D01*
X363761Y137594D01*
X363798Y137579D01*
X363856Y137539D01*
X363867Y137533D01*
X363925Y137510D01*
X363960Y137487D01*
X363989Y137470D01*
X364029Y137441D01*
X364041Y137435D01*
X364058Y137418D01*
X364121Y137383D01*
X364145Y137377D01*
X364191Y137331D01*
X364266Y137291D01*
X364274Y137282D01*
X364280Y137270D01*
X364292Y137259D01*
X364297Y137247D01*
X364410Y137164D01*
X364422Y137158D01*
X364462Y137129D01*
X364474Y137123D01*
X364485Y137112D01*
X364497Y137106D01*
X364531Y137071D01*
X364543Y137065D01*
X364554Y137054D01*
X364566Y137048D01*
X364577Y137037D01*
X364589Y137031D01*
X364615Y137005D01*
X364621Y136993D01*
X364629Y136985D01*
X364693Y136950D01*
X364710Y136933D01*
X364725Y136895D01*
X364736Y136866D01*
X364785Y136829D01*
X364797Y136823D01*
X364834Y136774D01*
X364863Y136722D01*
X364886Y136682D01*
X364892Y136670D01*
X364904Y136658D01*
X364910Y136647D01*
X364918Y136638D01*
X364944Y136607D01*
X364985Y136531D01*
X364996Y136520D01*
X365002Y136508D01*
X365010Y136505D01*
X365025Y136491D01*
X365031Y136480D01*
X365039Y136471D01*
X365083Y136358D01*
X365106Y136324D01*
X365112Y136312D01*
X365135Y136289D01*
X365149Y136269D01*
X365169Y136214D01*
X365175Y136191D01*
X365210Y136116D01*
X365227Y136075D01*
X365238Y136064D01*
X365244Y136052D01*
X365253Y136044D01*
X365265Y136015D01*
X365273Y135977D01*
X365319Y135873D01*
X365337Y135816D01*
X365348Y135787D01*
X365363Y135749D01*
X365374Y135720D01*
X365389Y135660D01*
X365400Y135631D01*
X365406Y135619D01*
X365415Y135611D01*
X365426Y135582D01*
X365435Y135539D01*
X365443Y135507D01*
X365478Y135420D01*
X365493Y135383D01*
X365507Y135333D01*
X365513Y135305D01*
X365518Y135281D01*
X365527Y135244D01*
X365533Y135204D01*
X365542Y135172D01*
X365547Y135149D01*
X365556Y135094D01*
X365570Y135045D01*
X365582Y134999D01*
X365594Y134929D01*
X365599Y134877D01*
X365605Y134820D01*
X365611Y134681D01*
X365620Y134522D01*
X365614Y134482D01*
X365608Y134459D01*
X365597Y134430D01*
X365576Y134410D01*
X365547Y134392D01*
X365530Y134375D01*
X365518Y134369D01*
X365498Y134332D01*
X365484Y134317D01*
X365432Y134289D01*
X365400Y134274D01*
X365328Y134219D01*
X365317Y134213D01*
X365305Y134202D01*
X365293Y134196D01*
X365273Y134176D01*
X365267Y134164D01*
X365210Y134107D01*
X365204Y134095D01*
X365195Y134087D01*
X365190Y134058D01*
X365192Y134026D01*
X365198Y134003D01*
X365210Y133974D01*
X365236Y133948D01*
X365285Y133922D01*
X365394Y133905D01*
X365423Y133899D01*
X365458Y133893D01*
X365591Y133882D01*
X365660Y133870D01*
X365729Y133864D01*
X365775Y133858D01*
X365827Y133853D01*
X365917Y133844D01*
X365934Y133838D01*
X365998Y133832D01*
X366021Y133827D01*
X366070Y133806D01*
X366093Y133801D01*
X366139Y133795D01*
X366174Y133789D01*
X366203Y133783D01*
X366312Y133766D01*
X366382Y133755D01*
X366465Y133746D01*
X366488Y133740D01*
X366538Y133726D01*
X366561Y133720D01*
X366590Y133714D01*
X366613Y133708D01*
X366641Y133703D01*
X366679Y133694D01*
X366771Y133671D01*
X366800Y133659D01*
X366812Y133648D01*
X366838Y133616D01*
X366846Y133596D01*
X366864Y133550D01*
X366870Y133521D01*
X366875Y133417D01*
X366881Y133388D01*
X366887Y133330D01*
X366893Y133267D01*
X366898Y133197D01*
X366904Y133076D01*
X366910Y132943D01*
X366916Y132759D01*
X366921Y132632D01*
X366927Y132430D01*
X366933Y132268D01*
X366942Y131890D01*
X366947Y131872D01*
X366953Y131532D01*
X366959Y131515D01*
X366956Y131292D01*
X366959Y131237D01*
X366953Y131214D01*
X366933Y131194D01*
X366904Y131177D01*
X366500Y131171D01*
X366483Y131177D01*
X365570Y131182D01*
X365501Y131171D01*
X365490Y131159D01*
X365464Y131128D01*
X365458Y131047D01*
X365472Y130998D01*
X365478Y130969D01*
X365484Y130900D01*
X365493Y130810D01*
X365487Y130793D01*
X365493Y130764D01*
X365498Y130747D01*
X365507Y130640D01*
X365524Y130409D01*
X365530Y130316D01*
X365536Y130288D01*
X365542Y130143D01*
X365547Y130045D01*
X365553Y129936D01*
X365559Y129803D01*
X365565Y129751D01*
X365573Y129627D01*
X365579Y129482D01*
X365585Y129465D01*
X365591Y129332D01*
X365597Y129315D01*
X365602Y129090D01*
X365608Y129067D01*
X365602Y129049D01*
X365608Y128986D01*
X365614Y128968D01*
X365620Y128911D01*
X365628Y128740D01*
X365634Y128648D01*
X365640Y128532D01*
X365645Y128434D01*
X365651Y128313D01*
X365657Y128203D01*
X365669Y127967D01*
X365674Y127857D01*
X365680Y127661D01*
X365686Y127626D01*
X365692Y127228D01*
X365698Y127182D01*
X365703Y126997D01*
X365709Y126783D01*
X365715Y126587D01*
X365721Y126316D01*
X365726Y126281D01*
X365732Y126067D01*
X365744Y125681D01*
X365750Y125571D01*
X365755Y125450D01*
X365767Y125392D01*
X365778Y125022D01*
X365784Y124959D01*
X365790Y124809D01*
X365796Y124711D01*
X365801Y124584D01*
X365807Y124526D01*
X365813Y124393D01*
X365819Y124289D01*
X365825Y124139D01*
X365830Y124081D01*
X365836Y123937D01*
X365842Y123816D01*
X365848Y123671D01*
X365859Y123625D01*
X365868Y123438D01*
X365871Y123435D01*
X365877Y123354D01*
X365882Y123233D01*
X365894Y123158D01*
X365900Y123083D01*
X365911Y122979D01*
X365920Y122912D01*
X365926Y122895D01*
X365931Y122802D01*
X365951Y122736D01*
X365957Y122707D01*
X365963Y122673D01*
X365969Y122649D01*
X366001Y122497D01*
X366027Y122413D01*
X366032Y122384D01*
X366038Y122349D01*
X366050Y122303D01*
X366058Y122248D01*
X366070Y122208D01*
X366090Y122159D01*
X366105Y122121D01*
X366116Y122081D01*
X366122Y122058D01*
X366133Y122029D01*
X366148Y121997D01*
X366165Y121951D01*
X366174Y121919D01*
X366200Y121859D01*
X366214Y121821D01*
X366220Y121798D01*
X366266Y121700D01*
X366278Y121671D01*
X366312Y121596D01*
X366318Y121584D01*
X366359Y121527D01*
X366399Y121452D01*
X366428Y121423D01*
X366434Y121411D01*
X366445Y121400D01*
X366451Y121388D01*
X366480Y121359D01*
X366486Y121348D01*
X366497Y121336D01*
X366503Y121325D01*
X366549Y121278D01*
X366555Y121267D01*
X366566Y121255D01*
X366607Y121180D01*
X366639Y121149D01*
X366650Y121143D01*
X366662Y121131D01*
X366702Y121108D01*
X366714Y121096D01*
X366725Y121091D01*
X366763Y121019D01*
X366774Y121007D01*
X366838Y120967D01*
X366843Y120955D01*
X366916Y120883D01*
X366936Y120828D01*
X366959Y120776D01*
X366965Y120765D01*
X366985Y120739D01*
X366994Y120707D01*
X366988Y120684D01*
X366968Y120663D01*
X366921Y120658D01*
X366904Y120652D01*
X366841Y120646D01*
X366783Y120652D01*
X366766Y120658D01*
X366708Y120663D01*
X366685Y120669D01*
X366644Y120675D01*
X366595Y120689D01*
X366535Y120698D01*
X366474Y120724D01*
X366402Y120733D01*
X366370Y120742D01*
X366185Y120788D01*
X366130Y120796D01*
X366090Y120802D01*
X366041Y120816D01*
X366012Y120822D01*
X365937Y120828D01*
X365902Y120834D01*
X365848Y120843D01*
X365825Y120848D01*
X365784Y120854D01*
X365767Y120860D01*
X365680Y120866D01*
X365640Y120871D01*
X365591Y120892D01*
X365568Y120897D01*
X365518Y120906D01*
X365487Y120915D01*
X365458Y120920D01*
X365403Y120929D01*
X365380Y120935D01*
X365340Y120941D01*
X365317Y120946D01*
X365276Y120958D01*
X365253Y120964D01*
X365184Y120975D01*
X365137Y120987D01*
X365062Y120993D01*
X364982Y121004D01*
X364904Y121013D01*
X364881Y121019D01*
X364852Y121024D01*
X364829Y121030D01*
X364754Y121042D01*
X364707Y121053D01*
X364678Y121059D01*
X364632Y121065D01*
X364586Y121076D01*
X364552Y121082D01*
X364436Y121105D01*
X364413Y121111D01*
X364384Y121117D01*
X364324Y121125D01*
X364274Y121140D01*
X364240Y121146D01*
X364170Y121151D01*
X364142Y121157D01*
X364107Y121163D01*
X364020Y121180D01*
X363983Y121189D01*
X363965Y121195D01*
X363896Y121200D01*
X363873Y121206D01*
X363844Y121218D01*
X363804Y121241D01*
X363764Y121247D01*
X363723Y121258D01*
X363674Y121278D01*
X363616Y121301D01*
X363561Y121322D01*
X363532Y121333D01*
X363472Y121365D01*
X363434Y121379D01*
X363394Y121420D01*
X363365Y121437D01*
X363313Y121460D01*
X363302Y121466D01*
X363293Y121481D01*
X363287Y121492D01*
X363261Y121553D01*
X363244Y121599D01*
X363235Y121630D01*
X363203Y121697D01*
X363177Y121729D01*
X363154Y121769D01*
X363140Y121807D01*
X363131Y121844D01*
X363117Y121876D01*
X363105Y121905D01*
X363097Y121942D01*
X363091Y121965D01*
X363059Y122066D01*
X363047Y122113D01*
X363042Y122142D01*
X363030Y122188D01*
X363022Y122237D01*
X363016Y122295D01*
X363001Y122332D01*
X362996Y122355D01*
X362984Y122424D01*
X362978Y122448D01*
X362972Y122476D01*
X362964Y122577D01*
X362958Y122595D01*
X362952Y122716D01*
X362947Y122739D01*
X362938Y122771D01*
X362932Y122794D01*
X362926Y122875D01*
X362921Y122909D01*
X362912Y122958D01*
X362900Y123005D01*
X362895Y123045D01*
X362889Y123062D01*
X362883Y123172D01*
X362863Y123238D01*
X362857Y123308D01*
X362837Y123559D01*
X362828Y123637D01*
X362822Y123660D01*
X362817Y123793D01*
X362811Y124052D01*
X362805Y124099D01*
X362799Y124457D01*
X362802Y124904D01*
X362808Y124979D01*
X362814Y125020D01*
X362820Y125597D01*
X362825Y125614D01*
X362831Y126151D01*
X362837Y126226D01*
X362831Y126243D01*
X362834Y126281D01*
X362843Y127023D01*
X362848Y127040D01*
X362845Y127078D01*
X362848Y127577D01*
X362854Y128224D01*
X362848Y128241D01*
X362851Y129456D01*
X362848Y129702D01*
X362854Y129777D01*
X362848Y129794D01*
X362851Y129820D01*
X362857Y130270D01*
X362863Y130340D01*
X362872Y131099D01*
X362877Y131191D01*
X362872Y131318D01*
X362877Y131376D01*
X362889Y131405D01*
X362895Y131439D01*
X362889Y131462D01*
X362863Y131477D01*
X362854Y131486D01*
X362825Y131497D01*
X362791Y131503D01*
X362681Y131509D01*
X362531Y131515D01*
X362485Y131520D01*
X362387Y131526D01*
X362323Y131532D01*
X362213Y131538D01*
X362107Y131546D01*
X362054Y131569D01*
X361217Y131575D01*
X361200Y131581D01*
X360773Y131587D01*
X360756Y131592D01*
X360652Y131598D01*
X360634Y131592D01*
X360568Y131595D01*
X360412Y131601D01*
X360274Y131607D01*
X360216Y131613D01*
X360152Y131618D01*
X359918Y131615D01*
X359901Y131621D01*
X359716Y131627D01*
X359566Y131639D01*
X359509Y131644D01*
X359462Y131656D01*
X359434Y131667D01*
X359413Y131693D01*
X359408Y131751D01*
X359402Y131878D01*
X359396Y131896D01*
X359399Y132031D01*
X359405Y132949D01*
X359410Y133163D01*
X359416Y133307D01*
X359425Y133552D01*
X359419Y133570D01*
X359413Y133656D01*
X359419Y133714D01*
X359431Y133743D01*
X359480Y133769D01*
X359497Y133775D01*
X359549Y133780D01*
X359566Y133786D01*
X359786Y133792D01*
X359803Y133798D01*
X360173Y133804D01*
X360190Y133809D01*
X360773Y133815D01*
X360790Y133821D01*
X360802Y133815D01*
X360834Y133818D01*
X361168Y133824D01*
X361197Y133830D01*
X361887Y133838D01*
X361904Y133844D01*
X361988Y133841D01*
X362083Y133844D01*
X362101Y133850D01*
X362144Y133847D01*
X362389Y133850D01*
X362407Y133844D01*
X362742Y133850D01*
X362782Y133855D01*
X362811Y133867D01*
X362822Y133873D01*
X362831Y133887D01*
X362837Y133922D01*
X362843Y133939D01*
X362848Y134043D01*
X362843Y134060D01*
X362845Y134144D01*
X362843Y134522D01*
X362837Y134649D01*
X362843Y134667D01*
X362840Y134698D01*
X362831Y134759D01*
X362825Y134776D01*
X362828Y134820D01*
X362825Y134961D01*
X362820Y134978D01*
X362814Y135215D01*
X362802Y135261D01*
X362794Y135293D01*
X362782Y135339D01*
X362773Y135377D01*
X362744Y135440D01*
X362721Y135463D01*
X362664Y135498D01*
X362606Y135521D01*
X362563Y135530D01*
X362502Y135556D01*
X362473Y135562D01*
X362326Y135570D01*
X362309Y135576D01*
X362112Y135582D01*
X362095Y135588D01*
X361933Y135593D01*
X361916Y135599D01*
X361526Y135596D01*
X361469Y135590D01*
X361417Y135585D01*
X361324Y135573D01*
X361264Y135564D01*
X361206Y135559D01*
X361145Y135527D01*
X361090Y135518D01*
X361024Y135498D01*
X360969Y135478D01*
X360940Y135466D01*
X360900Y135455D01*
X360877Y135449D01*
X360859Y135443D01*
X360813Y135437D01*
X360773Y135432D01*
X360747Y135423D01*
X360712Y135400D01*
X360675Y135391D01*
X360652Y135386D01*
X360620Y135377D01*
X360556Y135354D01*
X360499Y135342D01*
X360464Y135336D01*
X360406Y135325D01*
X360383Y135319D01*
X360331Y135313D01*
X360262Y135296D01*
X360181Y135290D01*
X360123Y135284D01*
X360022Y135276D01*
X360005Y135270D01*
X359670Y135264D01*
X359630Y135270D01*
X359552Y135279D01*
X359445Y135293D01*
X359422Y135299D01*
X359396Y135325D01*
X359364Y135351D01*
X359353Y135357D01*
X359330Y135380D01*
X359318Y135386D01*
X359306Y135397D01*
X359295Y135403D01*
X359283Y135414D01*
X359272Y135420D01*
X359260Y135432D01*
X359249Y135437D01*
X359226Y135461D01*
X359214Y135466D01*
X359205Y135475D01*
X359200Y135486D01*
X359162Y135524D01*
X359125Y135579D01*
X359119Y135590D01*
X359099Y135611D01*
X359087Y135616D01*
X359058Y135645D01*
X359032Y135717D01*
X359015Y135735D01*
X359009Y135746D01*
X359001Y135755D01*
X358972Y135801D01*
X358966Y135824D01*
X358951Y135862D01*
X358940Y135891D01*
X358934Y135902D01*
X358923Y135914D01*
X358917Y135925D01*
X358905Y135937D01*
X358899Y135948D01*
X358891Y135957D01*
X358876Y135995D01*
X358871Y136018D01*
X358859Y136046D01*
X358853Y136058D01*
X358842Y136070D01*
X358821Y136101D01*
X358813Y136133D01*
X358807Y136156D01*
X358772Y136237D01*
X358752Y136286D01*
X358735Y136332D01*
X358721Y136370D01*
X358706Y136402D01*
X358692Y136468D01*
X358677Y136505D01*
X358666Y136534D01*
X358651Y136762D01*
X358645Y136907D01*
X358651Y136947D01*
X358657Y136970D01*
X358669Y137011D01*
X358772Y137224D01*
X358790Y137242D01*
X358796Y137253D01*
X358842Y137299D01*
X358871Y137340D01*
X358876Y137351D01*
X358896Y137372D01*
X358937Y137395D01*
X358951Y137409D01*
X358974Y137449D01*
X358989Y137464D01*
X359001Y137470D01*
X359012Y137481D01*
X359024Y137487D01*
X359064Y137527D01*
X359116Y137568D01*
X359128Y137574D01*
X359151Y137597D01*
X359162Y137602D01*
X359200Y137640D01*
X359254Y137677D01*
X359266Y137683D01*
X359306Y137712D01*
X359370Y137747D01*
X359387Y137764D01*
X359399Y137770D01*
X359410Y137781D01*
X359497Y137828D01*
X359537Y137845D01*
X359566Y137856D01*
X359612Y137885D01*
X359653Y137908D01*
X359748Y137952D01*
X359820Y137978D01*
X359864Y138004D01*
X359892Y138015D01*
X359930Y138024D01*
X359994Y138053D01*
X360022Y138064D01*
X360181Y138113D01*
X360213Y138122D01*
X360259Y138134D01*
X360291Y138148D01*
X360320Y138160D01*
X360369Y138168D01*
X360392Y138174D01*
X360432Y138186D01*
X360464Y138194D01*
X360487Y138200D01*
X360516Y138206D01*
X360551Y138211D01*
X360574Y138217D01*
X360603Y138223D01*
X360640Y138232D01*
X360663Y138237D01*
X360704Y138243D01*
X360744Y138261D01*
X360799Y138269D01*
X360851Y138275D01*
X360885Y138281D01*
X361001Y138298D01*
X361047Y138304D01*
X361148Y138313D01*
X361165Y138318D01*
X361350Y138324D01*
X361367Y138330D01*
X361624Y138327D01*
D02*
G37*
G36*
X373694Y134035D02*
X373751Y134029D01*
X373922Y134020D01*
X374025Y134014D01*
X374060Y134009D01*
X374112Y134003D01*
X374147Y133997D01*
X374262Y133968D01*
X374334Y133954D01*
X374352Y133948D01*
X374444Y133942D01*
X374482Y133928D01*
X374525Y133919D01*
X374603Y133910D01*
X374672Y133899D01*
X374730Y133887D01*
X374799Y133870D01*
X374828Y133864D01*
X374874Y133858D01*
X374909Y133853D01*
X374955Y133841D01*
X375004Y133832D01*
X375042Y133818D01*
X375076Y133801D01*
X375122Y133783D01*
X375146Y133778D01*
X375177Y133769D01*
X375235Y133752D01*
X375261Y133743D01*
X375304Y133734D01*
X375345Y133723D01*
X375382Y133703D01*
X375405Y133697D01*
X375443Y133688D01*
X375501Y133671D01*
X375532Y133656D01*
X375694Y133570D01*
X375723Y133558D01*
X375752Y133552D01*
X375789Y133544D01*
X375830Y133515D01*
X375850Y133506D01*
X375893Y133498D01*
X375922Y133486D01*
X375957Y133463D01*
X375968Y133457D01*
X375991Y133434D01*
X376023Y133414D01*
X376095Y133388D01*
X376138Y133362D01*
X376173Y133339D01*
X376205Y133330D01*
X376234Y133319D01*
X376260Y133293D01*
X376292Y133267D01*
X376338Y133249D01*
X376395Y133209D01*
X376436Y133186D01*
X376447Y133180D01*
X376476Y133168D01*
X376517Y133140D01*
X376528Y133134D01*
X376546Y133117D01*
X376557Y133111D01*
X376580Y133088D01*
X376612Y133068D01*
X376667Y133047D01*
X376678Y133036D01*
X376690Y133030D01*
X376699Y133021D01*
X376730Y132995D01*
X376771Y132972D01*
X376823Y132949D01*
X376886Y132886D01*
X376973Y132839D01*
X377028Y132785D01*
X377033Y132773D01*
X377059Y132747D01*
X377100Y132724D01*
X377158Y132684D01*
X377169Y132678D01*
X377210Y132649D01*
X377221Y132643D01*
X377305Y132559D01*
X377310Y132548D01*
X377365Y132510D01*
X377391Y132479D01*
X377414Y132438D01*
X377420Y132427D01*
X377429Y132418D01*
X377440Y132412D01*
X377484Y132369D01*
X377515Y132343D01*
X377527Y132337D01*
X377550Y132314D01*
X377576Y132282D01*
X377582Y132271D01*
X377619Y132233D01*
X377631Y132227D01*
X377640Y132219D01*
X377674Y132190D01*
X377715Y132138D01*
X377743Y132086D01*
X377755Y132074D01*
X377770Y132054D01*
X377807Y131999D01*
X377813Y131988D01*
X377859Y131942D01*
X377865Y131930D01*
X377876Y131919D01*
X377928Y131820D01*
X377946Y131803D01*
X377951Y131792D01*
X377977Y131766D01*
X378003Y131734D01*
X378009Y131722D01*
X378021Y131676D01*
X378032Y131647D01*
X378061Y131607D01*
X378067Y131595D01*
X378078Y131566D01*
X378104Y131500D01*
X378128Y131437D01*
X378133Y131413D01*
X378148Y131376D01*
X378171Y131335D01*
X378176Y131324D01*
X378200Y131289D01*
X378208Y131269D01*
X378220Y131240D01*
X378228Y131208D01*
X378243Y131177D01*
X378249Y131154D01*
X378255Y131119D01*
X378260Y131090D01*
X378266Y131067D01*
X378283Y131021D01*
X378298Y130983D01*
X378309Y130943D01*
X378327Y130879D01*
X378332Y130862D01*
X378338Y130804D01*
X378344Y130764D01*
X378367Y130729D01*
X378373Y130706D01*
X378379Y130631D01*
X378384Y130614D01*
X378390Y130498D01*
X378396Y130458D01*
X378402Y130366D01*
X378408Y130348D01*
X378402Y130314D01*
X378393Y130282D01*
X378382Y130213D01*
X378373Y130163D01*
X378367Y130146D01*
X378370Y130039D01*
X378376Y129987D01*
X378382Y129959D01*
X378390Y129898D01*
X378402Y129858D01*
X378408Y129840D01*
X378405Y129808D01*
X378399Y129762D01*
X378402Y129696D01*
X378408Y129656D01*
X378402Y129615D01*
X378396Y129592D01*
X378382Y129566D01*
X378361Y129551D01*
X378341Y129554D01*
X378330Y129566D01*
X378304Y129598D01*
X378289Y129635D01*
X378280Y129678D01*
X378275Y129702D01*
X378263Y129742D01*
X378252Y129754D01*
X378246Y129765D01*
X378237Y129774D01*
X378197Y129797D01*
X378185Y129808D01*
X378174Y129814D01*
X378151Y129837D01*
X378139Y129843D01*
X378116Y129866D01*
X378104Y129872D01*
X378073Y129921D01*
X378067Y129933D01*
X378047Y129953D01*
X378035Y129959D01*
X378015Y129979D01*
X377943Y130034D01*
X377931Y130039D01*
X377920Y130051D01*
X377868Y130091D01*
X377856Y130097D01*
X377839Y130114D01*
X377827Y130120D01*
X377795Y130152D01*
X377790Y130163D01*
X377767Y130187D01*
X377743Y130227D01*
X377732Y130239D01*
X377726Y130250D01*
X377715Y130262D01*
X377683Y130288D01*
X377648Y130293D01*
X377625Y130299D01*
X377596Y130311D01*
X377588Y130319D01*
X377573Y130340D01*
X377521Y130380D01*
X377458Y130415D01*
X377406Y130443D01*
X377394Y130449D01*
X377363Y130464D01*
X377308Y130484D01*
X377198Y130536D01*
X377186Y130542D01*
X377120Y130608D01*
X377039Y130637D01*
X376993Y130654D01*
X376955Y130669D01*
X376932Y130674D01*
X376875Y130698D01*
X376852Y130721D01*
X376800Y130761D01*
X376730Y130767D01*
X376699Y130781D01*
X376670Y130793D01*
X376609Y130801D01*
X376569Y130813D01*
X376476Y130842D01*
X376401Y130865D01*
X376361Y130882D01*
X376309Y130888D01*
X376211Y130934D01*
X376188Y130940D01*
X375991Y131004D01*
X375925Y131035D01*
X375887Y131050D01*
X375864Y131055D01*
X375824Y131067D01*
X375812Y131079D01*
X375781Y131099D01*
X375757Y131105D01*
X375720Y131113D01*
X375645Y131136D01*
X375587Y131159D01*
X375581D01*
X375501Y131188D01*
X375420Y131223D01*
X375397Y131229D01*
X375362Y131252D01*
X375299Y131275D01*
X375192Y131324D01*
X375163Y131335D01*
X375125Y131350D01*
X375062Y131379D01*
X375021Y131408D01*
X374958Y131431D01*
X374926Y131445D01*
X374897Y131457D01*
X374860Y131465D01*
X374814Y131477D01*
X374750Y131506D01*
X374721Y131517D01*
X374689Y131532D01*
X374666Y131538D01*
X374637Y131549D01*
X374591Y131566D01*
X374554Y131581D01*
X374531Y131587D01*
X374490Y131604D01*
X374459Y131624D01*
X374430Y131630D01*
X374360Y131636D01*
X374300Y131644D01*
X374277Y131650D01*
X374199Y131659D01*
X374152Y131665D01*
X374052Y131673D01*
X374034Y131679D01*
X373754Y131676D01*
X373610Y131670D01*
X373564Y131659D01*
X373494Y131653D01*
X373425Y131642D01*
X373367Y131630D01*
X373333Y131624D01*
X373295Y131615D01*
X373272Y131610D01*
X373255Y131604D01*
X373186Y131598D01*
X373157Y131587D01*
X373125Y131572D01*
X373070Y131564D01*
X373047Y131558D01*
X372885Y131506D01*
X372856Y131494D01*
X372819Y131480D01*
X372758Y131465D01*
X372718Y131454D01*
X372703Y131439D01*
X372672Y131413D01*
X372637Y131408D01*
X372614Y131402D01*
X372481Y131338D01*
X372470Y131333D01*
X372458Y131321D01*
X372447Y131315D01*
X372438Y131307D01*
X372403Y131284D01*
X372348Y131246D01*
X372319Y131235D01*
X372279Y131217D01*
X372267Y131206D01*
X372204Y131171D01*
X372175Y131159D01*
X372161Y131145D01*
X372129Y131119D01*
X372117Y131113D01*
X372106Y131102D01*
X372094Y131096D01*
X372014Y131038D01*
X372002Y131032D01*
X371990Y131021D01*
X371979Y131015D01*
X371967Y131004D01*
X371956Y130998D01*
X371933Y130975D01*
X371912Y130960D01*
X371840Y130905D01*
X371814Y130874D01*
X371783Y130848D01*
X371771Y130842D01*
X371728Y130799D01*
X371722Y130787D01*
X371690Y130755D01*
X371670Y130741D01*
X371641Y130689D01*
X371624Y130648D01*
X371618Y130637D01*
X371606Y130625D01*
X371554Y130527D01*
X371537Y130487D01*
X371500Y130403D01*
X371491Y130354D01*
X371456Y130279D01*
X371448Y130224D01*
X371442Y130190D01*
X371436Y130166D01*
X371425Y130097D01*
X371419Y130034D01*
X371410Y129892D01*
X371404Y129875D01*
X371399Y129731D01*
X371404Y129638D01*
X371416Y129569D01*
X371451Y129494D01*
X371459Y129485D01*
X371488Y129479D01*
X371497Y129488D01*
X371529Y129514D01*
X371540Y129520D01*
X371549Y129528D01*
X371578Y129540D01*
X371609Y129549D01*
X371635Y129557D01*
X371682Y129586D01*
X371713Y129595D01*
X371748Y129618D01*
X371788Y129641D01*
X371811Y129647D01*
X371829Y129641D01*
X371863Y129635D01*
X371904Y129653D01*
X371927Y129658D01*
X371959Y129667D01*
X371993Y129673D01*
X372022Y129678D01*
X372045Y129684D01*
X372074Y129690D01*
X372143Y129702D01*
X372172Y129707D01*
X372236Y129713D01*
X372305Y129719D01*
X372357Y129725D01*
X372392Y129731D01*
X372421Y129736D01*
X372444Y129742D01*
X372501Y129754D01*
X372536Y129759D01*
X372582Y129765D01*
X372675Y129771D01*
X372796Y129777D01*
X372865Y129782D01*
X372929Y129788D01*
X372998Y129794D01*
X373301Y129803D01*
X373318Y129808D01*
X373555Y129814D01*
X373572Y129820D01*
X373797Y129826D01*
X373815Y129831D01*
X374028Y129837D01*
X374046Y129843D01*
X374204Y129840D01*
X374461Y129843D01*
X374479Y129837D01*
X374741Y129840D01*
X374756Y129837D01*
X374831Y129843D01*
X374848Y129837D01*
X374903Y129840D01*
X374949Y129846D01*
X375045Y129843D01*
X375215Y129834D01*
X375353Y129829D01*
X375443Y129820D01*
X375521Y129811D01*
X375625Y129794D01*
X375700Y129782D01*
X375781Y129777D01*
X375804Y129771D01*
X375832Y129759D01*
X375887Y129751D01*
X376014Y129728D01*
X376055Y129716D01*
X376138Y129690D01*
X376176Y129676D01*
X376199Y129670D01*
X376280Y129624D01*
X376309Y129612D01*
X376430Y129554D01*
X376450Y129546D01*
X376497Y129528D01*
X376595Y129494D01*
X376644Y129485D01*
X376667Y129479D01*
X376684Y129474D01*
X376765Y129468D01*
X376883Y129453D01*
X376918Y129448D01*
X376984Y129433D01*
X377002Y129427D01*
X377100Y129422D01*
X377123Y129416D01*
X377155Y129407D01*
X377215Y129398D01*
X377238Y129393D01*
X377305Y129373D01*
X377337Y129364D01*
X377354Y129358D01*
X377562Y129352D01*
X377593Y129338D01*
X377622Y129326D01*
X377680Y129315D01*
X377848Y129257D01*
X377894Y129246D01*
X377989Y129231D01*
X378035Y129243D01*
X378075Y129231D01*
X378084Y129222D01*
X378090Y129211D01*
X378099Y129202D01*
X378119Y129188D01*
X378151Y129162D01*
X378162Y129156D01*
X378220Y129133D01*
X378246Y129124D01*
X378318Y129098D01*
X378358Y129081D01*
X378370Y129075D01*
X378387Y129058D01*
X378416Y129012D01*
X378425Y128980D01*
X378436Y128934D01*
X378451Y128902D01*
X378462Y128873D01*
X378483Y128818D01*
X378514Y128746D01*
X378529Y128709D01*
X378540Y128680D01*
X378555Y128631D01*
X378563Y128570D01*
X378589Y128509D01*
X378595Y128481D01*
X378601Y128423D01*
X378610Y128391D01*
X378621Y128351D01*
X378633Y128305D01*
X378644Y128264D01*
X378650Y128241D01*
X378659Y128209D01*
X378664Y128186D01*
X378673Y128120D01*
X378699Y128059D01*
X378705Y128030D01*
X378711Y127972D01*
X378716Y127949D01*
X378728Y127892D01*
X378742Y127802D01*
X378748Y127785D01*
X378754Y127681D01*
X378774Y127615D01*
X378780Y127534D01*
X378797Y127343D01*
X378806Y127236D01*
X378812Y127196D01*
X378817Y127179D01*
X378815Y126783D01*
X378803Y126726D01*
X378797Y126633D01*
X378783Y126486D01*
X378777Y126469D01*
X378771Y126388D01*
X378765Y126347D01*
X378760Y126324D01*
X378748Y126295D01*
X378739Y126241D01*
X378734Y126206D01*
X378728Y126183D01*
X378722Y126154D01*
X378702Y126059D01*
X378690Y126012D01*
X378673Y125955D01*
X378667Y125914D01*
X378627Y125828D01*
X378621Y125793D01*
X378607Y125756D01*
X378595Y125727D01*
X378575Y125672D01*
X378558Y125614D01*
X378552Y125591D01*
X378520Y125519D01*
X378511Y125487D01*
X378497Y125450D01*
X378474Y125415D01*
X378462Y125386D01*
X378454Y125343D01*
X378350Y125129D01*
X378327Y125094D01*
X378309Y125066D01*
X378298Y125025D01*
X378286Y124996D01*
X378269Y124979D01*
X378255Y124959D01*
X378228Y124887D01*
X378211Y124869D01*
X378205Y124858D01*
X378188Y124840D01*
X378182Y124829D01*
X378159Y124806D01*
X378113Y124719D01*
X378102Y124708D01*
X378096Y124696D01*
X378050Y124650D01*
X378009Y124575D01*
X378003Y124563D01*
X377989Y124555D01*
X377948Y124532D01*
X377923Y124500D01*
X377917Y124488D01*
X377868Y124439D01*
X377856Y124433D01*
X377839Y124416D01*
X377827Y124410D01*
X377787Y124370D01*
X377775Y124364D01*
X377764Y124353D01*
X377752Y124347D01*
X377729Y124324D01*
X377718Y124318D01*
X377692Y124292D01*
X377660Y124266D01*
X377619Y124243D01*
X377608Y124237D01*
X377573Y124203D01*
X377542Y124182D01*
X377504Y124168D01*
X377492Y124156D01*
X377481Y124151D01*
X377478Y124142D01*
X377463Y124128D01*
X377365Y124075D01*
X377308Y124035D01*
X377221Y123989D01*
X377198Y123983D01*
X377146Y123960D01*
X377135Y123954D01*
X377126Y123946D01*
X377088Y123931D01*
X377042Y123920D01*
X376944Y123874D01*
X376915Y123862D01*
X376866Y123842D01*
X376802Y123813D01*
X376748Y123793D01*
X376725Y123787D01*
X376693Y123772D01*
X376664Y123761D01*
X376615Y123752D01*
X376557Y123735D01*
X376517Y123723D01*
X376401Y123694D01*
X376352Y123680D01*
X376297Y123671D01*
X376274Y123666D01*
X376237Y123651D01*
X376214Y123645D01*
X376150Y123640D01*
X376121Y123634D01*
X376087Y123628D01*
X376063Y123622D01*
X376029Y123617D01*
X375954Y123605D01*
X375882Y123596D01*
X375804Y123588D01*
X375694Y123582D01*
X375553Y123573D01*
X375535Y123567D01*
X375408Y123562D01*
X375310Y123550D01*
X375270Y123556D01*
X375252Y123550D01*
X374513Y123544D01*
X374496Y123550D01*
X374450Y123556D01*
X374432Y123562D01*
X374412Y123559D01*
X374150Y123562D01*
X374132Y123567D01*
X374121Y123562D01*
X374066Y123565D01*
X374020Y123576D01*
X373922Y123582D01*
X373751Y123596D01*
X373734Y123602D01*
X373642Y123608D01*
X373619Y123614D01*
X373569Y123628D01*
X373477Y123640D01*
X373448Y123645D01*
X373414Y123651D01*
X373385Y123657D01*
X373336Y123666D01*
X373243Y123694D01*
X373220Y123700D01*
X373180Y123706D01*
X373148Y123715D01*
X373125Y123721D01*
X373059Y123729D01*
X373018Y123741D01*
X372995Y123747D01*
X372955Y123758D01*
X372923Y123767D01*
X372885Y123781D01*
X372856Y123793D01*
X372807Y123813D01*
X372779Y123819D01*
X372729Y123827D01*
X372695Y123850D01*
X372614Y123879D01*
X372582Y123894D01*
X372527Y123914D01*
X372504Y123920D01*
X372464Y123931D01*
X372441Y123937D01*
X372412Y123948D01*
X372400Y123954D01*
X372374Y123969D01*
X372340Y123986D01*
X372317Y123992D01*
X372285Y124001D01*
X372273Y124012D01*
X372221Y124041D01*
X372192Y124052D01*
X372117Y124087D01*
X372089Y124099D01*
X372014Y124133D01*
X371912Y124182D01*
X371875Y124197D01*
X371846Y124208D01*
X371823Y124231D01*
X371811Y124237D01*
X371800Y124249D01*
X371731Y124266D01*
X371699Y124275D01*
X371653Y124292D01*
X371615Y124306D01*
X371540Y124341D01*
X371508Y124361D01*
X371474Y124384D01*
X371419Y124405D01*
X371390Y124416D01*
X371379Y124428D01*
X371367Y124433D01*
X371358Y124442D01*
X371321Y124457D01*
X371272Y124471D01*
X371249Y124477D01*
X371234Y124474D01*
X371211Y124468D01*
X371188Y124445D01*
X371176Y124439D01*
X371162Y124425D01*
X371147Y124405D01*
X371119Y124358D01*
X371093Y124286D01*
X371058Y124211D01*
X371052Y124177D01*
X371046Y124136D01*
X371041Y124113D01*
X371018Y124078D01*
X371009Y124058D01*
X371000Y124021D01*
X370989Y123992D01*
X370966Y123951D01*
X370957Y123943D01*
X370934Y123879D01*
X370925Y123848D01*
X370914Y123819D01*
X370882Y123758D01*
X370870Y123729D01*
X370862Y123697D01*
X370850Y123668D01*
X370844Y123657D01*
X370821Y123634D01*
X370816Y123622D01*
X370772Y123591D01*
X370752Y123582D01*
X370709Y123573D01*
X370686Y123567D01*
X370588Y123556D01*
X370564Y123550D01*
X370486Y123541D01*
X370328Y123533D01*
X370310Y123527D01*
X370051Y123521D01*
X370033Y123516D01*
X368977Y123510D01*
X368959Y123504D01*
X368281Y123513D01*
X368053Y123521D01*
X368036Y123527D01*
X367863Y123533D01*
X367845Y123539D01*
X367626Y123550D01*
X367603Y123556D01*
X367545Y123562D01*
X367505Y123579D01*
X367493Y123585D01*
X367473Y123611D01*
X367467Y123645D01*
X367496Y123709D01*
X367502Y123721D01*
X367513Y123732D01*
X367519Y123744D01*
X367531Y123755D01*
X367588Y123865D01*
X367600Y123876D01*
X367606Y123888D01*
X367663Y123969D01*
X367715Y124067D01*
X367721Y124078D01*
X367750Y124107D01*
X367790Y124182D01*
X367825Y124246D01*
X367842Y124286D01*
X367865Y124321D01*
X367883Y124350D01*
X367912Y124390D01*
X367958Y124477D01*
X367981Y124529D01*
X367987Y124540D01*
X367995Y124549D01*
X368007Y124578D01*
X368016Y124621D01*
X368085Y124766D01*
X368091Y124777D01*
X368148Y124898D01*
X368160Y124944D01*
X368180Y124993D01*
X368186Y125017D01*
X368195Y125071D01*
X368206Y125112D01*
X368226Y125178D01*
X368232Y125201D01*
X368241Y125233D01*
X368246Y125250D01*
X368252Y125285D01*
X368258Y125302D01*
X368264Y125377D01*
X368270Y125400D01*
X368278Y125432D01*
X368284Y125455D01*
X368290Y125513D01*
X368301Y125571D01*
X368313Y125640D01*
X368319Y125698D01*
X368324Y125750D01*
X368336Y125900D01*
X368350Y126128D01*
X368356Y126145D01*
X368362Y126278D01*
X368368Y126301D01*
X368373Y126319D01*
X368379Y126388D01*
X368385Y126515D01*
X368391Y126532D01*
X368396Y126688D01*
X368402Y126705D01*
X368408Y127138D01*
X368417Y127216D01*
X368423Y127407D01*
X368428Y127609D01*
X368434Y128128D01*
X368440Y128313D01*
X368446Y128712D01*
X368454Y129684D01*
X368460Y129898D01*
X368466Y129915D01*
X368460Y129921D01*
X368463Y129959D01*
X368469Y130091D01*
X368475Y130207D01*
X368480Y130305D01*
X368489Y130493D01*
X368495Y130510D01*
X368500Y130654D01*
X368506Y130729D01*
X368512Y130747D01*
X368521Y130801D01*
X368526Y130848D01*
X368532Y130882D01*
X368538Y130911D01*
X368544Y130946D01*
X368552Y131006D01*
X368558Y131024D01*
X368564Y131145D01*
X368593Y131208D01*
X368601Y131263D01*
X368607Y131292D01*
X368625Y131362D01*
X368630Y131390D01*
X368639Y131428D01*
X368656Y131497D01*
X368671Y131529D01*
X368679Y131566D01*
X368685Y131589D01*
X368697Y131618D01*
X368720Y131653D01*
X368726Y131688D01*
X368731Y131711D01*
X368766Y131786D01*
X368775Y131806D01*
X368786Y131835D01*
X368795Y131867D01*
X368806Y131896D01*
X368835Y131959D01*
X368841Y131971D01*
X368850Y131979D01*
X368864Y132017D01*
X368881Y132057D01*
X368896Y132072D01*
X368908Y132077D01*
X368916Y132086D01*
X368931Y132106D01*
X368945Y132144D01*
X368951Y132167D01*
X368974Y132201D01*
X369020Y132282D01*
X369061Y132357D01*
X369078Y132375D01*
X369084Y132386D01*
X369098Y132401D01*
X369109Y132406D01*
X369118Y132415D01*
X369133Y132435D01*
X369144Y132464D01*
X369159Y132502D01*
X369211Y132554D01*
X369251Y132606D01*
X369257Y132617D01*
X369286Y132646D01*
X369291Y132658D01*
X369309Y132675D01*
X369323Y132695D01*
X369346Y132730D01*
X369372Y132761D01*
X369378Y132773D01*
X369439Y132834D01*
X369450Y132839D01*
X369462Y132851D01*
X369473Y132857D01*
X369493Y132877D01*
X369499Y132888D01*
X369517Y132906D01*
X369522Y132917D01*
X369537Y132932D01*
X369577Y132961D01*
X369589Y132966D01*
X369603Y132981D01*
X369609Y132992D01*
X369626Y133010D01*
X369658Y133036D01*
X369669Y133041D01*
X369791Y133128D01*
X369802Y133134D01*
X369814Y133145D01*
X369825Y133151D01*
X369837Y133163D01*
X370028Y133261D01*
X370045Y133278D01*
X370056Y133284D01*
X370065Y133293D01*
X370120Y133313D01*
X370169Y133333D01*
X370204Y133356D01*
X370250Y133385D01*
X370287Y133399D01*
X370339Y133422D01*
X370351Y133428D01*
X370365Y133443D01*
X370400Y133472D01*
X370455Y133492D01*
X370484Y133503D01*
X370498Y133518D01*
X370553Y133538D01*
X370576Y133544D01*
X370608Y133558D01*
X370637Y133570D01*
X370700Y133599D01*
X370738Y133613D01*
X370833Y133656D01*
X370865Y133665D01*
X370905Y133677D01*
X370937Y133691D01*
X370966Y133703D01*
X371003Y133711D01*
X371035Y133720D01*
X371081Y133737D01*
X371119Y133752D01*
X371159Y133763D01*
X371182Y133769D01*
X371240Y133786D01*
X371272Y133801D01*
X371309Y133815D01*
X371332Y133821D01*
X371384Y133844D01*
X371479Y133858D01*
X371572Y133882D01*
X371606Y133887D01*
X371667Y133896D01*
X371684Y133902D01*
X371771Y133907D01*
X371794Y133913D01*
X371834Y133931D01*
X371898Y133936D01*
X371976Y133945D01*
X372045Y133957D01*
X372100Y133965D01*
X372117Y133971D01*
X372221Y133977D01*
X372244Y133982D01*
X372282Y133997D01*
X372464Y134006D01*
X372481Y134011D01*
X372672Y134017D01*
X372689Y134023D01*
X372983Y134029D01*
X373001Y134035D01*
X373428Y134040D01*
X373694Y134035D01*
D02*
G37*
%LPC*%
G36*
X405147Y134421D02*
X405118Y134410D01*
X405106Y134404D01*
X405092Y134384D01*
X405074Y134355D01*
X405031Y134312D01*
X405020Y134306D01*
X405008Y134294D01*
X404996Y134289D01*
X404942Y134216D01*
X404936Y134205D01*
X404910Y134179D01*
X404887Y134144D01*
X404849Y134089D01*
X404843Y134078D01*
X404826Y134060D01*
X404820Y134049D01*
X404791Y134009D01*
X404774Y133980D01*
X404763Y133968D01*
X404757Y133957D01*
X404748Y133948D01*
X404734Y133910D01*
X404716Y133870D01*
X404699Y133853D01*
X404636Y133731D01*
X404587Y133642D01*
X404517Y133503D01*
X404503Y133466D01*
X404486Y133425D01*
X404474Y133414D01*
X404445Y133362D01*
X404439Y133339D01*
X404431Y133307D01*
X404408Y133249D01*
X404387Y133195D01*
X404376Y133166D01*
X404356Y133117D01*
X404344Y133088D01*
X404327Y133041D01*
X404321Y133018D01*
X404312Y132987D01*
X404286Y132943D01*
X404278Y132912D01*
X404266Y132865D01*
X404229Y132776D01*
X404203Y132704D01*
X404194Y132672D01*
X404182Y132626D01*
X404168Y132559D01*
X404151Y132519D01*
X404142Y132510D01*
X404131Y132481D01*
X404116Y132444D01*
X404104Y132415D01*
X404087Y132375D01*
X404076Y132346D01*
X404070Y132323D01*
X404009Y132193D01*
X403998Y132164D01*
X403989Y132126D01*
X403978Y132098D01*
X403972Y132086D01*
X403960Y132074D01*
X403940Y132043D01*
X403931Y132011D01*
X403850Y131844D01*
X403845Y131820D01*
X403793Y131711D01*
X403764Y131647D01*
X403758Y131636D01*
X403749Y131627D01*
X403738Y131598D01*
X403729Y131566D01*
X403666Y131434D01*
X403654Y131405D01*
X403619Y131330D01*
X403585Y131266D01*
X403579Y131243D01*
X403571Y131211D01*
X403542Y131165D01*
X403527Y131128D01*
X403504Y131076D01*
X403464Y131001D01*
X403452Y130972D01*
X403423Y130908D01*
X403377Y130822D01*
X403366Y130775D01*
X403354Y130747D01*
X403340Y130732D01*
X403328Y130703D01*
X403313Y130666D01*
X403305Y130640D01*
X403290Y130602D01*
X403224Y130472D01*
X403201Y130415D01*
X403186Y130377D01*
X403169Y130319D01*
X403149Y130282D01*
X403143Y130259D01*
X403135Y130210D01*
X403123Y130181D01*
X403109Y130143D01*
X403091Y130097D01*
X403080Y130068D01*
X403060Y130013D01*
X403036Y129956D01*
X403031Y129933D01*
X403025Y129892D01*
X403010Y129855D01*
X403005Y129831D01*
X402996Y129777D01*
X402985Y129736D01*
X402961Y129661D01*
X402950Y129621D01*
X402941Y129589D01*
X402924Y129520D01*
X402915Y129465D01*
X402909Y129442D01*
X402895Y129410D01*
X402883Y129381D01*
X402875Y129338D01*
X402866Y129306D01*
X402855Y129260D01*
X402846Y129211D01*
X402840Y129188D01*
X402834Y129147D01*
X402823Y129101D01*
X402817Y129084D01*
X402811Y129026D01*
X402805Y129009D01*
X402800Y128934D01*
X402817Y128893D01*
X402823Y128882D01*
X402846Y128859D01*
X402878Y128833D01*
X402987Y128827D01*
X403005Y128821D01*
X403126Y128815D01*
X403143Y128810D01*
X404177Y128804D01*
X404194Y128810D01*
X405502Y128807D01*
X405738Y128795D01*
X405842Y128790D01*
X405952Y128784D01*
X405975Y128778D01*
X406067Y128772D01*
X406191Y128764D01*
X406209Y128758D01*
X406353Y128752D01*
X406394Y128746D01*
X406411Y128740D01*
X406521Y128735D01*
X406544Y128729D01*
X406662Y128714D01*
X406711Y128706D01*
X406728Y128700D01*
X406809Y128694D01*
X406873Y128665D01*
X406936Y128660D01*
X406985Y128645D01*
X407017Y128637D01*
X407020Y128634D01*
X407052Y128625D01*
X407069Y128619D01*
X407109Y128625D01*
X407124Y128639D01*
X407136Y128668D01*
X407124Y128737D01*
X407118Y128761D01*
X407112Y128818D01*
X407104Y128896D01*
X407098Y128931D01*
X407086Y128977D01*
X407078Y129044D01*
X407072Y129084D01*
X407060Y129130D01*
X407049Y129171D01*
X407040Y129202D01*
X407029Y129248D01*
X407020Y129286D01*
X407014Y129309D01*
X407009Y129384D01*
X406994Y129416D01*
X406980Y129453D01*
X406974Y129511D01*
X406945Y129627D01*
X406933Y129667D01*
X406916Y129725D01*
X406902Y129762D01*
X406896Y129797D01*
X406887Y129834D01*
X406876Y129846D01*
X406853Y129886D01*
X406847Y129909D01*
X406841Y129950D01*
X406829Y129990D01*
X406809Y130057D01*
X406780Y130132D01*
X406772Y130163D01*
X406757Y130195D01*
X406749Y130244D01*
X406737Y130285D01*
X406708Y130314D01*
X406700Y130334D01*
X406685Y130394D01*
X406668Y130435D01*
X406656Y130464D01*
X406639Y130504D01*
X406627Y130533D01*
X406622Y130556D01*
X406610Y130585D01*
X406590Y130634D01*
X406576Y130695D01*
X406558Y130735D01*
X406552Y130747D01*
X406541Y130758D01*
X406518Y130799D01*
X406489Y130862D01*
X406469Y130905D01*
X406446Y130969D01*
X406428Y131015D01*
X406417Y131044D01*
X406391Y131116D01*
X406379Y131157D01*
X406339Y131197D01*
X406324Y131217D01*
X406304Y131272D01*
X406267Y131356D01*
X406252Y131393D01*
X406212Y131480D01*
X406171Y131555D01*
X406160Y131595D01*
X406143Y131624D01*
X406122Y131656D01*
X406108Y131716D01*
X406010Y131919D01*
X406001Y131927D01*
X405972Y131973D01*
X405958Y132034D01*
X405917Y132121D01*
X405900Y132161D01*
X405880Y132199D01*
X405863Y132233D01*
X405848Y132271D01*
X405784Y132403D01*
X405776Y132424D01*
X405767Y132456D01*
X405753Y132505D01*
X405730Y132539D01*
X405715Y132600D01*
X405709Y132623D01*
X405658Y132733D01*
X405637Y132776D01*
X405626Y132805D01*
X405608Y132851D01*
X405594Y132912D01*
X405580Y132961D01*
X405554Y133033D01*
X405548Y133056D01*
X405531Y133096D01*
X405522Y133128D01*
X405516Y133151D01*
X405510Y133180D01*
X405502Y133218D01*
X405464Y133307D01*
X405458Y133336D01*
X405453Y133371D01*
X405447Y133394D01*
X405435Y133422D01*
X405429Y133446D01*
X405424Y133515D01*
X405418Y133550D01*
X405406Y133607D01*
X405401Y133630D01*
X405395Y133659D01*
X405389Y133682D01*
X405383Y133717D01*
X405375Y133755D01*
X405369Y133812D01*
X405363Y133835D01*
X405354Y133861D01*
X405349Y133890D01*
X405343Y133942D01*
X405337Y133965D01*
X405331Y133994D01*
X405320Y134040D01*
X405314Y134069D01*
X405305Y134101D01*
X405279Y134185D01*
X405265Y134245D01*
X405239Y134306D01*
X405233Y134329D01*
X405224Y134367D01*
X405213Y134395D01*
X405187Y134416D01*
X405147Y134421D01*
D02*
G37*
G36*
X371962Y129023D02*
X371927Y129017D01*
X371904Y129012D01*
X371901Y129009D01*
Y129003D01*
X371921Y128989D01*
X371979Y128983D01*
X371993Y128997D01*
X371990Y129006D01*
X371962Y129023D01*
D02*
G37*
G36*
X373237Y128914D02*
X373220Y128908D01*
X372926Y128902D01*
X372908Y128908D01*
X372839Y128914D01*
X372810Y128902D01*
X372776Y128879D01*
X372729Y128873D01*
X372689Y128890D01*
X372568Y128896D01*
X372510Y128890D01*
X372470Y128885D01*
X372291Y128890D01*
X372267Y128896D01*
X372250Y128902D01*
X372146Y128908D01*
X372106Y128902D01*
X372048Y128896D01*
X372016Y128888D01*
X371987Y128882D01*
X371956Y128873D01*
X371939Y128867D01*
X371794Y128862D01*
X371777Y128856D01*
X371757Y128859D01*
X371722Y128864D01*
X371684Y128879D01*
X371667Y128885D01*
X371632Y128873D01*
X371592Y128856D01*
X371523Y128850D01*
X371482Y128833D01*
X371430Y128804D01*
X371416Y128790D01*
X371393Y128749D01*
X371381Y128720D01*
X371364Y128662D01*
X371350Y128631D01*
X371335Y128593D01*
X371329Y128570D01*
X371301Y128507D01*
X371289Y128432D01*
X371266Y128351D01*
X371260Y128328D01*
X371251Y128296D01*
X371246Y128267D01*
X371240Y128244D01*
X371234Y128215D01*
X371225Y128166D01*
X371220Y128108D01*
X371214Y128091D01*
X371208Y127658D01*
X371214Y127641D01*
X371220Y127542D01*
X371225Y127519D01*
X371231Y127479D01*
X371243Y127433D01*
X371254Y127392D01*
X371263Y127361D01*
X371280Y127314D01*
X371289Y127283D01*
X371295Y127242D01*
X371306Y127213D01*
X371312Y127202D01*
X371326Y127187D01*
X371355Y127141D01*
X371370Y127104D01*
X371381Y127075D01*
X371399Y127034D01*
X371422Y127011D01*
X371427Y127000D01*
X371439Y126988D01*
X371468Y126936D01*
X371491Y126902D01*
X371497Y126890D01*
X371543Y126844D01*
X371583Y126792D01*
X371589Y126780D01*
X371647Y126723D01*
X371653Y126711D01*
X371679Y126685D01*
X371690Y126679D01*
X371759Y126610D01*
X371771Y126604D01*
X371809Y126567D01*
X371814Y126555D01*
X371826Y126544D01*
X371832Y126532D01*
X371846Y126523D01*
X371898Y126495D01*
X371956Y126437D01*
X372054Y126385D01*
X372066Y126373D01*
X372077Y126368D01*
X372106Y126339D01*
X372192Y126292D01*
X372227Y126269D01*
X372239Y126264D01*
X372256Y126246D01*
X372267Y126241D01*
X372279Y126229D01*
X372317Y126215D01*
X372348Y126206D01*
X372412Y126166D01*
X372496Y126122D01*
X372524Y126111D01*
X372582Y126076D01*
X372617Y126053D01*
X372654Y126039D01*
X372715Y126012D01*
X372752Y125998D01*
X372793Y125986D01*
X372822Y125975D01*
X372854Y125961D01*
X372908Y125940D01*
X372937Y125929D01*
X373044Y125880D01*
X373099Y125871D01*
X373122Y125865D01*
X373174Y125842D01*
X373223Y125834D01*
X373252Y125828D01*
X373275Y125822D01*
X373304Y125816D01*
X373339Y125810D01*
X373393Y125802D01*
X373439Y125790D01*
X373480Y125779D01*
X373497Y125773D01*
X373555Y125767D01*
X373572Y125761D01*
X373734Y125756D01*
X373751Y125750D01*
X373942Y125744D01*
X374155Y125750D01*
X374196Y125756D01*
X374254Y125761D01*
X374277Y125767D01*
X374346Y125779D01*
X374363Y125785D01*
X374427Y125790D01*
X374450Y125796D01*
X374476Y125805D01*
X374513Y125819D01*
X374560Y125831D01*
X374591Y125839D01*
X374629Y125854D01*
X374721Y125877D01*
X374762Y125888D01*
X374773Y125900D01*
X374785Y125906D01*
X374802Y125923D01*
X374814Y125929D01*
X374822Y125937D01*
X374894Y125963D01*
X374920Y125978D01*
X374952Y126004D01*
X374964Y126010D01*
X374967Y126012D01*
X375016Y126039D01*
X375027Y126050D01*
X375068Y126073D01*
X375102Y126096D01*
X375114Y126102D01*
X375212Y126200D01*
X375224Y126206D01*
X375241Y126223D01*
X375267Y126255D01*
X375273Y126266D01*
X375299Y126292D01*
X375310Y126298D01*
X375322Y126310D01*
X375333Y126316D01*
X375342Y126324D01*
X375356Y126344D01*
X375371Y126382D01*
X375382Y126411D01*
X375397Y126425D01*
X375408Y126431D01*
X375446Y126469D01*
X375504Y126578D01*
X375532Y126619D01*
X375538Y126630D01*
X375550Y126642D01*
X375578Y126694D01*
X375596Y126734D01*
X375602Y126746D01*
X375628Y126772D01*
X375648Y126826D01*
X375688Y126913D01*
X375700Y126942D01*
X375711Y126982D01*
X375737Y127066D01*
X375749Y127095D01*
X375769Y127150D01*
X375784Y127187D01*
X375801Y127234D01*
X375807Y127285D01*
X375818Y127361D01*
X375824Y127407D01*
X375835Y127482D01*
X375841Y127511D01*
X375853Y127557D01*
X375858Y127586D01*
X375870Y127678D01*
X375879Y127895D01*
X375885Y127912D01*
X375882Y128019D01*
X375885Y128131D01*
X375879Y128154D01*
X375867Y128183D01*
X375853Y128198D01*
X375830Y128203D01*
X375812Y128198D01*
X375755Y128192D01*
X375657Y128209D01*
X375616Y128221D01*
X375553Y128250D01*
X375532Y128270D01*
X375527Y128281D01*
X375515Y128293D01*
X375480Y128357D01*
X375457Y128408D01*
X375446Y128420D01*
X375417Y128472D01*
X375411Y128483D01*
X375371Y128524D01*
X375342Y128576D01*
X375304Y128602D01*
X375281Y128608D01*
X375235Y128637D01*
X375224Y128642D01*
X375157Y128674D01*
X375128Y128686D01*
X375091Y128700D01*
X375042Y128720D01*
X375004Y128735D01*
X374964Y128740D01*
X374903Y128766D01*
X374874Y128772D01*
X374811Y128778D01*
X374773Y128787D01*
X374733Y128798D01*
X374675Y128815D01*
X374643Y128824D01*
X374620Y128830D01*
X374560Y128844D01*
X374502Y128850D01*
X374484Y128856D01*
X374300Y128862D01*
X374242Y128867D01*
X374164Y128876D01*
X374069Y128885D01*
X374052Y128890D01*
X373976Y128896D01*
X373959Y128902D01*
X373751Y128908D01*
X373734Y128902D01*
X373416Y128908D01*
X373237Y128914D01*
D02*
G37*
%LPD*%
M02*
