G04*
G04 #@! TF.GenerationSoftware,Altium Limited,Altium Designer,23.0.1 (38)*
G04*
G04 Layer_Color=32768*
%FSLAX44Y44*%
%MOMM*%
G71*
G04*
G04 #@! TF.SameCoordinates,AC13AACC-C9C6-46D0-8271-6E1567557673*
G04*
G04*
G04 #@! TF.FilePolarity,Positive*
G04*
G01*
G75*
%ADD12C,0.2000*%
%ADD82C,0.0500*%
%ADD84C,0.1000*%
D12*
X141679Y118227D02*
Y173289D01*
X170741D01*
Y118227D02*
Y173289D01*
X141679Y118227D02*
X170741D01*
X247490Y73460D02*
Y128460D01*
X192490Y73460D02*
X247490D01*
X192490D02*
Y128460D01*
X247490D01*
X323402Y82992D02*
Y96992D01*
X330902D01*
Y82992D02*
Y96992D01*
X323402Y82992D02*
X330902D01*
X270798Y139510D02*
X286798D01*
X270798D02*
Y147510D01*
X286798D01*
Y139510D02*
Y147510D01*
X266015Y117553D02*
X313136D01*
Y70432D02*
Y117553D01*
X266015Y70432D02*
X313136D01*
X266015D02*
Y117553D01*
X86420Y114558D02*
Y129282D01*
X93920D01*
Y114558D02*
Y129282D01*
X86420Y114558D02*
X93920D01*
X187540Y162106D02*
X198540D01*
X187540Y137106D02*
Y162106D01*
Y137106D02*
X198540D01*
Y162106D01*
X198970D02*
X209970D01*
X198970Y137106D02*
Y162106D01*
Y137106D02*
X209970D01*
Y162106D01*
X109422Y71130D02*
Y81855D01*
X88698D02*
X109422D01*
X88698Y71130D02*
Y81855D01*
Y71130D02*
X109422D01*
Y101130D02*
Y111855D01*
X88698D02*
X109422D01*
X88698Y101130D02*
Y111855D01*
Y101130D02*
X109422D01*
X95850Y113884D02*
X107350D01*
Y135884D01*
X95850D02*
X107350D01*
X95850Y113884D02*
Y135884D01*
X105177Y139506D02*
Y147006D01*
X90452D02*
X105177D01*
X90452Y139506D02*
Y147006D01*
Y139506D02*
X105177D01*
X114123Y148283D02*
Y177345D01*
X59061D02*
X114123D01*
X59061Y148283D02*
Y177345D01*
Y148283D02*
X114123D01*
X319290Y22640D02*
Y58640D01*
X257290D02*
X319290D01*
X257290Y22640D02*
Y58640D01*
Y22640D02*
X319290D01*
X396558Y89992D02*
X404558D01*
Y105992D01*
X396558D02*
X404558D01*
X396558Y89992D02*
Y105992D01*
X271790Y9970D02*
Y17970D01*
X255790D02*
X271790D01*
X255790Y9970D02*
Y17970D01*
Y9970D02*
X271790D01*
X304790D02*
Y17970D01*
Y9970D02*
X320790D01*
Y17970D01*
X304790D02*
X320790D01*
D82*
X331292Y81492D02*
X340792D01*
X336042Y76492D02*
Y86492D01*
X331292Y90492D02*
X340792D01*
X331292Y72492D02*
Y90492D01*
Y72492D02*
X340792D01*
Y90492D01*
X215964Y168606D02*
X223964D01*
X215964Y153606D02*
X223964D01*
Y168606D01*
X215964Y153606D02*
Y168606D01*
X174816D02*
X182816D01*
X174816Y153606D02*
X182816D01*
Y168606D01*
X174816Y153606D02*
Y168606D01*
X116668Y106790D02*
X158668D01*
Y71290D02*
Y106790D01*
X116668Y71290D02*
X158668D01*
X116668D02*
Y106790D01*
X355490Y98742D02*
X373490D01*
Y89242D02*
Y98742D01*
X355490Y89242D02*
X373490D01*
X355490D02*
Y98742D01*
X359490Y93992D02*
X369490D01*
X364490Y89242D02*
Y98742D01*
X229560Y7410D02*
Y63710D01*
X95560D02*
X229560D01*
X95560Y7410D02*
Y63710D01*
Y7410D02*
X229560D01*
X109000Y123750D02*
X145000D01*
Y165750D01*
X109000D02*
X145000D01*
X109000Y123750D02*
Y165750D01*
D84*
X219964Y158356D02*
Y163856D01*
X217214Y161106D02*
X222714D01*
X178816Y158356D02*
Y163856D01*
X176066Y161106D02*
X181566D01*
M02*
