G04*
G04 #@! TF.GenerationSoftware,Altium Limited,Altium Designer,23.0.1 (38)*
G04*
G04 Layer_Color=128*
%FSLAX44Y44*%
%MOMM*%
G71*
G04*
G04 #@! TF.SameCoordinates,AC13AACC-C9C6-46D0-8271-6E1567557673*
G04*
G04*
G04 #@! TF.FilePolarity,Positive*
G04*
G01*
G75*
%ADD87C,0.1270*%
D87*
X11430Y20066D02*
X31750D01*
X21590Y9906D02*
Y30226D01*
X7620Y20066D02*
X10160D01*
X8890Y18796D02*
Y21336D01*
X20320Y7366D02*
X22860D01*
X21590Y6096D02*
Y8636D01*
X29464Y10922D02*
X32004D01*
X30734Y9652D02*
Y12192D01*
X11176Y10922D02*
X13716D01*
X12446Y9652D02*
Y12192D01*
X11176Y29210D02*
X13716D01*
X12446Y27940D02*
Y30480D01*
X20320Y32766D02*
X22860D01*
X21590Y31496D02*
Y34036D01*
X29464Y29210D02*
X32004D01*
X30734Y27940D02*
Y30480D01*
X33020Y20066D02*
X35560D01*
X34290Y18796D02*
Y21336D01*
X11430Y166370D02*
X31750D01*
X21590Y156210D02*
Y176530D01*
X33020Y166370D02*
X35560D01*
X34290Y165100D02*
Y167640D01*
X7620Y166370D02*
X10160D01*
X8890Y165100D02*
Y167640D01*
X20320Y179070D02*
X22860D01*
X21590Y177800D02*
Y180340D01*
X20320Y153670D02*
X22860D01*
X21590Y152400D02*
Y154940D01*
X11176Y175514D02*
X13716D01*
X12446Y174244D02*
Y176784D01*
X29464Y157226D02*
X32004D01*
X30734Y155956D02*
Y158496D01*
X11176Y157226D02*
X13716D01*
X12446Y155956D02*
Y158496D01*
X29464Y175514D02*
X32004D01*
X30734Y174244D02*
Y176784D01*
X24025Y50792D02*
X30025D01*
X27025Y47792D02*
Y53792D01*
X24025Y137192D02*
X30025D01*
X27025Y134192D02*
Y140192D01*
X60575Y65092D02*
X67075D01*
X63825Y61842D02*
Y68342D01*
X60575Y122892D02*
X67075D01*
X63825Y119642D02*
Y126142D01*
X65825Y137192D02*
X71825D01*
X68825Y134192D02*
Y140192D01*
X65825Y50792D02*
X71825D01*
X68825Y47792D02*
Y53792D01*
X106260Y22860D02*
X117260D01*
X111760Y17360D02*
Y28360D01*
X131660Y22860D02*
X142660D01*
X137160Y17360D02*
Y28360D01*
X106260Y48260D02*
X117260D01*
X111760Y42760D02*
Y53760D01*
X131660Y48260D02*
X142660D01*
X137160Y42760D02*
Y53760D01*
X157060Y22860D02*
X168060D01*
X162560Y17360D02*
Y28360D01*
X157060Y48260D02*
X168060D01*
X162560Y42760D02*
Y53760D01*
X207860Y48260D02*
X218860D01*
X213360Y42760D02*
Y53760D01*
X207860Y22860D02*
X218860D01*
X213360Y17360D02*
Y28360D01*
X182460Y48260D02*
X193460D01*
X187960Y42760D02*
Y53760D01*
X182460Y22860D02*
X193460D01*
X187960Y17360D02*
Y28360D01*
X171348Y136906D02*
X173888D01*
X172618Y135636D02*
Y138176D01*
X171196Y114808D02*
X173736D01*
X172466Y113538D02*
Y116078D01*
X171196Y125476D02*
X173736D01*
X172466Y124206D02*
Y126746D01*
X88900Y134112D02*
X91440D01*
X90170Y132842D02*
Y135382D01*
X112014Y71374D02*
X114554D01*
X113284Y70104D02*
Y72644D01*
X337566Y67310D02*
X340106D01*
X338836Y66040D02*
Y68580D01*
X447802Y141986D02*
X450342D01*
X449072Y140716D02*
Y143256D01*
X447802Y45466D02*
X450342D01*
X449072Y44196D02*
Y46736D01*
X337566Y104140D02*
X340106D01*
X338836Y102870D02*
Y105410D01*
X221488Y34290D02*
X224028D01*
X222758Y33020D02*
Y35560D01*
X158902Y114808D02*
X161442D01*
X160172Y113538D02*
Y116078D01*
X145694Y114808D02*
X148234D01*
X146964Y113538D02*
Y116078D01*
X273050Y171704D02*
X275590D01*
X274320Y170434D02*
Y172974D01*
X318262Y60960D02*
X320802D01*
X319532Y59690D02*
Y62230D01*
X286556Y38718D02*
X289096D01*
X287826Y37448D02*
Y39988D01*
X250698Y34798D02*
X253238D01*
X251968Y33528D02*
Y36068D01*
X136468Y77654D02*
X139008D01*
X137738Y76384D02*
Y78924D01*
X236220Y139954D02*
X238760D01*
X237490Y138684D02*
Y141224D01*
X275590Y123698D02*
X278130D01*
X276860Y122428D02*
Y124968D01*
X259588Y79502D02*
X262128D01*
X260858Y78232D02*
Y80772D01*
X288306Y94629D02*
X290846D01*
X289576Y93359D02*
Y95899D01*
X294386Y102870D02*
X296926D01*
X295656Y101600D02*
Y104140D01*
X226060Y135890D02*
X228600D01*
X227330Y134620D02*
Y137160D01*
X88900Y62230D02*
X91440D01*
X90170Y60960D02*
Y63500D01*
X111760Y106680D02*
X114300D01*
X113030Y105410D02*
Y107950D01*
X230378Y108966D02*
X232918D01*
X231648Y107696D02*
Y110236D01*
X283314Y61884D02*
X285854D01*
X284584Y60614D02*
Y63154D01*
X337566Y42926D02*
X340106D01*
X338836Y41656D02*
Y44196D01*
X379476Y64262D02*
X382016D01*
X380746Y62992D02*
Y65532D01*
X379222Y76992D02*
X381762D01*
X380492Y75722D02*
Y78262D01*
X337566Y174244D02*
X340106D01*
X338836Y172974D02*
Y175514D01*
X273528Y157480D02*
X276068D01*
X274798Y156210D02*
Y158750D01*
X320040Y103992D02*
X322580D01*
X321310Y102722D02*
Y105262D01*
X259588Y93980D02*
X262128D01*
X260858Y92710D02*
Y95250D01*
X282702Y102870D02*
X285242D01*
X283972Y101600D02*
Y104140D01*
X282702Y86106D02*
X285242D01*
X283972Y84836D02*
Y87376D01*
X294386Y86106D02*
X296926D01*
X295656Y84836D02*
Y87376D01*
X185166Y74422D02*
X187706D01*
X186436Y73152D02*
Y75692D01*
X207518Y108966D02*
X210058D01*
X208788Y107696D02*
Y110236D01*
X218948Y91948D02*
X221488D01*
X220218Y90678D02*
Y93218D01*
X218948Y108966D02*
X221488D01*
X220218Y107696D02*
Y110236D01*
X230632Y91948D02*
X233172D01*
X231902Y90678D02*
Y93218D01*
X154940Y178308D02*
X157480D01*
X156210Y177038D02*
Y179578D01*
X177546Y174244D02*
X180086D01*
X178816Y172974D02*
Y175514D01*
X218694D02*
X221234D01*
X219964Y174244D02*
Y176784D01*
X254762Y157226D02*
X257302D01*
X256032Y155956D02*
Y158496D01*
X311150Y171704D02*
X313690D01*
X312420Y170434D02*
Y172974D01*
X311150Y159512D02*
X313690D01*
X312420Y158242D02*
Y160782D01*
X321310Y144526D02*
X323850D01*
X322580Y143256D02*
Y145796D01*
X399288Y113030D02*
X401828D01*
X400558Y111760D02*
Y114300D01*
X73660Y33020D02*
X76200D01*
X74930Y31750D02*
Y34290D01*
X116230Y118110D02*
X118770D01*
X117500Y116840D02*
Y119380D01*
X49784Y162814D02*
X52324D01*
X51054Y161544D02*
Y164084D01*
X84074Y143256D02*
X86614D01*
X85344Y141986D02*
Y144526D01*
X216220Y135890D02*
X218760D01*
X217490Y134620D02*
Y137160D01*
X207518Y91948D02*
X210058D01*
X208788Y90678D02*
Y93218D01*
X182118Y83460D02*
X184658D01*
X183388Y82190D02*
Y84730D01*
X337566Y141732D02*
X340106D01*
X338836Y140462D02*
Y143002D01*
X379222Y174244D02*
X381762D01*
X380492Y172974D02*
Y175514D01*
X424434Y174244D02*
X426974D01*
X425704Y172974D02*
Y175514D01*
X424434Y13462D02*
X426974D01*
X425704Y12192D02*
Y14732D01*
X379222Y13462D02*
X381762D01*
X380492Y12192D02*
Y14732D01*
X337566Y13462D02*
X340106D01*
X338836Y12192D02*
Y14732D01*
X436880Y39116D02*
X439420D01*
X438150Y37846D02*
Y40386D01*
X436880Y147320D02*
X439420D01*
X438150Y146050D02*
Y148590D01*
X323342Y13970D02*
X325882D01*
X324612Y12700D02*
Y15240D01*
X248666Y13970D02*
X251206D01*
X249936Y12700D02*
Y15240D01*
M02*
