G04*
G04 #@! TF.GenerationSoftware,Altium Limited,Altium Designer,23.0.1 (38)*
G04*
G04 Layer_Color=2752767*
%FSLAX44Y44*%
%MOMM*%
G71*
G04*
G04 #@! TF.SameCoordinates,AC13AACC-C9C6-46D0-8271-6E1567557673*
G04*
G04*
G04 #@! TF.FilePolarity,Positive*
G04*
G01*
G75*
%ADD87C,0.1270*%
%ADD88C,0.1693*%
D87*
X16510Y20066D02*
X21590Y25146D01*
X26670Y20066D01*
X21590Y14986D01*
X16510Y20066D01*
X3810Y14986D02*
X6350Y20066D01*
X3810Y25146D01*
X8890Y22606D01*
X13970Y25146D01*
X11430Y20066D01*
X13970Y14986D01*
X8890Y17526D01*
X3810Y14986D01*
X16510Y2286D02*
X19050Y7366D01*
X16510Y12446D01*
X21590Y9906D01*
X26670Y12446D01*
X24130Y7366D01*
X26670Y2286D01*
X21590Y4826D01*
X16510Y2286D01*
X25654Y5842D02*
X28194Y10922D01*
X25654Y16002D01*
X30734Y13462D01*
X35814Y16002D01*
X33274Y10922D01*
X35814Y5842D01*
X30734Y8382D01*
X25654Y5842D01*
X7366D02*
X9906Y10922D01*
X7366Y16002D01*
X12446Y13462D01*
X17526Y16002D01*
X14986Y10922D01*
X17526Y5842D01*
X12446Y8382D01*
X7366Y5842D01*
Y24130D02*
X9906Y29210D01*
X7366Y34290D01*
X12446Y31750D01*
X17526Y34290D01*
X14986Y29210D01*
X17526Y24130D01*
X12446Y26670D01*
X7366Y24130D01*
X16510Y27686D02*
X19050Y32766D01*
X16510Y37846D01*
X21590Y35306D01*
X26670Y37846D01*
X24130Y32766D01*
X26670Y27686D01*
X21590Y30226D01*
X16510Y27686D01*
X25654Y24130D02*
X28194Y29210D01*
X25654Y34290D01*
X30734Y31750D01*
X35814Y34290D01*
X33274Y29210D01*
X35814Y24130D01*
X30734Y26670D01*
X25654Y24130D01*
X29210Y14986D02*
X31750Y20066D01*
X29210Y25146D01*
X34290Y22606D01*
X39370Y25146D01*
X36830Y20066D01*
X39370Y14986D01*
X34290Y17526D01*
X29210Y14986D01*
X16510Y166370D02*
X21590Y171450D01*
X26670Y166370D01*
X21590Y161290D01*
X16510Y166370D01*
X29210Y161290D02*
X31750Y166370D01*
X29210Y171450D01*
X34290Y168910D01*
X39370Y171450D01*
X36830Y166370D01*
X39370Y161290D01*
X34290Y163830D01*
X29210Y161290D01*
X3810D02*
X6350Y166370D01*
X3810Y171450D01*
X8890Y168910D01*
X13970Y171450D01*
X11430Y166370D01*
X13970Y161290D01*
X8890Y163830D01*
X3810Y161290D01*
X16510Y173990D02*
X19050Y179070D01*
X16510Y184150D01*
X21590Y181610D01*
X26670Y184150D01*
X24130Y179070D01*
X26670Y173990D01*
X21590Y176530D01*
X16510Y173990D01*
Y148590D02*
X19050Y153670D01*
X16510Y158750D01*
X21590Y156210D01*
X26670Y158750D01*
X24130Y153670D01*
X26670Y148590D01*
X21590Y151130D01*
X16510Y148590D01*
X7366Y170434D02*
X9906Y175514D01*
X7366Y180594D01*
X12446Y178054D01*
X17526Y180594D01*
X14986Y175514D01*
X17526Y170434D01*
X12446Y172974D01*
X7366Y170434D01*
X25654Y152146D02*
X28194Y157226D01*
X25654Y162306D01*
X30734Y159766D01*
X35814Y162306D01*
X33274Y157226D01*
X35814Y152146D01*
X30734Y154686D01*
X25654Y152146D01*
X7366D02*
X9906Y157226D01*
X7366Y162306D01*
X12446Y159766D01*
X17526Y162306D01*
X14986Y157226D01*
X17526Y152146D01*
X12446Y154686D01*
X7366Y152146D01*
X25654Y170434D02*
X28194Y175514D01*
X25654Y180594D01*
X30734Y178054D01*
X35814Y180594D01*
X33274Y175514D01*
X35814Y170434D01*
X30734Y172974D01*
X25654Y170434D01*
X21945Y45712D02*
Y55872D01*
X32105D01*
Y45712D01*
X21945D01*
Y132112D02*
Y142272D01*
X32105D01*
Y132112D01*
X21945D01*
X68825D02*
X63745Y142272D01*
X73905D01*
X68825Y132112D01*
Y45712D02*
X63745Y55872D01*
X73905D01*
X68825Y45712D01*
X111760Y17780D02*
X114300Y20320D01*
X116840D01*
X114300Y22860D01*
X116840Y25400D01*
X114300D01*
X111760Y27940D01*
X109220Y25400D01*
X106680D01*
X109220Y22860D01*
X106680Y20320D01*
X109220D01*
X111760Y17780D01*
X137160D02*
X139700Y20320D01*
X142240D01*
X139700Y22860D01*
X142240Y25400D01*
X139700D01*
X137160Y27940D01*
X134620Y25400D01*
X132080D01*
X134620Y22860D01*
X132080Y20320D01*
X134620D01*
X137160Y17780D01*
X111760Y43180D02*
X114300Y45720D01*
X116840D01*
X114300Y48260D01*
X116840Y50800D01*
X114300D01*
X111760Y53340D01*
X109220Y50800D01*
X106680D01*
X109220Y48260D01*
X106680Y45720D01*
X109220D01*
X111760Y43180D01*
X137160D02*
X139700Y45720D01*
X142240D01*
X139700Y48260D01*
X142240Y50800D01*
X139700D01*
X137160Y53340D01*
X134620Y50800D01*
X132080D01*
X134620Y48260D01*
X132080Y45720D01*
X134620D01*
X137160Y43180D01*
X162560Y17780D02*
X165100Y20320D01*
X167640D01*
X165100Y22860D01*
X167640Y25400D01*
X165100D01*
X162560Y27940D01*
X160020Y25400D01*
X157480D01*
X160020Y22860D01*
X157480Y20320D01*
X160020D01*
X162560Y17780D01*
Y43180D02*
X165100Y45720D01*
X167640D01*
X165100Y48260D01*
X167640Y50800D01*
X165100D01*
X162560Y53340D01*
X160020Y50800D01*
X157480D01*
X160020Y48260D01*
X157480Y45720D01*
X160020D01*
X162560Y43180D01*
X213360D02*
X215900Y45720D01*
X218440D01*
X215900Y48260D01*
X218440Y50800D01*
X215900D01*
X213360Y53340D01*
X210820Y50800D01*
X208280D01*
X210820Y48260D01*
X208280Y45720D01*
X210820D01*
X213360Y43180D01*
Y17780D02*
X215900Y20320D01*
X218440D01*
X215900Y22860D01*
X218440Y25400D01*
X215900D01*
X213360Y27940D01*
X210820Y25400D01*
X208280D01*
X210820Y22860D01*
X208280Y20320D01*
X210820D01*
X213360Y17780D01*
X187960Y43180D02*
X190500Y45720D01*
X193040D01*
X190500Y48260D01*
X193040Y50800D01*
X190500D01*
X187960Y53340D01*
X185420Y50800D01*
X182880D01*
X185420Y48260D01*
X182880Y45720D01*
X185420D01*
X187960Y43180D01*
Y17780D02*
X190500Y20320D01*
X193040D01*
X190500Y22860D01*
X193040Y25400D01*
X190500D01*
X187960Y27940D01*
X185420Y25400D01*
X182880D01*
X185420Y22860D01*
X182880Y20320D01*
X185420D01*
X187960Y17780D01*
X167538Y131826D02*
X170078Y136906D01*
X167538Y141986D01*
X172618Y139446D01*
X177698Y141986D01*
X175158Y136906D01*
X177698Y131826D01*
X172618Y134366D01*
X167538Y131826D01*
X167386Y109728D02*
X169926Y114808D01*
X167386Y119888D01*
X172466Y117348D01*
X177546Y119888D01*
X175006Y114808D01*
X177546Y109728D01*
X172466Y112268D01*
X167386Y109728D01*
Y120396D02*
X169926Y125476D01*
X167386Y130556D01*
X172466Y128016D01*
X177546Y130556D01*
X175006Y125476D01*
X177546Y120396D01*
X172466Y122936D01*
X167386Y120396D01*
X85090Y129032D02*
X87630Y134112D01*
X85090Y139192D01*
X90170Y136652D01*
X95250Y139192D01*
X92710Y134112D01*
X95250Y129032D01*
X90170Y131572D01*
X85090Y129032D01*
X108204Y66294D02*
X110744Y71374D01*
X108204Y76454D01*
X113284Y73914D01*
X118364Y76454D01*
X115824Y71374D01*
X118364Y66294D01*
X113284Y68834D01*
X108204Y66294D01*
X333756Y62230D02*
X336296Y67310D01*
X333756Y72390D01*
X338836Y69850D01*
X343916Y72390D01*
X341376Y67310D01*
X343916Y62230D01*
X338836Y64770D01*
X333756Y62230D01*
X443992Y136906D02*
X446532Y141986D01*
X443992Y147066D01*
X449072Y144526D01*
X454152Y147066D01*
X451612Y141986D01*
X454152Y136906D01*
X449072Y139446D01*
X443992Y136906D01*
Y40386D02*
X446532Y45466D01*
X443992Y50546D01*
X449072Y48006D01*
X454152Y50546D01*
X451612Y45466D01*
X454152Y40386D01*
X449072Y42926D01*
X443992Y40386D01*
X333756Y99060D02*
X336296Y104140D01*
X333756Y109220D01*
X338836Y106680D01*
X343916Y109220D01*
X341376Y104140D01*
X343916Y99060D01*
X338836Y101600D01*
X333756Y99060D01*
X217678Y29210D02*
X220218Y34290D01*
X217678Y39370D01*
X222758Y36830D01*
X227838Y39370D01*
X225298Y34290D01*
X227838Y29210D01*
X222758Y31750D01*
X217678Y29210D01*
X155092Y109728D02*
X157632Y114808D01*
X155092Y119888D01*
X160172Y117348D01*
X165252Y119888D01*
X162712Y114808D01*
X165252Y109728D01*
X160172Y112268D01*
X155092Y109728D01*
X141884D02*
X144424Y114808D01*
X141884Y119888D01*
X146964Y117348D01*
X152044Y119888D01*
X149504Y114808D01*
X152044Y109728D01*
X146964Y112268D01*
X141884Y109728D01*
X269240Y166624D02*
X271780Y171704D01*
X269240Y176784D01*
X274320Y174244D01*
X279400Y176784D01*
X276860Y171704D01*
X279400Y166624D01*
X274320Y169164D01*
X269240Y166624D01*
X314452Y55880D02*
X316992Y60960D01*
X314452Y66040D01*
X319532Y63500D01*
X324612Y66040D01*
X322072Y60960D01*
X324612Y55880D01*
X319532Y58420D01*
X314452Y55880D01*
X282746Y33638D02*
X285286Y38718D01*
X282746Y43798D01*
X287826Y41258D01*
X292906Y43798D01*
X290366Y38718D01*
X292906Y33638D01*
X287826Y36178D01*
X282746Y33638D01*
X246888Y29718D02*
X249428Y34798D01*
X246888Y39878D01*
X251968Y37338D01*
X257048Y39878D01*
X254508Y34798D01*
X257048Y29718D01*
X251968Y32258D01*
X246888Y29718D01*
X132658Y72574D02*
X135198Y77654D01*
X132658Y82734D01*
X137738Y80194D01*
X142818Y82734D01*
X140278Y77654D01*
X142818Y72574D01*
X137738Y75114D01*
X132658Y72574D01*
X232410Y134874D02*
X234950Y139954D01*
X232410Y145034D01*
X237490Y142494D01*
X242570Y145034D01*
X240030Y139954D01*
X242570Y134874D01*
X237490Y137414D01*
X232410Y134874D01*
X271780Y118618D02*
X274320Y123698D01*
X271780Y128778D01*
X276860Y126238D01*
X281940Y128778D01*
X279400Y123698D01*
X281940Y118618D01*
X276860Y121158D01*
X271780Y118618D01*
X255778Y74422D02*
X258318Y79502D01*
X255778Y84582D01*
X260858Y82042D01*
X265938Y84582D01*
X263398Y79502D01*
X265938Y74422D01*
X260858Y76962D01*
X255778Y74422D01*
X284496Y89549D02*
X287036Y94629D01*
X284496Y99709D01*
X289576Y97169D01*
X294656Y99709D01*
X292116Y94629D01*
X294656Y89549D01*
X289576Y92089D01*
X284496Y89549D01*
X290576Y97790D02*
X293116Y102870D01*
X290576Y107950D01*
X295656Y105410D01*
X300736Y107950D01*
X298196Y102870D01*
X300736Y97790D01*
X295656Y100330D01*
X290576Y97790D01*
X222250Y130810D02*
X224790Y135890D01*
X222250Y140970D01*
X227330Y138430D01*
X232410Y140970D01*
X229870Y135890D01*
X232410Y130810D01*
X227330Y133350D01*
X222250Y130810D01*
X85090Y57150D02*
X87630Y62230D01*
X85090Y67310D01*
X90170Y64770D01*
X95250Y67310D01*
X92710Y62230D01*
X95250Y57150D01*
X90170Y59690D01*
X85090Y57150D01*
X107950Y101600D02*
X110490Y106680D01*
X107950Y111760D01*
X113030Y109220D01*
X118110Y111760D01*
X115570Y106680D01*
X118110Y101600D01*
X113030Y104140D01*
X107950Y101600D01*
X226568Y103886D02*
X229108Y108966D01*
X226568Y114046D01*
X231648Y111506D01*
X236728Y114046D01*
X234188Y108966D01*
X236728Y103886D01*
X231648Y106426D01*
X226568Y103886D01*
X279504Y56804D02*
X282044Y61884D01*
X279504Y66964D01*
X284584Y64424D01*
X289664Y66964D01*
X287124Y61884D01*
X289664Y56804D01*
X284584Y59344D01*
X279504Y56804D01*
X333756Y37846D02*
X336296Y42926D01*
X333756Y48006D01*
X338836Y45466D01*
X343916Y48006D01*
X341376Y42926D01*
X343916Y37846D01*
X338836Y40386D01*
X333756Y37846D01*
X375666Y59182D02*
X378206Y64262D01*
X375666Y69342D01*
X380746Y66802D01*
X385826Y69342D01*
X383286Y64262D01*
X385826Y59182D01*
X380746Y61722D01*
X375666Y59182D01*
X375412Y71912D02*
X377952Y76992D01*
X375412Y82072D01*
X380492Y79532D01*
X385572Y82072D01*
X383032Y76992D01*
X385572Y71912D01*
X380492Y74452D01*
X375412Y71912D01*
X333756Y169164D02*
X336296Y174244D01*
X333756Y179324D01*
X338836Y176784D01*
X343916Y179324D01*
X341376Y174244D01*
X343916Y169164D01*
X338836Y171704D01*
X333756Y169164D01*
X269718Y152400D02*
X272258Y157480D01*
X269718Y162560D01*
X274798Y160020D01*
X279878Y162560D01*
X277338Y157480D01*
X279878Y152400D01*
X274798Y154940D01*
X269718Y152400D01*
X316230Y98912D02*
X318770Y103992D01*
X316230Y109072D01*
X321310Y106532D01*
X326390Y109072D01*
X323850Y103992D01*
X326390Y98912D01*
X321310Y101452D01*
X316230Y98912D01*
X255778Y88900D02*
X258318Y93980D01*
X255778Y99060D01*
X260858Y96520D01*
X265938Y99060D01*
X263398Y93980D01*
X265938Y88900D01*
X260858Y91440D01*
X255778Y88900D01*
X278892Y97790D02*
X281432Y102870D01*
X278892Y107950D01*
X283972Y105410D01*
X289052Y107950D01*
X286512Y102870D01*
X289052Y97790D01*
X283972Y100330D01*
X278892Y97790D01*
Y81026D02*
X281432Y86106D01*
X278892Y91186D01*
X283972Y88646D01*
X289052Y91186D01*
X286512Y86106D01*
X289052Y81026D01*
X283972Y83566D01*
X278892Y81026D01*
X290576D02*
X293116Y86106D01*
X290576Y91186D01*
X295656Y88646D01*
X300736Y91186D01*
X298196Y86106D01*
X300736Y81026D01*
X295656Y83566D01*
X290576Y81026D01*
X181356Y69342D02*
X183896Y74422D01*
X181356Y79502D01*
X186436Y76962D01*
X191516Y79502D01*
X188976Y74422D01*
X191516Y69342D01*
X186436Y71882D01*
X181356Y69342D01*
X203708Y103886D02*
X206248Y108966D01*
X203708Y114046D01*
X208788Y111506D01*
X213868Y114046D01*
X211328Y108966D01*
X213868Y103886D01*
X208788Y106426D01*
X203708Y103886D01*
X215138Y86868D02*
X217678Y91948D01*
X215138Y97028D01*
X220218Y94488D01*
X225298Y97028D01*
X222758Y91948D01*
X225298Y86868D01*
X220218Y89408D01*
X215138Y86868D01*
Y103886D02*
X217678Y108966D01*
X215138Y114046D01*
X220218Y111506D01*
X225298Y114046D01*
X222758Y108966D01*
X225298Y103886D01*
X220218Y106426D01*
X215138Y103886D01*
X226822Y86868D02*
X229362Y91948D01*
X226822Y97028D01*
X231902Y94488D01*
X236982Y97028D01*
X234442Y91948D01*
X236982Y86868D01*
X231902Y89408D01*
X226822Y86868D01*
X151130Y173228D02*
X153670Y178308D01*
X151130Y183388D01*
X156210Y180848D01*
X161290Y183388D01*
X158750Y178308D01*
X161290Y173228D01*
X156210Y175768D01*
X151130Y173228D01*
X173736Y169164D02*
X176276Y174244D01*
X173736Y179324D01*
X178816Y176784D01*
X183896Y179324D01*
X181356Y174244D01*
X183896Y169164D01*
X178816Y171704D01*
X173736Y169164D01*
X214884Y170434D02*
X217424Y175514D01*
X214884Y180594D01*
X219964Y178054D01*
X225044Y180594D01*
X222504Y175514D01*
X225044Y170434D01*
X219964Y172974D01*
X214884Y170434D01*
X250952Y152146D02*
X253492Y157226D01*
X250952Y162306D01*
X256032Y159766D01*
X261112Y162306D01*
X258572Y157226D01*
X261112Y152146D01*
X256032Y154686D01*
X250952Y152146D01*
X307340Y166624D02*
X309880Y171704D01*
X307340Y176784D01*
X312420Y174244D01*
X317500Y176784D01*
X314960Y171704D01*
X317500Y166624D01*
X312420Y169164D01*
X307340Y166624D01*
Y154432D02*
X309880Y159512D01*
X307340Y164592D01*
X312420Y162052D01*
X317500Y164592D01*
X314960Y159512D01*
X317500Y154432D01*
X312420Y156972D01*
X307340Y154432D01*
X317500Y139446D02*
X320040Y144526D01*
X317500Y149606D01*
X322580Y147066D01*
X327660Y149606D01*
X325120Y144526D01*
X327660Y139446D01*
X322580Y141986D01*
X317500Y139446D01*
X395478Y107950D02*
X398018Y113030D01*
X395478Y118110D01*
X400558Y115570D01*
X405638Y118110D01*
X403098Y113030D01*
X405638Y107950D01*
X400558Y110490D01*
X395478Y107950D01*
X69850Y27940D02*
X72390Y33020D01*
X69850Y38100D01*
X74930Y35560D01*
X80010Y38100D01*
X77470Y33020D01*
X80010Y27940D01*
X74930Y30480D01*
X69850Y27940D01*
X112420Y113030D02*
X114960Y118110D01*
X112420Y123190D01*
X117500Y120650D01*
X122580Y123190D01*
X120040Y118110D01*
X122580Y113030D01*
X117500Y115570D01*
X112420Y113030D01*
X45974Y157734D02*
X48514Y162814D01*
X45974Y167894D01*
X51054Y165354D01*
X56134Y167894D01*
X53594Y162814D01*
X56134Y157734D01*
X51054Y160274D01*
X45974Y157734D01*
X80264Y138176D02*
X82804Y143256D01*
X80264Y148336D01*
X85344Y145796D01*
X90424Y148336D01*
X87884Y143256D01*
X90424Y138176D01*
X85344Y140716D01*
X80264Y138176D01*
X212410Y130810D02*
X214950Y135890D01*
X212410Y140970D01*
X217490Y138430D01*
X222570Y140970D01*
X220030Y135890D01*
X222570Y130810D01*
X217490Y133350D01*
X212410Y130810D01*
X203708Y86868D02*
X206248Y91948D01*
X203708Y97028D01*
X208788Y94488D01*
X213868Y97028D01*
X211328Y91948D01*
X213868Y86868D01*
X208788Y89408D01*
X203708Y86868D01*
X178308Y78380D02*
X180848Y83460D01*
X178308Y88540D01*
X183388Y86000D01*
X188468Y88540D01*
X185928Y83460D01*
X188468Y78380D01*
X183388Y80920D01*
X178308Y78380D01*
X333756Y136652D02*
X336296Y141732D01*
X333756Y146812D01*
X338836Y144272D01*
X343916Y146812D01*
X341376Y141732D01*
X343916Y136652D01*
X338836Y139192D01*
X333756Y136652D01*
X375412Y169164D02*
X377952Y174244D01*
X375412Y179324D01*
X380492Y176784D01*
X385572Y179324D01*
X383032Y174244D01*
X385572Y169164D01*
X380492Y171704D01*
X375412Y169164D01*
X420624D02*
X423164Y174244D01*
X420624Y179324D01*
X425704Y176784D01*
X430784Y179324D01*
X428244Y174244D01*
X430784Y169164D01*
X425704Y171704D01*
X420624Y169164D01*
Y8382D02*
X423164Y13462D01*
X420624Y18542D01*
X425704Y16002D01*
X430784Y18542D01*
X428244Y13462D01*
X430784Y8382D01*
X425704Y10922D01*
X420624Y8382D01*
X375412D02*
X377952Y13462D01*
X375412Y18542D01*
X380492Y16002D01*
X385572Y18542D01*
X383032Y13462D01*
X385572Y8382D01*
X380492Y10922D01*
X375412Y8382D01*
X333756D02*
X336296Y13462D01*
X333756Y18542D01*
X338836Y16002D01*
X343916Y18542D01*
X341376Y13462D01*
X343916Y8382D01*
X338836Y10922D01*
X333756Y8382D01*
X433070Y34036D02*
X435610Y39116D01*
X433070Y44196D01*
X438150Y41656D01*
X443230Y44196D01*
X440690Y39116D01*
X443230Y34036D01*
X438150Y36576D01*
X433070Y34036D01*
Y142240D02*
X435610Y147320D01*
X433070Y152400D01*
X438150Y149860D01*
X443230Y152400D01*
X440690Y147320D01*
X443230Y142240D01*
X438150Y144780D01*
X433070Y142240D01*
X319532Y8890D02*
X322072Y13970D01*
X319532Y19050D01*
X324612Y16510D01*
X329692Y19050D01*
X327152Y13970D01*
X329692Y8890D01*
X324612Y11430D01*
X319532Y8890D01*
X244856D02*
X247396Y13970D01*
X244856Y19050D01*
X249936Y16510D01*
X255016Y19050D01*
X252476Y13970D01*
X255016Y8890D01*
X249936Y11430D01*
X244856Y8890D01*
D88*
X68905Y65092D02*
G03*
X68905Y65092I-5080J0D01*
G01*
Y122892D02*
G03*
X68905Y122892I-5080J0D01*
G01*
M02*
