G04*
G04 #@! TF.GenerationSoftware,Altium Limited,Altium Designer,23.0.1 (38)*
G04*
G04 Layer_Physical_Order=3*
G04 Layer_Color=16440176*
%FSLAX44Y44*%
%MOMM*%
G71*
G04*
G04 #@! TF.SameCoordinates,2C3C84F8-FCB8-4575-ACAA-8387C9F7B7E4*
G04*
G04*
G04 #@! TF.FilePolarity,Positive*
G04*
G01*
G75*
%ADD73C,3.0480*%
%ADD74O,1.8000X1.0000*%
%ADD75C,0.6500*%
%ADD76O,2.1000X1.0000*%
%ADD77C,1.6500*%
G04:AMPARAMS|DCode=78|XSize=1.65mm|YSize=1.65mm|CornerRadius=0.4125mm|HoleSize=0mm|Usage=FLASHONLY|Rotation=180.000|XOffset=0mm|YOffset=0mm|HoleType=Round|Shape=RoundedRectangle|*
%AMROUNDEDRECTD78*
21,1,1.6500,0.8250,0,0,180.0*
21,1,0.8250,1.6500,0,0,180.0*
1,1,0.8250,-0.4125,0.4125*
1,1,0.8250,0.4125,0.4125*
1,1,0.8250,0.4125,-0.4125*
1,1,0.8250,-0.4125,-0.4125*
%
%ADD78ROUNDEDRECTD78*%
%ADD79C,0.6096*%
%ADD80C,0.6100*%
%ADD81C,0.3810*%
G36*
X12365Y185611D02*
X12366Y185645D01*
X12442Y185629D01*
X330299Y185629D01*
X330570Y2331D01*
X11723Y2331D01*
X11724Y2349D01*
X9524Y2639D01*
X7176Y3612D01*
X5159Y5159D01*
X3611Y7176D01*
X2639Y9524D01*
X2307Y12044D01*
X2349Y12365D01*
X2315Y12366D01*
X2331Y12442D01*
Y176237D01*
X2349Y176236D01*
X2639Y178436D01*
X3612Y180784D01*
X5159Y182801D01*
X7176Y184349D01*
X9524Y185321D01*
X12044Y185653D01*
X12365Y185611D01*
D02*
G37*
%LPC*%
G36*
X275179Y176022D02*
X273461D01*
X271874Y175365D01*
X270659Y174150D01*
X270002Y172563D01*
Y170845D01*
X270659Y169258D01*
X271874Y168043D01*
X273461Y167386D01*
X275179D01*
X276766Y168043D01*
X277981Y169258D01*
X278638Y170845D01*
Y172563D01*
X277981Y174150D01*
X276766Y175365D01*
X275179Y176022D01*
D02*
G37*
G36*
X23216Y182880D02*
X19964D01*
X16774Y182246D01*
X13770Y181001D01*
X11065Y179194D01*
X8766Y176894D01*
X6959Y174190D01*
X5714Y171186D01*
X5080Y167996D01*
Y164744D01*
X5714Y161554D01*
X6959Y158550D01*
X8766Y155845D01*
X11065Y153546D01*
X13770Y151739D01*
X16774Y150494D01*
X19964Y149860D01*
X23216D01*
X26406Y150494D01*
X29410Y151739D01*
X32115Y153546D01*
X34414Y155845D01*
X36221Y158550D01*
X37466Y161554D01*
X38100Y164744D01*
Y167996D01*
X37466Y171186D01*
X36221Y174190D01*
X34414Y176894D01*
X32115Y179194D01*
X29410Y181001D01*
X26406Y182246D01*
X23216Y182880D01*
D02*
G37*
G36*
X238349Y144272D02*
X236631D01*
X235044Y143615D01*
X233829Y142400D01*
X233172Y140813D01*
Y139095D01*
X233829Y137508D01*
X235044Y136293D01*
X236631Y135636D01*
X238349D01*
X239936Y136293D01*
X241151Y137508D01*
X241808Y139095D01*
Y140813D01*
X241151Y142400D01*
X239936Y143615D01*
X238349Y144272D01*
D02*
G37*
G36*
X173477Y141224D02*
X171759D01*
X170172Y140567D01*
X168957Y139352D01*
X168300Y137765D01*
Y136047D01*
X168957Y134460D01*
X170172Y133245D01*
X171759Y132588D01*
X173477D01*
X175064Y133245D01*
X176279Y134460D01*
X176936Y136047D01*
Y137765D01*
X176279Y139352D01*
X175064Y140567D01*
X173477Y141224D01*
D02*
G37*
G36*
X218349Y140208D02*
X216631D01*
X215044Y139551D01*
X213829Y138336D01*
X213172Y136749D01*
Y135031D01*
X213829Y133444D01*
X215044Y132229D01*
X216631Y131572D01*
X218349D01*
X219936Y132229D01*
X221151Y133444D01*
X221808Y135031D01*
Y136749D01*
X221151Y138336D01*
X219936Y139551D01*
X218349Y140208D01*
D02*
G37*
G36*
X228189Y140210D02*
X226471D01*
X224883Y139552D01*
X223668Y138337D01*
X223010Y136749D01*
Y135031D01*
X223668Y133443D01*
X224883Y132228D01*
X226471Y131570D01*
X228189D01*
X229777Y132228D01*
X230992Y133443D01*
X231650Y135031D01*
Y136749D01*
X230992Y138337D01*
X229777Y139552D01*
X228189Y140210D01*
D02*
G37*
G36*
X74325Y143585D02*
X63325D01*
X60879Y143098D01*
X58805Y141713D01*
X57419Y139639D01*
X56932Y137192D01*
X57419Y134746D01*
X58805Y132672D01*
X60879Y131286D01*
X63325Y130800D01*
X74325D01*
X76771Y131286D01*
X78845Y132672D01*
X80231Y134746D01*
X80718Y137192D01*
X80231Y139639D01*
X78845Y141713D01*
X76771Y143098D01*
X74325Y143585D01*
D02*
G37*
G36*
X31025D02*
X23025D01*
X20579Y143098D01*
X18505Y141713D01*
X17119Y139639D01*
X16632Y137192D01*
X17119Y134746D01*
X18505Y132672D01*
X20579Y131286D01*
X23025Y130800D01*
X31025D01*
X33471Y131286D01*
X35545Y132672D01*
X36931Y134746D01*
X37418Y137192D01*
X36931Y139639D01*
X35545Y141713D01*
X33471Y143098D01*
X31025Y143585D01*
D02*
G37*
G36*
X173325Y129794D02*
X171607D01*
X170020Y129137D01*
X168805Y127922D01*
X168148Y126335D01*
Y124617D01*
X168805Y123030D01*
X170020Y121815D01*
X171607Y121158D01*
X173325D01*
X174912Y121815D01*
X176127Y123030D01*
X176784Y124617D01*
Y126335D01*
X176127Y127922D01*
X174912Y129137D01*
X173325Y129794D01*
D02*
G37*
G36*
X64724Y127412D02*
X62926D01*
X61265Y126724D01*
X59993Y125453D01*
X59305Y123791D01*
Y121993D01*
X59993Y120332D01*
X61265Y119060D01*
X62926Y118372D01*
X64724D01*
X66385Y119060D01*
X67657Y120332D01*
X68345Y121993D01*
Y123791D01*
X67657Y125453D01*
X66385Y126724D01*
X64724Y127412D01*
D02*
G37*
G36*
X173325Y119126D02*
X171607D01*
X170020Y118469D01*
X168805Y117254D01*
X168148Y115667D01*
Y113949D01*
X168805Y112362D01*
X170020Y111147D01*
X171607Y110490D01*
X173325D01*
X174912Y111147D01*
X176127Y112362D01*
X176784Y113949D01*
Y115667D01*
X176127Y117254D01*
X174912Y118469D01*
X173325Y119126D01*
D02*
G37*
G36*
X161031D02*
X159313D01*
X157726Y118469D01*
X156511Y117254D01*
X155854Y115667D01*
Y113949D01*
X156511Y112362D01*
X157726Y111147D01*
X159313Y110490D01*
X161031D01*
X162618Y111147D01*
X163833Y112362D01*
X164490Y113949D01*
Y115667D01*
X163833Y117254D01*
X162618Y118469D01*
X161031Y119126D01*
D02*
G37*
G36*
X147823D02*
X146105D01*
X144518Y118469D01*
X143303Y117254D01*
X142646Y115667D01*
Y113949D01*
X143303Y112362D01*
X144518Y111147D01*
X146105Y110490D01*
X147823D01*
X149410Y111147D01*
X150625Y112362D01*
X151282Y113949D01*
Y115667D01*
X150625Y117254D01*
X149410Y118469D01*
X147823Y119126D01*
D02*
G37*
G36*
X322169Y108310D02*
X320451D01*
X318864Y107653D01*
X317649Y106438D01*
X316992Y104851D01*
Y103133D01*
X317649Y101546D01*
X318864Y100332D01*
X320451Y99674D01*
X322169D01*
X323756Y100332D01*
X324971Y101546D01*
X325628Y103133D01*
Y104851D01*
X324971Y106438D01*
X323756Y107653D01*
X322169Y108310D01*
D02*
G37*
G36*
X261490Y97155D02*
X260226D01*
X259060Y96672D01*
X258166Y95779D01*
X257683Y94612D01*
Y93349D01*
X258166Y92182D01*
X259060Y91288D01*
X260226Y90805D01*
X261490D01*
X262656Y91288D01*
X263550Y92182D01*
X264033Y93349D01*
Y94612D01*
X263550Y95779D01*
X262656Y96672D01*
X261490Y97155D01*
D02*
G37*
G36*
Y82677D02*
X260226D01*
X259060Y82194D01*
X258166Y81300D01*
X257683Y80133D01*
Y78871D01*
X258166Y77703D01*
X259060Y76810D01*
X260226Y76327D01*
X261490D01*
X262656Y76810D01*
X263550Y77703D01*
X264033Y78871D01*
Y80133D01*
X263550Y81300D01*
X262656Y82194D01*
X261490Y82677D01*
D02*
G37*
G36*
X187295Y78740D02*
X185577D01*
X183990Y78083D01*
X182775Y76868D01*
X182118Y75281D01*
Y73563D01*
X182775Y71976D01*
X183990Y70761D01*
X185577Y70104D01*
X187295D01*
X188882Y70761D01*
X190097Y71976D01*
X190754Y73563D01*
Y75281D01*
X190097Y76868D01*
X188882Y78083D01*
X187295Y78740D01*
D02*
G37*
G36*
X64724Y69612D02*
X62926D01*
X61265Y68924D01*
X59993Y67653D01*
X59305Y65991D01*
Y64193D01*
X59993Y62532D01*
X61265Y61260D01*
X62926Y60572D01*
X64724D01*
X66385Y61260D01*
X67657Y62532D01*
X68345Y64193D01*
Y65991D01*
X67657Y67653D01*
X66385Y68924D01*
X64724Y69612D01*
D02*
G37*
G36*
X285443Y66202D02*
X283725D01*
X282138Y65545D01*
X280924Y64330D01*
X280266Y62743D01*
Y61025D01*
X280924Y59438D01*
X282138Y58223D01*
X283725Y57566D01*
X285443D01*
X287030Y58223D01*
X288245Y59438D01*
X288902Y61025D01*
Y62743D01*
X288245Y64330D01*
X287030Y65545D01*
X285443Y66202D01*
D02*
G37*
G36*
X163981Y59050D02*
X163830D01*
Y49530D01*
X173350D01*
Y49681D01*
X172615Y52425D01*
X171194Y54885D01*
X169185Y56894D01*
X166725Y58315D01*
X163981Y59050D01*
D02*
G37*
G36*
X113181D02*
X113030D01*
Y49530D01*
X122550D01*
Y49681D01*
X121815Y52425D01*
X120394Y54885D01*
X118385Y56894D01*
X115925Y58315D01*
X113181Y59050D01*
D02*
G37*
G36*
X189380D02*
X189230D01*
Y49530D01*
X198750D01*
Y49681D01*
X198015Y52425D01*
X196594Y54885D01*
X194585Y56894D01*
X192125Y58315D01*
X189380Y59050D01*
D02*
G37*
G36*
X161290D02*
X161140D01*
X158395Y58315D01*
X155935Y56894D01*
X153926Y54885D01*
X152505Y52425D01*
X151770Y49681D01*
Y49530D01*
X161290D01*
Y59050D01*
D02*
G37*
G36*
X110490D02*
X110339D01*
X107595Y58315D01*
X105135Y56894D01*
X103126Y54885D01*
X101705Y52425D01*
X100970Y49681D01*
Y49530D01*
X110490D01*
Y59050D01*
D02*
G37*
G36*
X186690D02*
X186539D01*
X183795Y58315D01*
X181335Y56894D01*
X179326Y54885D01*
X177905Y52425D01*
X177170Y49681D01*
Y49530D01*
X186690D01*
Y59050D01*
D02*
G37*
G36*
X74325Y57185D02*
X63325D01*
X60879Y56698D01*
X58805Y55313D01*
X57419Y53239D01*
X56932Y50792D01*
X57419Y48346D01*
X58805Y46272D01*
X60879Y44886D01*
X63325Y44399D01*
X74325D01*
X76771Y44886D01*
X78845Y46272D01*
X80231Y48346D01*
X80718Y50792D01*
X80231Y53239D01*
X78845Y55313D01*
X76771Y56698D01*
X74325Y57185D01*
D02*
G37*
G36*
X31025D02*
X23025D01*
X20579Y56698D01*
X18505Y55313D01*
X17119Y53239D01*
X16632Y50792D01*
X17119Y48346D01*
X18505Y46272D01*
X20579Y44886D01*
X23025Y44399D01*
X31025D01*
X33471Y44886D01*
X35545Y46272D01*
X36931Y48346D01*
X37418Y50792D01*
X36931Y53239D01*
X35545Y55313D01*
X33471Y56698D01*
X31025Y57185D01*
D02*
G37*
G36*
X138413Y57780D02*
X135907D01*
X133485Y57131D01*
X131315Y55878D01*
X129542Y54105D01*
X128289Y51935D01*
X127640Y49513D01*
Y47007D01*
X128289Y44585D01*
X129542Y42415D01*
X131315Y40642D01*
X133485Y39389D01*
X135907Y38740D01*
X138413D01*
X140835Y39389D01*
X143005Y40642D01*
X144778Y42415D01*
X146031Y44585D01*
X146680Y47007D01*
Y49513D01*
X146031Y51935D01*
X144778Y54105D01*
X143005Y55878D01*
X140835Y57131D01*
X138413Y57780D01*
D02*
G37*
G36*
X217485Y57886D02*
X209235D01*
X207130Y57467D01*
X205345Y56275D01*
X204153Y54490D01*
X203734Y52385D01*
Y44135D01*
X204153Y42030D01*
X205345Y40245D01*
X207130Y39053D01*
X209235Y38634D01*
X217485D01*
X219590Y39053D01*
X221375Y40245D01*
X222567Y42030D01*
X222986Y44135D01*
Y52385D01*
X222567Y54490D01*
X221375Y56275D01*
X219590Y57467D01*
X217485Y57886D01*
D02*
G37*
G36*
X198750Y46990D02*
X189230D01*
Y37470D01*
X189380D01*
X192125Y38205D01*
X194585Y39626D01*
X196594Y41635D01*
X198015Y44095D01*
X198750Y46839D01*
Y46990D01*
D02*
G37*
G36*
X186690D02*
X177170D01*
Y46839D01*
X177905Y44095D01*
X179326Y41635D01*
X181335Y39626D01*
X183795Y38205D01*
X186539Y37470D01*
X186690D01*
Y46990D01*
D02*
G37*
G36*
X173350D02*
X163830D01*
Y37470D01*
X163981D01*
X166725Y38205D01*
X169185Y39626D01*
X171194Y41635D01*
X172615Y44095D01*
X173350Y46839D01*
Y46990D01*
D02*
G37*
G36*
X161290D02*
X151770D01*
Y46839D01*
X152505Y44095D01*
X153926Y41635D01*
X155935Y39626D01*
X158395Y38205D01*
X161140Y37470D01*
X161290D01*
Y46990D01*
D02*
G37*
G36*
X122550D02*
X113030D01*
Y37470D01*
X113181D01*
X115925Y38205D01*
X118385Y39626D01*
X120394Y41635D01*
X121815Y44095D01*
X122550Y46839D01*
Y46990D01*
D02*
G37*
G36*
X110490D02*
X100970D01*
Y46839D01*
X101705Y44095D01*
X103126Y41635D01*
X105135Y39626D01*
X107595Y38205D01*
X110339Y37470D01*
X110490D01*
Y46990D01*
D02*
G37*
G36*
X214613Y32380D02*
X212107D01*
X209685Y31731D01*
X207515Y30478D01*
X205742Y28705D01*
X204489Y26535D01*
X203840Y24113D01*
Y21607D01*
X204489Y19185D01*
X205742Y17015D01*
X207515Y15242D01*
X209685Y13989D01*
X212107Y13340D01*
X214613D01*
X217035Y13989D01*
X219205Y15242D01*
X220978Y17015D01*
X222231Y19185D01*
X222880Y21607D01*
Y24113D01*
X222231Y26535D01*
X220978Y28705D01*
X219205Y30478D01*
X217035Y31731D01*
X214613Y32380D01*
D02*
G37*
G36*
X189213D02*
X186707D01*
X184285Y31731D01*
X182115Y30478D01*
X180342Y28705D01*
X179089Y26535D01*
X178440Y24113D01*
Y21607D01*
X179089Y19185D01*
X180342Y17015D01*
X182115Y15242D01*
X184285Y13989D01*
X186707Y13340D01*
X189213D01*
X191635Y13989D01*
X193805Y15242D01*
X195578Y17015D01*
X196831Y19185D01*
X197480Y21607D01*
Y24113D01*
X196831Y26535D01*
X195578Y28705D01*
X193805Y30478D01*
X191635Y31731D01*
X189213Y32380D01*
D02*
G37*
G36*
X163813D02*
X161307D01*
X158885Y31731D01*
X156715Y30478D01*
X154942Y28705D01*
X153689Y26535D01*
X153040Y24113D01*
Y21607D01*
X153689Y19185D01*
X154942Y17015D01*
X156715Y15242D01*
X158885Y13989D01*
X161307Y13340D01*
X163813D01*
X166235Y13989D01*
X168405Y15242D01*
X170178Y17015D01*
X171431Y19185D01*
X172080Y21607D01*
Y24113D01*
X171431Y26535D01*
X170178Y28705D01*
X168405Y30478D01*
X166235Y31731D01*
X163813Y32380D01*
D02*
G37*
G36*
X138413D02*
X135907D01*
X133485Y31731D01*
X131315Y30478D01*
X129542Y28705D01*
X128289Y26535D01*
X127640Y24113D01*
Y21607D01*
X128289Y19185D01*
X129542Y17015D01*
X131315Y15242D01*
X133485Y13989D01*
X135907Y13340D01*
X138413D01*
X140835Y13989D01*
X143005Y15242D01*
X144778Y17015D01*
X146031Y19185D01*
X146680Y21607D01*
Y24113D01*
X146031Y26535D01*
X144778Y28705D01*
X143005Y30478D01*
X140835Y31731D01*
X138413Y32380D01*
D02*
G37*
G36*
X113013D02*
X110507D01*
X108085Y31731D01*
X105915Y30478D01*
X104142Y28705D01*
X102889Y26535D01*
X102240Y24113D01*
Y21607D01*
X102889Y19185D01*
X104142Y17015D01*
X105915Y15242D01*
X108085Y13989D01*
X110507Y13340D01*
X113013D01*
X115435Y13989D01*
X117605Y15242D01*
X119378Y17015D01*
X120631Y19185D01*
X121280Y21607D01*
Y24113D01*
X120631Y26535D01*
X119378Y28705D01*
X117605Y30478D01*
X115435Y31731D01*
X113013Y32380D01*
D02*
G37*
G36*
X23216Y36576D02*
X19964D01*
X16774Y35942D01*
X13770Y34697D01*
X11065Y32890D01*
X8766Y30591D01*
X6959Y27886D01*
X5714Y24882D01*
X5080Y21692D01*
Y18440D01*
X5714Y15250D01*
X6959Y12246D01*
X8766Y9542D01*
X11065Y7242D01*
X13770Y5435D01*
X16774Y4191D01*
X19964Y3556D01*
X23216D01*
X26406Y4191D01*
X29410Y5435D01*
X32115Y7242D01*
X34414Y9542D01*
X36221Y12246D01*
X37466Y15250D01*
X38100Y18440D01*
Y21692D01*
X37466Y24882D01*
X36221Y27886D01*
X34414Y30591D01*
X32115Y32890D01*
X29410Y34697D01*
X26406Y35942D01*
X23216Y36576D01*
D02*
G37*
%LPD*%
D73*
X21590Y20066D02*
D03*
Y166370D02*
D03*
D74*
X27025Y50792D02*
D03*
Y137192D02*
D03*
D75*
X63825Y65092D02*
D03*
Y122892D02*
D03*
D76*
X68825Y137192D02*
D03*
Y50792D02*
D03*
D77*
X111760Y22860D02*
D03*
X137160D02*
D03*
X111760Y48260D02*
D03*
X137160D02*
D03*
X162560Y22860D02*
D03*
Y48260D02*
D03*
X213360Y22860D02*
D03*
X187960Y48260D02*
D03*
Y22860D02*
D03*
D78*
X213360Y48260D02*
D03*
D79*
X172618Y136906D02*
D03*
X172466Y114808D02*
D03*
Y125476D02*
D03*
X90170Y134112D02*
D03*
X113284Y71374D02*
D03*
X338836Y67310D02*
D03*
X449072Y141986D02*
D03*
Y45466D02*
D03*
X338836Y104140D02*
D03*
X222758Y34290D02*
D03*
X160172Y114808D02*
D03*
X146964D02*
D03*
X274320Y171704D02*
D03*
X319532Y60960D02*
D03*
X287826Y38718D02*
D03*
X251968Y34798D02*
D03*
X237490Y139954D02*
D03*
X276860Y123698D02*
D03*
X289576Y94629D02*
D03*
X295656Y102870D02*
D03*
X231648Y108966D02*
D03*
X284584Y61884D02*
D03*
X338836Y42926D02*
D03*
X380746Y64262D02*
D03*
X380492Y76992D02*
D03*
X338836Y174244D02*
D03*
X274798Y157480D02*
D03*
X321310Y103992D02*
D03*
X283972Y102870D02*
D03*
Y86106D02*
D03*
X295656D02*
D03*
X186436Y74422D02*
D03*
X208788Y108966D02*
D03*
X220218Y91948D02*
D03*
Y108966D02*
D03*
X231902Y91948D02*
D03*
X156210Y178308D02*
D03*
X178816Y174244D02*
D03*
X219964Y175514D02*
D03*
X256032Y157226D02*
D03*
X312420Y171704D02*
D03*
Y159512D02*
D03*
X322580Y144526D02*
D03*
X400558Y113030D02*
D03*
X74930Y33020D02*
D03*
X117500Y118110D02*
D03*
X51054Y162814D02*
D03*
X85344Y143256D02*
D03*
X217490Y135890D02*
D03*
X208788Y91948D02*
D03*
X183388Y83460D02*
D03*
X338836Y141732D02*
D03*
X380492Y174244D02*
D03*
X425704D02*
D03*
Y13462D02*
D03*
X380492D02*
D03*
X338836D02*
D03*
X438150Y39116D02*
D03*
Y147320D02*
D03*
X324612Y13970D02*
D03*
X249936D02*
D03*
D80*
X137738Y77654D02*
D03*
X227330Y135890D02*
D03*
X90170Y62230D02*
D03*
X113030Y106680D02*
D03*
D81*
X260858Y79502D02*
D03*
Y93980D02*
D03*
M02*
