G04*
G04 #@! TF.GenerationSoftware,Altium Limited,Altium Designer,23.0.1 (38)*
G04*
G04 Layer_Color=0*
%FSLAX44Y44*%
%MOMM*%
G71*
G04*
G04 #@! TF.SameCoordinates,2C3C84F8-FCB8-4575-ACAA-8387C9F7B7E4*
G04*
G04*
G04 #@! TF.FilePolarity,Positive*
G04*
G01*
G75*
%ADD82C,0.0500*%
%ADD84C,0.1000*%
D82*
X157560Y35560D02*
X167560D01*
X162560Y30560D02*
Y40560D01*
D84*
X156210Y140758D02*
Y150758D01*
X151210Y145758D02*
X161210D01*
X219990Y95960D02*
Y105960D01*
X214990Y100960D02*
X224990D01*
X327152Y84992D02*
Y94992D01*
X322152Y89992D02*
X332152D01*
X273798Y143510D02*
X283798D01*
X278798Y138510D02*
Y148510D01*
X284576Y93992D02*
X294576D01*
X289576Y88992D02*
Y98992D01*
X90170Y116920D02*
Y126920D01*
X85170Y121920D02*
X95170D01*
X90170Y116920D02*
Y126920D01*
X85170Y121920D02*
X95170D01*
X188040Y149606D02*
X198040D01*
X193040Y144606D02*
Y154606D01*
X199470Y149606D02*
X209470D01*
X204470Y144606D02*
Y154606D01*
X99060Y71492D02*
Y81492D01*
X94060Y76492D02*
X104060D01*
X99060Y101492D02*
Y111492D01*
X94060Y106492D02*
X104060D01*
X96600Y124884D02*
X106600D01*
X101600Y119884D02*
Y129884D01*
X97814Y138256D02*
Y148256D01*
X92814Y143256D02*
X102814D01*
X97814Y138256D02*
Y148256D01*
X92814Y143256D02*
X102814D01*
X86592Y157814D02*
Y167814D01*
X81592Y162814D02*
X91592D01*
X288290Y35640D02*
Y45640D01*
X283290Y40640D02*
X293290D01*
X395558Y97992D02*
X405558D01*
X400558Y92992D02*
Y102992D01*
X263790Y8970D02*
Y18970D01*
X258790Y13970D02*
X268790D01*
X312790Y8970D02*
Y18970D01*
X307790Y13970D02*
X317790D01*
M02*
