G04*
G04 #@! TF.GenerationSoftware,Altium Limited,Altium Designer,23.0.1 (38)*
G04*
G04 Layer_Physical_Order=4*
G04 Layer_Color=16711680*
%FSLAX44Y44*%
%MOMM*%
G71*
G04*
G04 #@! TF.SameCoordinates,2C3C84F8-FCB8-4575-ACAA-8387C9F7B7E4*
G04*
G04*
G04 #@! TF.FilePolarity,Positive*
G04*
G01*
G75*
%ADD16C,0.7620*%
%ADD32R,3.8000X2.0000*%
%ADD67C,0.3810*%
%ADD68C,0.6096*%
%ADD71C,0.1567*%
%ADD73C,3.0480*%
%ADD74O,1.8000X1.0000*%
%ADD75C,0.6500*%
%ADD76O,2.1000X1.0000*%
%ADD77C,1.6500*%
G04:AMPARAMS|DCode=78|XSize=1.65mm|YSize=1.65mm|CornerRadius=0.4125mm|HoleSize=0mm|Usage=FLASHONLY|Rotation=180.000|XOffset=0mm|YOffset=0mm|HoleType=Round|Shape=RoundedRectangle|*
%AMROUNDEDRECTD78*
21,1,1.6500,0.8250,0,0,180.0*
21,1,0.8250,1.6500,0,0,180.0*
1,1,0.8250,-0.4125,0.4125*
1,1,0.8250,0.4125,0.4125*
1,1,0.8250,0.4125,-0.4125*
1,1,0.8250,-0.4125,-0.4125*
%
%ADD78ROUNDEDRECTD78*%
%ADD79C,0.6096*%
%ADD80C,0.6100*%
%ADD81C,0.3810*%
G36*
X12365Y185611D02*
X12366Y185645D01*
X12442Y185629D01*
X330299Y185629D01*
X330570Y2331D01*
X11723Y2331D01*
X11724Y2349D01*
X9524Y2639D01*
X7176Y3612D01*
X5159Y5159D01*
X3611Y7176D01*
X2639Y9524D01*
X2307Y12044D01*
X2349Y12365D01*
X2315Y12366D01*
X2331Y12442D01*
Y176237D01*
X2349Y176236D01*
X2639Y178436D01*
X3612Y180784D01*
X5159Y182801D01*
X7176Y184349D01*
X9524Y185321D01*
X12044Y185653D01*
X12365Y185611D01*
D02*
G37*
%LPC*%
G36*
X157069Y182626D02*
X155351D01*
X153764Y181969D01*
X152549Y180754D01*
X151892Y179167D01*
Y177449D01*
X152549Y175862D01*
X153764Y174647D01*
X155351Y173990D01*
X157069D01*
X158656Y174647D01*
X159871Y175862D01*
X160528Y177449D01*
Y179167D01*
X159871Y180754D01*
X158656Y181969D01*
X157069Y182626D01*
D02*
G37*
G36*
X220823Y179832D02*
X219105D01*
X217518Y179175D01*
X216303Y177960D01*
X215646Y176373D01*
Y174655D01*
X216303Y173068D01*
X217518Y171853D01*
X219105Y171196D01*
X220823D01*
X222410Y171853D01*
X223625Y173068D01*
X224282Y174655D01*
Y176373D01*
X223625Y177960D01*
X222410Y179175D01*
X220823Y179832D01*
D02*
G37*
G36*
X179675Y178562D02*
X177957D01*
X176370Y177905D01*
X175155Y176690D01*
X174498Y175103D01*
Y173385D01*
X175155Y171798D01*
X176370Y170583D01*
X177957Y169926D01*
X179675D01*
X181262Y170583D01*
X182477Y171798D01*
X183134Y173385D01*
Y175103D01*
X182477Y176690D01*
X181262Y177905D01*
X179675Y178562D01*
D02*
G37*
G36*
X313279Y176022D02*
X311561D01*
X309974Y175365D01*
X308759Y174150D01*
X308102Y172563D01*
Y170845D01*
X308759Y169258D01*
X309974Y168043D01*
X311561Y167386D01*
X313279D01*
X314866Y168043D01*
X316081Y169258D01*
X316738Y170845D01*
Y172563D01*
X316081Y174150D01*
X314866Y175365D01*
X313279Y176022D01*
D02*
G37*
G36*
X51913Y167132D02*
X50195D01*
X48608Y166475D01*
X47393Y165260D01*
X46736Y163673D01*
Y161955D01*
X47393Y160368D01*
X48608Y159153D01*
X50195Y158496D01*
X51913D01*
X53500Y159153D01*
X54715Y160368D01*
X55372Y161955D01*
Y163673D01*
X54715Y165260D01*
X53500Y166475D01*
X51913Y167132D01*
D02*
G37*
G36*
X313279Y163830D02*
X311561D01*
X309974Y163173D01*
X308759Y161958D01*
X308102Y160371D01*
Y158653D01*
X308759Y157066D01*
X309974Y155851D01*
X311561Y155194D01*
X313279D01*
X314866Y155851D01*
X316081Y157066D01*
X316738Y158653D01*
Y160371D01*
X316081Y161958D01*
X314866Y163173D01*
X313279Y163830D01*
D02*
G37*
G36*
X275657Y161798D02*
X273939D01*
X272352Y161141D01*
X271137Y159926D01*
X270480Y158339D01*
Y156621D01*
X271137Y155034D01*
X272352Y153819D01*
X273939Y153162D01*
X275657D01*
X277244Y153819D01*
X278458Y155034D01*
X279116Y156621D01*
Y158339D01*
X278458Y159926D01*
X277244Y161141D01*
X275657Y161798D01*
D02*
G37*
G36*
X256891Y161544D02*
X255173D01*
X253586Y160887D01*
X252371Y159672D01*
X251714Y158085D01*
Y156367D01*
X252371Y154780D01*
X253586Y153565D01*
X255173Y152908D01*
X256891D01*
X258478Y153565D01*
X259693Y154780D01*
X260350Y156367D01*
Y158085D01*
X259693Y159672D01*
X258478Y160887D01*
X256891Y161544D01*
D02*
G37*
G36*
X23216Y182880D02*
X19964D01*
X16774Y182246D01*
X13770Y181001D01*
X11065Y179194D01*
X8766Y176894D01*
X6959Y174190D01*
X5714Y171186D01*
X5080Y167996D01*
Y164744D01*
X5714Y161554D01*
X6959Y158550D01*
X8766Y155845D01*
X11065Y153546D01*
X13770Y151739D01*
X16774Y150494D01*
X19964Y149860D01*
X23216D01*
X26406Y150494D01*
X29410Y151739D01*
X32115Y153546D01*
X34414Y155845D01*
X36221Y158550D01*
X37466Y161554D01*
X38100Y164744D01*
Y167996D01*
X37466Y171186D01*
X36221Y174190D01*
X34414Y176894D01*
X32115Y179194D01*
X29410Y181001D01*
X26406Y182246D01*
X23216Y182880D01*
D02*
G37*
G36*
X323439Y148844D02*
X321721D01*
X320134Y148187D01*
X318919Y146972D01*
X318262Y145385D01*
Y143667D01*
X318919Y142080D01*
X320134Y140865D01*
X321721Y140208D01*
X323439D01*
X325026Y140865D01*
X326241Y142080D01*
X326898Y143667D01*
Y145385D01*
X326241Y146972D01*
X325026Y148187D01*
X323439Y148844D01*
D02*
G37*
G36*
X86203Y147574D02*
X84485D01*
X82898Y146917D01*
X81683Y145702D01*
X81026Y144115D01*
Y142397D01*
X81683Y140810D01*
X82898Y139595D01*
X84485Y138938D01*
X86203D01*
X87790Y139595D01*
X89005Y140810D01*
X89662Y142397D01*
Y144115D01*
X89005Y145702D01*
X87790Y146917D01*
X86203Y147574D01*
D02*
G37*
G36*
X228189Y140210D02*
X226471D01*
X224883Y139552D01*
X223668Y138337D01*
X223010Y136749D01*
Y135031D01*
X223156Y134677D01*
X203603Y115124D01*
X185420D01*
X184619Y114964D01*
X183939Y114510D01*
X168699Y99270D01*
X168246Y98591D01*
X168086Y97790D01*
Y70717D01*
X162963Y65594D01*
X102870D01*
X102069Y65434D01*
X101390Y64981D01*
X92500Y56090D01*
X92046Y55411D01*
X91886Y54610D01*
Y30480D01*
X92046Y29679D01*
X92500Y29000D01*
X100119Y21379D01*
X100799Y20926D01*
X101600Y20766D01*
X102465D01*
X102889Y19185D01*
X104142Y17015D01*
X105915Y15242D01*
X108085Y13989D01*
X110507Y13340D01*
X113013D01*
X115435Y13989D01*
X117605Y15242D01*
X119378Y17015D01*
X120631Y19185D01*
X121280Y21607D01*
Y24113D01*
X120631Y26535D01*
X119378Y28705D01*
X117605Y30478D01*
X115435Y31731D01*
X113013Y32380D01*
X110507D01*
X108085Y31731D01*
X105915Y30478D01*
X104142Y28705D01*
X102889Y26535D01*
X102466Y24955D01*
X96074Y31347D01*
Y53743D01*
X103737Y61406D01*
X163830D01*
X164631Y61566D01*
X165310Y62020D01*
X171660Y68369D01*
X172114Y69049D01*
X172274Y69850D01*
Y96923D01*
X186287Y110936D01*
X204470D01*
X204972Y111036D01*
X204470Y109825D01*
Y108107D01*
X205127Y106520D01*
X206342Y105305D01*
X207929Y104648D01*
X209647D01*
X211234Y105305D01*
X212449Y106520D01*
X213106Y108107D01*
Y109825D01*
X212449Y111412D01*
X211234Y112627D01*
X209647Y113284D01*
X207929D01*
X207512Y113111D01*
X226117Y131716D01*
X226471Y131570D01*
X228189D01*
X229777Y132228D01*
X230992Y133443D01*
X231650Y135031D01*
Y136749D01*
X230992Y138337D01*
X229777Y139552D01*
X228189Y140210D01*
D02*
G37*
G36*
X74325Y143585D02*
X63325D01*
X60879Y143098D01*
X58805Y141713D01*
X57419Y139639D01*
X56932Y137192D01*
X57419Y134746D01*
X58805Y132672D01*
X60879Y131286D01*
X63325Y130800D01*
X74325D01*
X76771Y131286D01*
X78845Y132672D01*
X80231Y134746D01*
X80718Y137192D01*
X80231Y139639D01*
X78845Y141713D01*
X76771Y143098D01*
X74325Y143585D01*
D02*
G37*
G36*
X31025D02*
X23025D01*
X20579Y143098D01*
X18505Y141713D01*
X17119Y139639D01*
X16632Y137192D01*
X17119Y134746D01*
X18505Y132672D01*
X20579Y131286D01*
X23025Y130800D01*
X31025D01*
X33471Y131286D01*
X35545Y132672D01*
X36931Y134746D01*
X37418Y137192D01*
X36931Y139639D01*
X35545Y141713D01*
X33471Y143098D01*
X31025Y143585D01*
D02*
G37*
G36*
X91029Y138430D02*
X89311D01*
X87724Y137773D01*
X86509Y136558D01*
X85852Y134971D01*
Y133253D01*
X86509Y131666D01*
X87724Y130451D01*
X89311Y129794D01*
X91029D01*
X92616Y130451D01*
X93831Y131666D01*
X94488Y133253D01*
Y134971D01*
X93831Y136558D01*
X92616Y137773D01*
X91029Y138430D01*
D02*
G37*
G36*
X277719Y128016D02*
X276001D01*
X274414Y127359D01*
X273199Y126144D01*
X272542Y124557D01*
Y122839D01*
X273199Y121252D01*
X274414Y120037D01*
X276001Y119380D01*
X277719D01*
X279306Y120037D01*
X280521Y121252D01*
X281178Y122839D01*
Y124557D01*
X280521Y126144D01*
X279306Y127359D01*
X277719Y128016D01*
D02*
G37*
G36*
X64724Y127412D02*
X62926D01*
X61265Y126724D01*
X59993Y125453D01*
X59305Y123791D01*
Y121993D01*
X59993Y120332D01*
X61265Y119060D01*
X62926Y118372D01*
X64724D01*
X66385Y119060D01*
X67657Y120332D01*
X68345Y121993D01*
Y123791D01*
X67657Y125453D01*
X66385Y126724D01*
X64724Y127412D01*
D02*
G37*
G36*
X118359Y122428D02*
X116641D01*
X115054Y121771D01*
X113839Y120556D01*
X113182Y118969D01*
Y117251D01*
X113839Y115664D01*
X115054Y114449D01*
X116641Y113792D01*
X118359D01*
X119946Y114449D01*
X121161Y115664D01*
X121818Y117251D01*
Y118969D01*
X121161Y120556D01*
X119946Y121771D01*
X118359Y122428D01*
D02*
G37*
G36*
X232507Y113284D02*
X230789D01*
X229202Y112627D01*
X227987Y111412D01*
X227330Y109825D01*
Y108107D01*
X227987Y106520D01*
X229202Y105305D01*
X230789Y104648D01*
X232507D01*
X234094Y105305D01*
X235309Y106520D01*
X235966Y108107D01*
Y109825D01*
X235309Y111412D01*
X234094Y112627D01*
X232507Y113284D01*
D02*
G37*
G36*
X221077D02*
X219359D01*
X217772Y112627D01*
X216557Y111412D01*
X215900Y109825D01*
Y108107D01*
X216557Y106520D01*
X217772Y105305D01*
X219359Y104648D01*
X221077D01*
X222664Y105305D01*
X223879Y106520D01*
X224536Y108107D01*
Y109825D01*
X223879Y111412D01*
X222664Y112627D01*
X221077Y113284D01*
D02*
G37*
G36*
X113889Y111000D02*
X112171D01*
X110583Y110342D01*
X109368Y109127D01*
X108710Y107539D01*
Y105821D01*
X109368Y104233D01*
X110583Y103018D01*
X112171Y102360D01*
X113889D01*
X115477Y103018D01*
X116692Y104233D01*
X117350Y105821D01*
Y107539D01*
X116692Y109127D01*
X115477Y110342D01*
X113889Y111000D01*
D02*
G37*
G36*
X296515Y107188D02*
X294797D01*
X293210Y106531D01*
X291995Y105316D01*
X291338Y103729D01*
Y102011D01*
X291995Y100424D01*
X293210Y99209D01*
X294797Y98552D01*
X296515D01*
X298102Y99209D01*
X299317Y100424D01*
X299974Y102011D01*
Y103729D01*
X299317Y105316D01*
X298102Y106531D01*
X296515Y107188D01*
D02*
G37*
G36*
X284831D02*
X283113D01*
X281526Y106531D01*
X280311Y105316D01*
X279654Y103729D01*
Y102011D01*
X280311Y100424D01*
X281526Y99209D01*
X283113Y98552D01*
X284831D01*
X286418Y99209D01*
X287633Y100424D01*
X288290Y102011D01*
Y103729D01*
X287633Y105316D01*
X286418Y106531D01*
X284831Y107188D01*
D02*
G37*
G36*
X290435Y98947D02*
X288717D01*
X287130Y98290D01*
X285915Y97075D01*
X285258Y95488D01*
Y93770D01*
X285915Y92183D01*
X287130Y90968D01*
X288717Y90311D01*
X290435D01*
X292022Y90968D01*
X293236Y92183D01*
X293894Y93770D01*
Y95488D01*
X293236Y97075D01*
X292022Y98290D01*
X290435Y98947D01*
D02*
G37*
G36*
X232761Y96266D02*
X231043D01*
X229456Y95609D01*
X228241Y94394D01*
X227584Y92807D01*
Y91089D01*
X228241Y89502D01*
X229456Y88287D01*
X231043Y87630D01*
X232761D01*
X234348Y88287D01*
X235563Y89502D01*
X236220Y91089D01*
Y92807D01*
X235563Y94394D01*
X234348Y95609D01*
X232761Y96266D01*
D02*
G37*
G36*
X221077D02*
X219359D01*
X217772Y95609D01*
X216557Y94394D01*
X215900Y92807D01*
Y91089D01*
X216557Y89502D01*
X217772Y88287D01*
X219359Y87630D01*
X221077D01*
X222664Y88287D01*
X223879Y89502D01*
X224536Y91089D01*
Y92807D01*
X223879Y94394D01*
X222664Y95609D01*
X221077Y96266D01*
D02*
G37*
G36*
X209647D02*
X207929D01*
X206342Y95609D01*
X205127Y94394D01*
X204470Y92807D01*
Y91089D01*
X205127Y89502D01*
X206342Y88287D01*
X207929Y87630D01*
X209647D01*
X211234Y88287D01*
X212449Y89502D01*
X213106Y91089D01*
Y92807D01*
X212449Y94394D01*
X211234Y95609D01*
X209647Y96266D01*
D02*
G37*
G36*
X296515Y90424D02*
X294797D01*
X293210Y89767D01*
X291995Y88552D01*
X291338Y86965D01*
Y85247D01*
X291995Y83660D01*
X293210Y82445D01*
X294797Y81788D01*
X296515D01*
X298102Y82445D01*
X299317Y83660D01*
X299974Y85247D01*
Y86965D01*
X299317Y88552D01*
X298102Y89767D01*
X296515Y90424D01*
D02*
G37*
G36*
X284831D02*
X283113D01*
X281526Y89767D01*
X280311Y88552D01*
X279654Y86965D01*
Y85247D01*
X280311Y83660D01*
X281526Y82445D01*
X283113Y81788D01*
X284831D01*
X286418Y82445D01*
X287633Y83660D01*
X288290Y85247D01*
Y86965D01*
X287633Y88552D01*
X286418Y89767D01*
X284831Y90424D01*
D02*
G37*
G36*
X184247Y87778D02*
X182529D01*
X180942Y87121D01*
X179727Y85906D01*
X179070Y84319D01*
Y82601D01*
X179727Y81014D01*
X180942Y79799D01*
X182529Y79142D01*
X184247D01*
X185834Y79799D01*
X187049Y81014D01*
X187706Y82601D01*
Y84319D01*
X187049Y85906D01*
X185834Y87121D01*
X184247Y87778D01*
D02*
G37*
G36*
X261490Y97155D02*
X260226D01*
X259060Y96672D01*
X258166Y95779D01*
X257683Y94612D01*
Y93349D01*
X258166Y92182D01*
X258764Y91584D01*
Y81898D01*
X258166Y81300D01*
X257683Y80133D01*
Y78871D01*
X258166Y77703D01*
X259060Y76810D01*
X260226Y76327D01*
X261490D01*
X262656Y76810D01*
X263550Y77703D01*
X264033Y78871D01*
Y80133D01*
X263550Y81300D01*
X262952Y81898D01*
Y91584D01*
X263550Y92182D01*
X264033Y93349D01*
Y94612D01*
X263550Y95779D01*
X262656Y96672D01*
X261490Y97155D01*
D02*
G37*
G36*
X138597Y81974D02*
X136878D01*
X135291Y81316D01*
X134076Y80101D01*
X133418Y78513D01*
Y76795D01*
X134076Y75207D01*
X135291Y73992D01*
X136878Y73334D01*
X138597D01*
X140185Y73992D01*
X141400Y75207D01*
X142058Y76795D01*
Y78513D01*
X141400Y80101D01*
X140185Y81316D01*
X138597Y81974D01*
D02*
G37*
G36*
X114143Y75692D02*
X112425D01*
X110838Y75035D01*
X109623Y73820D01*
X108966Y72233D01*
Y70515D01*
X109623Y68928D01*
X110838Y67713D01*
X112425Y67056D01*
X114143D01*
X115730Y67713D01*
X116945Y68928D01*
X117602Y70515D01*
Y72233D01*
X116945Y73820D01*
X115730Y75035D01*
X114143Y75692D01*
D02*
G37*
G36*
X64724Y69612D02*
X62926D01*
X61265Y68924D01*
X59993Y67653D01*
X59305Y65991D01*
Y64193D01*
X59993Y62532D01*
X61265Y61260D01*
X62926Y60572D01*
X64724D01*
X66385Y61260D01*
X67657Y62532D01*
X68345Y64193D01*
Y65991D01*
X67657Y67653D01*
X66385Y68924D01*
X64724Y69612D01*
D02*
G37*
G36*
X91029Y66550D02*
X89311D01*
X87723Y65892D01*
X86508Y64677D01*
X85850Y63089D01*
Y61371D01*
X86508Y59783D01*
X87723Y58568D01*
X89311Y57910D01*
X91029D01*
X92617Y58568D01*
X93832Y59783D01*
X94490Y61371D01*
Y63089D01*
X93832Y64677D01*
X92617Y65892D01*
X91029Y66550D01*
D02*
G37*
G36*
X320391Y65278D02*
X318673D01*
X317086Y64621D01*
X315871Y63406D01*
X315214Y61819D01*
Y60101D01*
X315871Y58514D01*
X317086Y57299D01*
X318673Y56642D01*
X320391D01*
X321978Y57299D01*
X323193Y58514D01*
X323850Y60101D01*
Y61819D01*
X323193Y63406D01*
X321978Y64621D01*
X320391Y65278D01*
D02*
G37*
G36*
X217485Y59107D02*
X214630D01*
Y49530D01*
X224207D01*
Y52385D01*
X223978Y54125D01*
X223307Y55746D01*
X222239Y57139D01*
X220846Y58207D01*
X219225Y58878D01*
X217485Y59107D01*
D02*
G37*
G36*
X212090D02*
X209235D01*
X207495Y58878D01*
X205874Y58207D01*
X204482Y57139D01*
X203413Y55746D01*
X202742Y54125D01*
X202512Y52385D01*
Y49530D01*
X212090D01*
Y59107D01*
D02*
G37*
G36*
X74325Y57185D02*
X63325D01*
X60879Y56698D01*
X58805Y55313D01*
X57419Y53239D01*
X56932Y50792D01*
X57419Y48346D01*
X58805Y46272D01*
X60879Y44886D01*
X63325Y44399D01*
X74325D01*
X76771Y44886D01*
X78845Y46272D01*
X80231Y48346D01*
X80718Y50792D01*
X80231Y53239D01*
X78845Y55313D01*
X76771Y56698D01*
X74325Y57185D01*
D02*
G37*
G36*
X31025D02*
X23025D01*
X20579Y56698D01*
X18505Y55313D01*
X17119Y53239D01*
X16632Y50792D01*
X17119Y48346D01*
X18505Y46272D01*
X20579Y44886D01*
X23025Y44399D01*
X31025D01*
X33471Y44886D01*
X35545Y46272D01*
X36931Y48346D01*
X37418Y50792D01*
X36931Y53239D01*
X35545Y55313D01*
X33471Y56698D01*
X31025Y57185D01*
D02*
G37*
G36*
X189213Y57780D02*
X186707D01*
X184285Y57131D01*
X182115Y55878D01*
X180342Y54105D01*
X179089Y51935D01*
X178440Y49513D01*
Y47007D01*
X179089Y44585D01*
X180342Y42415D01*
X182115Y40642D01*
X184285Y39389D01*
X186707Y38740D01*
X189213D01*
X191635Y39389D01*
X193805Y40642D01*
X195578Y42415D01*
X196831Y44585D01*
X197480Y47007D01*
Y49513D01*
X196831Y51935D01*
X195578Y54105D01*
X193805Y55878D01*
X191635Y57131D01*
X189213Y57780D01*
D02*
G37*
G36*
X163813D02*
X161307D01*
X158885Y57131D01*
X156715Y55878D01*
X154942Y54105D01*
X153689Y51935D01*
X153040Y49513D01*
Y47007D01*
X153689Y44585D01*
X154942Y42415D01*
X156715Y40642D01*
X158885Y39389D01*
X161307Y38740D01*
X163813D01*
X166235Y39389D01*
X168405Y40642D01*
X170178Y42415D01*
X171431Y44585D01*
X172080Y47007D01*
Y49513D01*
X171431Y51935D01*
X170178Y54105D01*
X168405Y55878D01*
X166235Y57131D01*
X163813Y57780D01*
D02*
G37*
G36*
X138413D02*
X135907D01*
X133485Y57131D01*
X131315Y55878D01*
X129542Y54105D01*
X128289Y51935D01*
X127640Y49513D01*
Y47007D01*
X128289Y44585D01*
X129542Y42415D01*
X131315Y40642D01*
X133485Y39389D01*
X135907Y38740D01*
X138413D01*
X140835Y39389D01*
X143005Y40642D01*
X144778Y42415D01*
X146031Y44585D01*
X146680Y47007D01*
Y49513D01*
X146031Y51935D01*
X144778Y54105D01*
X143005Y55878D01*
X140835Y57131D01*
X138413Y57780D01*
D02*
G37*
G36*
X113013D02*
X110507D01*
X108085Y57131D01*
X105915Y55878D01*
X104142Y54105D01*
X102889Y51935D01*
X102240Y49513D01*
Y47007D01*
X102889Y44585D01*
X104142Y42415D01*
X105915Y40642D01*
X108085Y39389D01*
X110507Y38740D01*
X113013D01*
X115435Y39389D01*
X117605Y40642D01*
X119378Y42415D01*
X120631Y44585D01*
X121280Y47007D01*
Y49513D01*
X120631Y51935D01*
X119378Y54105D01*
X117605Y55878D01*
X115435Y57131D01*
X113013Y57780D01*
D02*
G37*
G36*
X224207Y46990D02*
X214630D01*
Y37413D01*
X217485D01*
X219225Y37642D01*
X220846Y38313D01*
X222239Y39381D01*
X223307Y40774D01*
X223978Y42395D01*
X224207Y44135D01*
Y46990D01*
D02*
G37*
G36*
X212090D02*
X202512D01*
Y44135D01*
X202742Y42395D01*
X203413Y40774D01*
X204482Y39381D01*
X205874Y38313D01*
X207495Y37642D01*
X209235Y37413D01*
X212090D01*
Y46990D01*
D02*
G37*
G36*
X288685Y43036D02*
X286967D01*
X285380Y42379D01*
X284165Y41164D01*
X283508Y39577D01*
Y37859D01*
X284165Y36272D01*
X285380Y35058D01*
X286967Y34400D01*
X288685D01*
X290272Y35058D01*
X291487Y36272D01*
X292144Y37859D01*
Y39577D01*
X291487Y41164D01*
X290272Y42379D01*
X288685Y43036D01*
D02*
G37*
G36*
X252827Y39116D02*
X251109D01*
X249522Y38459D01*
X248307Y37244D01*
X247650Y35657D01*
Y33939D01*
X248307Y32352D01*
X249522Y31137D01*
X251109Y30480D01*
X252827D01*
X254414Y31137D01*
X255629Y32352D01*
X256286Y33939D01*
Y35657D01*
X255629Y37244D01*
X254414Y38459D01*
X252827Y39116D01*
D02*
G37*
G36*
X223617Y38608D02*
X221899D01*
X220312Y37951D01*
X219097Y36736D01*
X218440Y35149D01*
Y33431D01*
X219097Y31844D01*
X220312Y30629D01*
X221899Y29972D01*
X223617D01*
X225204Y30629D01*
X226419Y31844D01*
X227076Y33431D01*
Y35149D01*
X226419Y36736D01*
X225204Y37951D01*
X223617Y38608D01*
D02*
G37*
G36*
X75789Y37338D02*
X74071D01*
X72484Y36681D01*
X71269Y35466D01*
X70612Y33879D01*
Y32161D01*
X71269Y30574D01*
X72484Y29359D01*
X74071Y28702D01*
X75789D01*
X77376Y29359D01*
X78591Y30574D01*
X79248Y32161D01*
Y33879D01*
X78591Y35466D01*
X77376Y36681D01*
X75789Y37338D01*
D02*
G37*
G36*
X214613Y32380D02*
X212107D01*
X209685Y31731D01*
X207515Y30478D01*
X205742Y28705D01*
X204489Y26535D01*
X203840Y24113D01*
Y21607D01*
X204489Y19185D01*
X205742Y17015D01*
X207515Y15242D01*
X209685Y13989D01*
X212107Y13340D01*
X214613D01*
X217035Y13989D01*
X219205Y15242D01*
X220978Y17015D01*
X222231Y19185D01*
X222880Y21607D01*
Y24113D01*
X222231Y26535D01*
X220978Y28705D01*
X219205Y30478D01*
X217035Y31731D01*
X214613Y32380D01*
D02*
G37*
G36*
X189213D02*
X186707D01*
X184285Y31731D01*
X182115Y30478D01*
X180342Y28705D01*
X179089Y26535D01*
X178440Y24113D01*
Y21607D01*
X179089Y19185D01*
X180342Y17015D01*
X182115Y15242D01*
X184285Y13989D01*
X186707Y13340D01*
X189213D01*
X191635Y13989D01*
X193805Y15242D01*
X195578Y17015D01*
X196831Y19185D01*
X197480Y21607D01*
Y24113D01*
X196831Y26535D01*
X195578Y28705D01*
X193805Y30478D01*
X191635Y31731D01*
X189213Y32380D01*
D02*
G37*
G36*
X163813D02*
X161307D01*
X158885Y31731D01*
X156715Y30478D01*
X154942Y28705D01*
X153689Y26535D01*
X153040Y24113D01*
Y21607D01*
X153689Y19185D01*
X154942Y17015D01*
X156715Y15242D01*
X158885Y13989D01*
X161307Y13340D01*
X163813D01*
X166235Y13989D01*
X168405Y15242D01*
X170178Y17015D01*
X171431Y19185D01*
X172080Y21607D01*
Y24113D01*
X171431Y26535D01*
X170178Y28705D01*
X168405Y30478D01*
X166235Y31731D01*
X163813Y32380D01*
D02*
G37*
G36*
X138413D02*
X135907D01*
X133485Y31731D01*
X131315Y30478D01*
X129542Y28705D01*
X128289Y26535D01*
X127640Y24113D01*
Y21607D01*
X128289Y19185D01*
X129542Y17015D01*
X131315Y15242D01*
X133485Y13989D01*
X135907Y13340D01*
X138413D01*
X140835Y13989D01*
X143005Y15242D01*
X144778Y17015D01*
X146031Y19185D01*
X146680Y21607D01*
Y24113D01*
X146031Y26535D01*
X144778Y28705D01*
X143005Y30478D01*
X140835Y31731D01*
X138413Y32380D01*
D02*
G37*
G36*
X325471Y18288D02*
X323753D01*
X322166Y17631D01*
X320951Y16416D01*
X320294Y14829D01*
Y13111D01*
X320951Y11524D01*
X322166Y10309D01*
X323753Y9652D01*
X325471D01*
X327058Y10309D01*
X328273Y11524D01*
X328930Y13111D01*
Y14829D01*
X328273Y16416D01*
X327058Y17631D01*
X325471Y18288D01*
D02*
G37*
G36*
X250795D02*
X249077D01*
X247490Y17631D01*
X246275Y16416D01*
X245618Y14829D01*
Y13111D01*
X246275Y11524D01*
X247490Y10309D01*
X249077Y9652D01*
X250795D01*
X252382Y10309D01*
X253597Y11524D01*
X254254Y13111D01*
Y14829D01*
X253597Y16416D01*
X252382Y17631D01*
X250795Y18288D01*
D02*
G37*
G36*
X23216Y36576D02*
X19964D01*
X16774Y35942D01*
X13770Y34697D01*
X11065Y32890D01*
X8766Y30591D01*
X6959Y27886D01*
X5714Y24882D01*
X5080Y21692D01*
Y18440D01*
X5714Y15250D01*
X6959Y12246D01*
X8766Y9542D01*
X11065Y7242D01*
X13770Y5435D01*
X16774Y4191D01*
X19964Y3556D01*
X23216D01*
X26406Y4191D01*
X29410Y5435D01*
X32115Y7242D01*
X34414Y9542D01*
X36221Y12246D01*
X37466Y15250D01*
X38100Y18440D01*
Y21692D01*
X37466Y24882D01*
X36221Y27886D01*
X34414Y30591D01*
X32115Y32890D01*
X29410Y34697D01*
X26406Y35942D01*
X23216Y36576D01*
D02*
G37*
%LPD*%
D16*
X442725Y13489D02*
G03*
X449075Y19839I0J6350D01*
G01*
X449097Y167894D02*
G03*
X442747Y174244I-6350J0D01*
G01*
X449075Y19839D02*
Y45493D01*
X425707Y13489D02*
X442725D01*
X380495D02*
X425707D01*
X338839Y42952D02*
Y67337D01*
Y13489D02*
Y42952D01*
Y13489D02*
X380495D01*
X338861Y104140D02*
Y141732D01*
X449097Y141986D02*
Y167894D01*
X380517Y174244D02*
X425729D01*
X338861Y141732D02*
Y174244D01*
X380517D01*
X425729D02*
X442747D01*
D32*
X438150Y120992D02*
D03*
Y66992D02*
D03*
D67*
Y120992D02*
Y147320D01*
D68*
Y39116D02*
Y66992D01*
D71*
X260858Y79502D02*
Y93980D01*
X101600Y22860D02*
X111760D01*
X93980Y30480D02*
Y54610D01*
Y30480D02*
X101600Y22860D01*
X93980Y54610D02*
X102870Y63500D01*
X163830D02*
X170180Y69850D01*
X102870Y63500D02*
X163830D01*
X170180Y97790D02*
X185420Y113030D01*
X170180Y69850D02*
Y97790D01*
X185420Y113030D02*
X204470D01*
X227330Y135890D01*
D73*
X21590Y20066D02*
D03*
Y166370D02*
D03*
D74*
X27025Y50792D02*
D03*
Y137192D02*
D03*
D75*
X63825Y65092D02*
D03*
Y122892D02*
D03*
D76*
X68825Y137192D02*
D03*
Y50792D02*
D03*
D77*
X111760Y22860D02*
D03*
X137160D02*
D03*
X111760Y48260D02*
D03*
X137160D02*
D03*
X162560Y22860D02*
D03*
Y48260D02*
D03*
X213360Y22860D02*
D03*
X187960Y48260D02*
D03*
Y22860D02*
D03*
D78*
X213360Y48260D02*
D03*
D79*
X172618Y136906D02*
D03*
X172466Y114808D02*
D03*
Y125476D02*
D03*
X90170Y134112D02*
D03*
X113284Y71374D02*
D03*
X338836Y67310D02*
D03*
X449072Y141986D02*
D03*
Y45466D02*
D03*
X338836Y104140D02*
D03*
X222758Y34290D02*
D03*
X160172Y114808D02*
D03*
X146964D02*
D03*
X274320Y171704D02*
D03*
X319532Y60960D02*
D03*
X287826Y38718D02*
D03*
X251968Y34798D02*
D03*
X237490Y139954D02*
D03*
X276860Y123698D02*
D03*
X289576Y94629D02*
D03*
X295656Y102870D02*
D03*
X231648Y108966D02*
D03*
X284584Y61884D02*
D03*
X338836Y42926D02*
D03*
X380746Y64262D02*
D03*
X380492Y76992D02*
D03*
X338836Y174244D02*
D03*
X274798Y157480D02*
D03*
X321310Y103992D02*
D03*
X283972Y102870D02*
D03*
Y86106D02*
D03*
X295656D02*
D03*
X186436Y74422D02*
D03*
X208788Y108966D02*
D03*
X220218Y91948D02*
D03*
Y108966D02*
D03*
X231902Y91948D02*
D03*
X156210Y178308D02*
D03*
X178816Y174244D02*
D03*
X219964Y175514D02*
D03*
X256032Y157226D02*
D03*
X312420Y171704D02*
D03*
Y159512D02*
D03*
X322580Y144526D02*
D03*
X400558Y113030D02*
D03*
X74930Y33020D02*
D03*
X117500Y118110D02*
D03*
X51054Y162814D02*
D03*
X85344Y143256D02*
D03*
X217490Y135890D02*
D03*
X208788Y91948D02*
D03*
X183388Y83460D02*
D03*
X338836Y141732D02*
D03*
X380492Y174244D02*
D03*
X425704D02*
D03*
Y13462D02*
D03*
X380492D02*
D03*
X338836D02*
D03*
X438150Y39116D02*
D03*
Y147320D02*
D03*
X324612Y13970D02*
D03*
X249936D02*
D03*
D80*
X137738Y77654D02*
D03*
X227330Y135890D02*
D03*
X90170Y62230D02*
D03*
X113030Y106680D02*
D03*
D81*
X260858Y79502D02*
D03*
Y93980D02*
D03*
M02*
