G04*
G04 #@! TF.GenerationSoftware,Altium Limited,Altium Designer,23.0.1 (38)*
G04*
G04 Layer_Physical_Order=1*
G04 Layer_Color=255*
%FSLAX44Y44*%
%MOMM*%
G71*
G04*
G04 #@! TF.SameCoordinates,2C3C84F8-FCB8-4575-ACAA-8387C9F7B7E4*
G04*
G04*
G04 #@! TF.FilePolarity,Positive*
G04*
G01*
G75*
%ADD10C,0.2540*%
%ADD16C,0.7620*%
G04:AMPARAMS|DCode=17|XSize=0.6mm|YSize=1.016mm|CornerRadius=0.075mm|HoleSize=0mm|Usage=FLASHONLY|Rotation=270.000|XOffset=0mm|YOffset=0mm|HoleType=Round|Shape=RoundedRectangle|*
%AMROUNDEDRECTD17*
21,1,0.6000,0.8660,0,0,270.0*
21,1,0.4500,1.0160,0,0,270.0*
1,1,0.1500,-0.4330,-0.2250*
1,1,0.1500,-0.4330,0.2250*
1,1,0.1500,0.4330,0.2250*
1,1,0.1500,0.4330,-0.2250*
%
%ADD17ROUNDEDRECTD17*%
%ADD18R,1.9062X1.5046*%
G04:AMPARAMS|DCode=19|XSize=0.6mm|YSize=1.15mm|CornerRadius=0.075mm|HoleSize=0mm|Usage=FLASHONLY|Rotation=270.000|XOffset=0mm|YOffset=0mm|HoleType=Round|Shape=RoundedRectangle|*
%AMROUNDEDRECTD19*
21,1,0.6000,1.0000,0,0,270.0*
21,1,0.4500,1.1500,0,0,270.0*
1,1,0.1500,-0.5000,-0.2250*
1,1,0.1500,-0.5000,0.2250*
1,1,0.1500,0.5000,0.2250*
1,1,0.1500,0.5000,-0.2250*
%
%ADD19ROUNDEDRECTD19*%
G04:AMPARAMS|DCode=20|XSize=0.3mm|YSize=1.15mm|CornerRadius=0.0375mm|HoleSize=0mm|Usage=FLASHONLY|Rotation=270.000|XOffset=0mm|YOffset=0mm|HoleType=Round|Shape=RoundedRectangle|*
%AMROUNDEDRECTD20*
21,1,0.3000,1.0750,0,0,270.0*
21,1,0.2250,1.1500,0,0,270.0*
1,1,0.0750,-0.5375,-0.1125*
1,1,0.0750,-0.5375,0.1125*
1,1,0.0750,0.5375,0.1125*
1,1,0.0750,0.5375,-0.1125*
%
%ADD20ROUNDEDRECTD20*%
%ADD21R,0.3000X0.6000*%
%ADD22R,0.6000X0.3000*%
%ADD23R,3.4500X3.4500*%
%ADD24R,0.5000X0.4000*%
%ADD25R,0.5000X0.5000*%
G04:AMPARAMS|DCode=26|XSize=0.6mm|YSize=0.7mm|CornerRadius=0.075mm|HoleSize=0mm|Usage=FLASHONLY|Rotation=180.000|XOffset=0mm|YOffset=0mm|HoleType=Round|Shape=RoundedRectangle|*
%AMROUNDEDRECTD26*
21,1,0.6000,0.5500,0,0,180.0*
21,1,0.4500,0.7000,0,0,180.0*
1,1,0.1500,-0.2250,0.2750*
1,1,0.1500,0.2250,0.2750*
1,1,0.1500,0.2250,-0.2750*
1,1,0.1500,-0.2250,-0.2750*
%
%ADD26ROUNDEDRECTD26*%
%ADD27R,0.5200X0.5200*%
%ADD28R,0.7561X0.2393*%
G04:AMPARAMS|DCode=29|XSize=0.7561mm|YSize=0.2393mm|CornerRadius=0.1196mm|HoleSize=0mm|Usage=FLASHONLY|Rotation=0.000|XOffset=0mm|YOffset=0mm|HoleType=Round|Shape=RoundedRectangle|*
%AMROUNDEDRECTD29*
21,1,0.7561,0.0000,0,0,0.0*
21,1,0.5168,0.2393,0,0,0.0*
1,1,0.2393,0.2584,0.0000*
1,1,0.2393,-0.2584,0.0000*
1,1,0.2393,-0.2584,0.0000*
1,1,0.2393,0.2584,0.0000*
%
%ADD29ROUNDEDRECTD29*%
G04:AMPARAMS|DCode=30|XSize=0.2393mm|YSize=0.7561mm|CornerRadius=0.1196mm|HoleSize=0mm|Usage=FLASHONLY|Rotation=0.000|XOffset=0mm|YOffset=0mm|HoleType=Round|Shape=RoundedRectangle|*
%AMROUNDEDRECTD30*
21,1,0.2393,0.5168,0,0,0.0*
21,1,0.0000,0.7561,0,0,0.0*
1,1,0.2393,0.0000,-0.2584*
1,1,0.2393,0.0000,-0.2584*
1,1,0.2393,0.0000,0.2584*
1,1,0.2393,0.0000,0.2584*
%
%ADD30ROUNDEDRECTD30*%
%ADD31R,0.4725X0.5153*%
%ADD32R,3.8000X2.0000*%
%ADD33R,3.8000X1.4000*%
%ADD34R,0.4500X0.4500*%
G04:AMPARAMS|DCode=35|XSize=0.6mm|YSize=0.7mm|CornerRadius=0.075mm|HoleSize=0mm|Usage=FLASHONLY|Rotation=90.000|XOffset=0mm|YOffset=0mm|HoleType=Round|Shape=RoundedRectangle|*
%AMROUNDEDRECTD35*
21,1,0.6000,0.5500,0,0,90.0*
21,1,0.4500,0.7000,0,0,90.0*
1,1,0.1500,0.2750,0.2250*
1,1,0.1500,0.2750,-0.2250*
1,1,0.1500,-0.2750,-0.2250*
1,1,0.1500,-0.2750,0.2250*
%
%ADD35ROUNDEDRECTD35*%
%ADD36R,0.8000X0.8000*%
%ADD37R,1.2000X0.6000*%
%ADD38R,0.6682X0.6725*%
%ADD39R,0.5000X0.5000*%
%ADD40R,0.7000X0.6500*%
%ADD41R,0.5153X0.4725*%
%ADD42R,0.6000X0.9000*%
%ADD43R,1.5046X1.9062*%
%ADD44R,1.9000X2.4000*%
%ADD45R,0.5200X0.5200*%
%ADD51R,2.7000X2.7000*%
%ADD67C,0.3810*%
%ADD68C,0.6096*%
%ADD69C,0.5080*%
%ADD70C,0.1175*%
%ADD71C,0.1567*%
%ADD72C,0.4572*%
%ADD73C,3.0480*%
%ADD74O,1.8000X1.0000*%
%ADD75C,0.6500*%
%ADD76O,2.1000X1.0000*%
%ADD77C,1.6500*%
G04:AMPARAMS|DCode=78|XSize=1.65mm|YSize=1.65mm|CornerRadius=0.4125mm|HoleSize=0mm|Usage=FLASHONLY|Rotation=180.000|XOffset=0mm|YOffset=0mm|HoleType=Round|Shape=RoundedRectangle|*
%AMROUNDEDRECTD78*
21,1,1.6500,0.8250,0,0,180.0*
21,1,0.8250,1.6500,0,0,180.0*
1,1,0.8250,-0.4125,0.4125*
1,1,0.8250,0.4125,0.4125*
1,1,0.8250,0.4125,-0.4125*
1,1,0.8250,-0.4125,-0.4125*
%
%ADD78ROUNDEDRECTD78*%
%ADD79C,0.6096*%
%ADD80C,0.6100*%
%ADD81C,0.3810*%
G36*
X330299Y185486D02*
X330427Y99060D01*
X328632Y97262D01*
X323408D01*
X323117Y99692D01*
X325628Y102204D01*
Y105781D01*
X323099Y108310D01*
X319521D01*
X318640Y107429D01*
X312928D01*
X311269Y106742D01*
X308356D01*
X308164Y106662D01*
X305772D01*
X305616Y106767D01*
Y110032D01*
X302350D01*
X302245Y110189D01*
Y115357D01*
X301798Y116436D01*
Y138414D01*
X302397Y138716D01*
X304808Y139258D01*
X307326Y138215D01*
X308306D01*
Y144526D01*
Y150837D01*
X307326D01*
X304808Y149794D01*
X304743Y149639D01*
X303372Y148822D01*
X301826Y149462D01*
X297326D01*
X295780Y148822D01*
X295552Y148273D01*
X293012Y148778D01*
Y152721D01*
X295552Y153935D01*
X297326Y153201D01*
X298306D01*
Y159512D01*
X299576D01*
Y160782D01*
X305387D01*
Y162262D01*
X304344Y164780D01*
X304344Y166436D01*
X305387Y168954D01*
Y170434D01*
X299576D01*
Y171704D01*
X298306D01*
Y178015D01*
X297326D01*
X294808Y176972D01*
X294743Y176817D01*
X293372Y176000D01*
X291826Y176640D01*
X287326D01*
X286692Y176378D01*
X274320D01*
X273461Y176022D01*
X272531D01*
X271874Y175365D01*
X271015Y175009D01*
X270659Y174150D01*
X270002Y173493D01*
Y172563D01*
X269646Y171704D01*
X270002Y170845D01*
Y169915D01*
X270659Y169258D01*
X271015Y168399D01*
X271874Y168043D01*
X272531Y167386D01*
X273461D01*
X274320Y167030D01*
X284902D01*
Y159534D01*
X284886Y159496D01*
X285139Y158885D01*
Y156762D01*
X285780Y155216D01*
X286139Y155067D01*
Y147380D01*
X279938D01*
Y148650D01*
X276068D01*
Y143510D01*
Y138370D01*
X279938D01*
Y138370D01*
X282353Y138069D01*
Y120536D01*
X280846Y119529D01*
Y112773D01*
X279576D01*
Y111503D01*
X275531D01*
Y110189D01*
X275427Y110032D01*
X273536D01*
Y106459D01*
X265745D01*
Y106215D01*
X259894D01*
X256078Y110032D01*
X254506Y110683D01*
X253526Y113223D01*
X257604Y117300D01*
X258255Y118872D01*
Y131026D01*
X258782D01*
X260328Y131666D01*
X260968Y133212D01*
Y137712D01*
X260328Y139258D01*
X261145Y140630D01*
X261300Y140694D01*
X262343Y143212D01*
Y144192D01*
X256032D01*
X249721D01*
Y143212D01*
X250764Y140694D01*
X250919Y140630D01*
X251736Y139258D01*
X251096Y137712D01*
Y133212D01*
X251736Y131666D01*
X253282Y131026D01*
X253809D01*
Y119793D01*
X251570Y117553D01*
X249030Y118605D01*
Y122500D01*
X244760D01*
Y118460D01*
X242220D01*
Y122500D01*
X240260D01*
Y128730D01*
X240239D01*
Y136597D01*
X241808Y138165D01*
Y141743D01*
X239279Y144272D01*
X235701D01*
X233172Y141743D01*
Y139749D01*
X230632Y138697D01*
X229119Y140210D01*
X225541D01*
X223956Y138625D01*
X222409Y137944D01*
X220862Y138625D01*
X219279Y140208D01*
X215701D01*
X213172Y137679D01*
Y134101D01*
X214741Y132533D01*
Y128730D01*
X206081D01*
X205279Y131270D01*
X206042Y132032D01*
X206693Y133604D01*
Y136836D01*
X209740D01*
Y147376D01*
X199200D01*
Y147376D01*
X198310D01*
Y147376D01*
X187770D01*
Y136836D01*
X190563D01*
Y131826D01*
X191214Y130254D01*
X194267Y127201D01*
Y121230D01*
X192220D01*
Y115690D01*
Y105690D01*
Y95690D01*
Y87500D01*
X190950D01*
Y84730D01*
X196490D01*
Y82190D01*
X190950D01*
Y80209D01*
X190436D01*
X188492Y79404D01*
X188492Y79404D01*
X187828Y78740D01*
X184647D01*
X182118Y76211D01*
Y72633D01*
X184647Y70104D01*
X188225D01*
X190754Y72633D01*
Y73890D01*
X191575Y74711D01*
X199720D01*
Y73190D01*
X221693D01*
X221730Y70650D01*
X216591Y65511D01*
X181935D01*
X176763Y70683D01*
Y86262D01*
X176174Y87684D01*
X172615Y91243D01*
X171193Y91832D01*
X165606D01*
X158664Y98773D01*
X157438Y99281D01*
Y102810D01*
X142957D01*
X142898Y102810D01*
X140417Y102953D01*
Y107442D01*
X140417Y107442D01*
X139612Y109386D01*
X139612Y109386D01*
X130814Y118184D01*
X130994Y119248D01*
X133717Y120117D01*
X144316Y109518D01*
X145288Y109115D01*
X145288Y109115D01*
X174498D01*
X175470Y109518D01*
X175470Y109518D01*
X178010Y112058D01*
X178010Y112058D01*
X178413Y113030D01*
X178413Y113030D01*
Y139192D01*
X178010Y140164D01*
X178010Y140164D01*
X174454Y143720D01*
X174454Y143720D01*
X173482Y144123D01*
X173482Y144123D01*
X150876Y144123D01*
X150876Y144123D01*
X149904Y143720D01*
X145727Y139543D01*
X145409D01*
Y139225D01*
X142941Y136757D01*
X132334D01*
X132289Y136738D01*
X130126Y137864D01*
X129904Y140402D01*
X134322Y144820D01*
X134725Y145792D01*
X134725Y145792D01*
Y159766D01*
X134725Y159766D01*
X134322Y160738D01*
X131270Y163790D01*
Y164520D01*
X130540D01*
X121368Y173692D01*
X120396Y174095D01*
X120396Y174095D01*
X93472D01*
X92500Y173692D01*
X92097Y172720D01*
Y152908D01*
X92500Y151936D01*
X93931Y150505D01*
X92959Y148158D01*
X88912D01*
Y144526D01*
X94029D01*
Y143256D01*
X95299D01*
Y138354D01*
X96669D01*
Y134366D01*
X96830Y133978D01*
Y132634D01*
X95072Y130822D01*
X94290Y130822D01*
X91440D01*
Y125706D01*
X90170D01*
Y124436D01*
X85268D01*
Y124121D01*
X85006Y124042D01*
X82466Y125926D01*
Y128242D01*
X81423Y130760D01*
X80989Y130940D01*
X79138Y132382D01*
X79781Y133980D01*
X81112Y137192D01*
X79124Y141991D01*
X74325Y143979D01*
X63325D01*
X58526Y141991D01*
X56538Y137192D01*
X58526Y132393D01*
X63026Y130530D01*
X63464Y130100D01*
X64482Y127866D01*
X64239Y127412D01*
X61953D01*
X59305Y124764D01*
Y121020D01*
X61953Y118372D01*
X62832Y116250D01*
X52666Y106084D01*
X51861Y104140D01*
X51861Y104140D01*
Y83820D01*
X51861Y83820D01*
X52666Y81876D01*
X62698Y71843D01*
X61645Y69305D01*
X59305Y66965D01*
Y63220D01*
X61953Y60572D01*
X64239D01*
X64482Y60119D01*
X63464Y57885D01*
X63026Y57455D01*
X58526Y55591D01*
X56538Y50792D01*
X58526Y45993D01*
X63325Y44006D01*
X74325D01*
X79124Y45993D01*
X81112Y50792D01*
X79781Y54004D01*
X79138Y55602D01*
X80989Y57045D01*
X81423Y57224D01*
X82466Y59742D01*
Y60722D01*
X74575D01*
Y63262D01*
X82466D01*
Y64242D01*
X81423Y66760D01*
X81365Y66785D01*
X81761Y67742D01*
Y72242D01*
X83671Y74270D01*
X89428D01*
Y71860D01*
X98649D01*
Y81125D01*
X89428D01*
Y78715D01*
X83795D01*
X81730Y80367D01*
Y82617D01*
X81269Y83938D01*
X82834Y85570D01*
X83023Y85759D01*
X109517D01*
X117158Y78118D01*
X117898Y77811D01*
Y75270D01*
X132438D01*
Y83500D01*
X133708D01*
Y88955D01*
X133814Y89024D01*
X136248Y89734D01*
X138886Y87096D01*
Y87095D01*
X140830Y86290D01*
X142824Y85084D01*
X142898Y83810D01*
X142898Y82230D01*
Y75270D01*
X157438D01*
Y77916D01*
X158664Y78424D01*
X165606Y85365D01*
X169347D01*
X170296Y84417D01*
Y68837D01*
X170885Y67415D01*
X178667Y59633D01*
X180089Y59044D01*
X180166D01*
X181138Y56697D01*
X177170Y52729D01*
Y49530D01*
X187960D01*
X198750D01*
Y52729D01*
X194782Y56697D01*
X195754Y59044D01*
X204576D01*
X205106Y56514D01*
X203396Y52385D01*
Y44135D01*
X205106Y40006D01*
X209235Y38296D01*
X217485D01*
X221614Y40006D01*
X223325Y44135D01*
Y52385D01*
X221614Y56514D01*
X220291Y57062D01*
X220071Y58372D01*
X220112Y59886D01*
X227635Y67409D01*
X227727Y67633D01*
X230267Y67127D01*
Y28941D01*
X226409Y25083D01*
X222880D01*
Y26803D01*
X217303Y32380D01*
X209417D01*
X203840Y26803D01*
Y18917D01*
X209104Y13653D01*
X208662Y11113D01*
X192658D01*
X192216Y13653D01*
X197480Y18917D01*
Y26803D01*
X191903Y32380D01*
X184017D01*
X178440Y26803D01*
Y18917D01*
X184017Y13340D01*
X185737D01*
Y11430D01*
X186388Y9858D01*
X188928Y7318D01*
X190500Y6667D01*
X232410D01*
X233982Y7318D01*
X239062Y12398D01*
X239713Y13970D01*
Y67261D01*
X240673Y67746D01*
X242253Y68040D01*
X247348Y62944D01*
X248920Y62293D01*
X276098D01*
X277670Y62944D01*
X277726Y63001D01*
X280266Y61949D01*
Y60095D01*
X282796Y57566D01*
X286035D01*
X287591Y55531D01*
X285083Y53023D01*
X278560D01*
Y53910D01*
X257020D01*
Y27370D01*
X265567D01*
Y21386D01*
X264930Y19110D01*
X261060D01*
Y13970D01*
Y8830D01*
X264930D01*
Y10100D01*
X271660D01*
Y11747D01*
X278854D01*
Y11220D01*
X279494Y9674D01*
X281040Y9034D01*
X285540D01*
X286973Y9627D01*
X287086Y9674D01*
X289494D01*
X289607Y9627D01*
X291040Y9034D01*
X295540D01*
X297086Y9674D01*
X297726Y11220D01*
Y11747D01*
X304920D01*
Y10100D01*
X311650D01*
Y8830D01*
X315520D01*
Y13970D01*
Y19110D01*
X311650D01*
X311013Y21386D01*
Y27370D01*
X319560D01*
Y53910D01*
X311013D01*
Y58494D01*
X310362Y60066D01*
X301798Y68629D01*
Y71549D01*
X302245Y72628D01*
Y77796D01*
X302350Y77952D01*
X305616D01*
Y81218D01*
X305772Y81323D01*
X310940D01*
X312019Y81770D01*
X313867D01*
X320216Y75421D01*
X321788Y74770D01*
X330463D01*
X330567Y4272D01*
X328772Y2474D01*
X30939Y2474D01*
X29887Y5014D01*
X38100Y13227D01*
Y26905D01*
X28429Y36576D01*
X14751D01*
X5080Y26905D01*
Y17184D01*
X2540Y15485D01*
X2474Y15512D01*
Y174405D01*
X4300Y176172D01*
X4313Y176171D01*
X6502Y181458D01*
X10947Y183299D01*
X11719Y183292D01*
X11852Y183273D01*
X12876Y181007D01*
X12873Y181002D01*
X5080Y173209D01*
Y159531D01*
X14751Y149860D01*
X28429D01*
X38100Y159531D01*
Y173209D01*
X28429Y182880D01*
X16756D01*
X14710Y185015D01*
X14645Y185278D01*
X14637Y185448D01*
X14644Y185486D01*
X330299Y185486D01*
D02*
G37*
G36*
X133350Y159766D02*
Y145792D01*
X128020Y140462D01*
X125916D01*
X117534Y148844D01*
X107188D01*
X106934Y139446D01*
Y136906D01*
X104394Y134366D01*
X98044D01*
Y148336D01*
X93472Y152908D01*
Y172720D01*
X120396D01*
X133350Y159766D01*
D02*
G37*
G36*
X124251Y140183D02*
Y139829D01*
X123040Y137790D01*
X121711Y137790D01*
X118770D01*
Y130750D01*
Y123710D01*
X121711D01*
X123040Y123710D01*
X124251Y121671D01*
Y118110D01*
X124251Y118110D01*
X125056Y116166D01*
X134919Y106303D01*
Y102953D01*
X132438Y102810D01*
X132379Y102810D01*
X117898D01*
Y100268D01*
X117158Y99961D01*
X109423Y92226D01*
X92245D01*
X90403Y94415D01*
Y99314D01*
X90400Y99320D01*
X92008Y101860D01*
X98201D01*
Y100590D01*
X102811D01*
Y106492D01*
X104081D01*
Y107762D01*
X109962D01*
Y112395D01*
X109962D01*
X109780Y114935D01*
X109833Y115062D01*
Y122714D01*
X111438Y123465D01*
X112179Y123710D01*
X116230D01*
Y129480D01*
X111960D01*
Y124438D01*
X109479Y123918D01*
X109420Y123918D01*
X108063Y125275D01*
X107103Y126318D01*
X106437Y128338D01*
X106370Y128659D01*
Y134398D01*
X107906Y135934D01*
X108309Y136906D01*
X108309Y136906D01*
Y139428D01*
X108526Y147469D01*
X116965D01*
X124251Y140183D01*
D02*
G37*
G36*
X108458Y122936D02*
Y115062D01*
X74930D01*
Y120904D01*
X97536D01*
X101854Y125222D01*
X106172D01*
X108458Y122936D01*
D02*
G37*
G36*
X173482Y142748D02*
X177038Y139192D01*
Y113030D01*
X174498Y110490D01*
X145288D01*
X132334Y123444D01*
X132334Y135382D01*
X143510D01*
X150876Y142748D01*
X173482Y142748D01*
D02*
G37*
G36*
X306567Y57573D02*
Y53910D01*
X298020D01*
Y27370D01*
X306567D01*
Y17840D01*
X304920D01*
Y16193D01*
X297726D01*
Y16720D01*
X297086Y18266D01*
X295540Y18906D01*
X291040D01*
X289607Y18313D01*
X289494Y18266D01*
X287086D01*
X286973Y18313D01*
X285540Y18906D01*
X281040D01*
X279494Y18266D01*
X278854Y16720D01*
Y16193D01*
X271660D01*
Y17840D01*
X270013D01*
Y27370D01*
X278560D01*
Y48577D01*
X286004D01*
X287576Y49228D01*
X296147Y57800D01*
X296798Y59372D01*
Y63750D01*
X299338Y64802D01*
X306567Y57573D01*
D02*
G37*
%LPC*%
G36*
X301826Y178015D02*
X300846D01*
Y172974D01*
X305387D01*
Y174454D01*
X304344Y176972D01*
X301826Y178015D01*
D02*
G37*
G36*
X224754Y169896D02*
X221234D01*
Y166376D01*
X224754D01*
Y169896D01*
D02*
G37*
G36*
X218694D02*
X215174D01*
Y166376D01*
X218694D01*
Y169896D01*
D02*
G37*
G36*
X183606D02*
X180086D01*
Y166376D01*
X183606D01*
Y169896D01*
D02*
G37*
G36*
X177546D02*
X174026D01*
Y166376D01*
X177546D01*
Y169896D01*
D02*
G37*
G36*
X81648Y174885D02*
X72854D01*
Y164084D01*
X81648D01*
Y174885D01*
D02*
G37*
G36*
X70314D02*
X61521D01*
Y164084D01*
X70314D01*
Y174885D01*
D02*
G37*
G36*
X168281Y170829D02*
X157480D01*
Y162036D01*
X168281D01*
Y170829D01*
D02*
G37*
G36*
X154940D02*
X144139D01*
Y162036D01*
X154940D01*
Y170829D01*
D02*
G37*
G36*
X224754Y163836D02*
X215174D01*
Y160316D01*
X213043Y159329D01*
X209740D01*
Y162376D01*
X200850D01*
X199200Y162376D01*
X196660Y162376D01*
X187770D01*
Y160585D01*
X185955Y159855D01*
X183606Y161258D01*
Y163836D01*
X174026D01*
Y160316D01*
X175296D01*
Y153586D01*
X182336D01*
Y154883D01*
X187770D01*
Y151836D01*
X196660D01*
X198310Y151836D01*
X200850Y151836D01*
X209740D01*
Y154883D01*
X216444D01*
Y153586D01*
X223484D01*
Y160316D01*
X224754D01*
Y163836D01*
D02*
G37*
G36*
X305387Y158242D02*
X300846D01*
Y153201D01*
X301826D01*
X304344Y154244D01*
X305387Y156762D01*
Y158242D01*
D02*
G37*
G36*
X81648Y161544D02*
X72854D01*
Y150743D01*
X81648D01*
Y161544D01*
D02*
G37*
G36*
X70314D02*
X61521D01*
Y150743D01*
X70314D01*
Y161544D01*
D02*
G37*
G36*
X168281Y159496D02*
X157480D01*
Y150702D01*
X168281D01*
Y159496D01*
D02*
G37*
G36*
X154940D02*
X144139D01*
Y150702D01*
X154940D01*
Y159496D01*
D02*
G37*
G36*
X258782Y151273D02*
X257302D01*
Y146732D01*
X262343D01*
Y147712D01*
X261300Y150230D01*
X258782Y151273D01*
D02*
G37*
G36*
X254762D02*
X253282D01*
X250764Y150230D01*
X249721Y147712D01*
Y146732D01*
X254762D01*
Y151273D01*
D02*
G37*
G36*
X311826Y150837D02*
X310846D01*
Y145796D01*
X315387D01*
Y147276D01*
X314344Y149794D01*
X311826Y150837D01*
D02*
G37*
G36*
X273528Y148650D02*
X269658D01*
Y144780D01*
X273528D01*
Y148650D01*
D02*
G37*
G36*
Y142240D02*
X269658D01*
Y138370D01*
X273528D01*
Y142240D01*
D02*
G37*
G36*
X92759Y141986D02*
X88912D01*
Y138354D01*
X92759D01*
Y141986D01*
D02*
G37*
G36*
X315387Y143256D02*
X310846D01*
Y138215D01*
X311826D01*
X314344Y139258D01*
X315387Y141776D01*
Y143256D01*
D02*
G37*
G36*
X31025Y143979D02*
X23025D01*
X18226Y141991D01*
X16238Y137192D01*
X18226Y132393D01*
X23025Y130406D01*
X31025D01*
X35824Y132393D01*
X37812Y137192D01*
X35824Y141991D01*
X31025Y143979D01*
D02*
G37*
G36*
X88900Y130822D02*
X85268D01*
Y126976D01*
X88900D01*
Y130822D01*
D02*
G37*
G36*
X278306Y118875D02*
X276716Y118216D01*
X275531Y115357D01*
Y114043D01*
X278306D01*
Y118875D01*
D02*
G37*
G36*
X167029Y59050D02*
X163830D01*
Y49530D01*
X173350D01*
Y52729D01*
X167029Y59050D01*
D02*
G37*
G36*
X116229D02*
X113030D01*
Y49530D01*
X122550D01*
Y52729D01*
X116229Y59050D01*
D02*
G37*
G36*
X161290D02*
X158091D01*
X151770Y52729D01*
Y49530D01*
X161290D01*
Y59050D01*
D02*
G37*
G36*
X110490D02*
X107291D01*
X100970Y52729D01*
Y49530D01*
X110490D01*
Y59050D01*
D02*
G37*
G36*
X31025Y57579D02*
X23025D01*
X18226Y55591D01*
X16238Y50792D01*
X18226Y45993D01*
X23025Y44006D01*
X31025D01*
X35824Y45993D01*
X37812Y50792D01*
X35824Y55591D01*
X31025Y57579D01*
D02*
G37*
G36*
X141103Y57780D02*
X133217D01*
X127640Y52203D01*
Y44317D01*
X133217Y38740D01*
X141103D01*
X146680Y44317D01*
Y52203D01*
X141103Y57780D01*
D02*
G37*
G36*
X198750Y46990D02*
X189230D01*
Y37470D01*
X192429D01*
X198750Y43791D01*
Y46990D01*
D02*
G37*
G36*
X186690D02*
X177170D01*
Y43791D01*
X183491Y37470D01*
X186690D01*
Y46990D01*
D02*
G37*
G36*
X173350D02*
X163830D01*
Y37470D01*
X167029D01*
X173350Y43791D01*
Y46990D01*
D02*
G37*
G36*
X161290D02*
X151770D01*
Y43791D01*
X158091Y37470D01*
X161290D01*
Y46990D01*
D02*
G37*
G36*
X122550D02*
X113030D01*
Y37470D01*
X116229D01*
X122550Y43791D01*
Y46990D01*
D02*
G37*
G36*
X110490D02*
X100970D01*
Y43791D01*
X107291Y37470D01*
X110490D01*
Y46990D01*
D02*
G37*
G36*
X91650Y38831D02*
X90170D01*
Y34290D01*
X95211D01*
Y35270D01*
X94168Y37788D01*
X91650Y38831D01*
D02*
G37*
G36*
X87630D02*
X86150D01*
X83632Y37788D01*
X82589Y35270D01*
Y34290D01*
X87630D01*
Y38831D01*
D02*
G37*
G36*
X115703Y32380D02*
X107817D01*
X102240Y26803D01*
Y25163D01*
X94904D01*
X94571Y25841D01*
X94168Y28252D01*
X95211Y30770D01*
Y31750D01*
X88900D01*
X82589D01*
Y30770D01*
X83632Y28252D01*
X83787Y28188D01*
X84604Y26816D01*
X83964Y25270D01*
Y20770D01*
X84604Y19224D01*
X86150Y18584D01*
X91650D01*
X93196Y19224D01*
X93815Y20717D01*
X102240D01*
Y18917D01*
X107817Y13340D01*
X115703D01*
X121280Y18917D01*
Y26803D01*
X115703Y32380D01*
D02*
G37*
G36*
X318060Y19110D02*
Y15240D01*
X321930D01*
Y19110D01*
X318060D01*
D02*
G37*
G36*
X258520D02*
X254650D01*
Y15240D01*
X258520D01*
Y19110D01*
D02*
G37*
G36*
X166503Y32380D02*
X158617D01*
X153040Y26803D01*
Y18917D01*
X158617Y13340D01*
X166503D01*
X172080Y18917D01*
Y26803D01*
X166503Y32380D01*
D02*
G37*
G36*
X141103D02*
X133217D01*
X127640Y26803D01*
Y18917D01*
X133217Y13340D01*
X141103D01*
X146680Y18917D01*
Y26803D01*
X141103Y32380D01*
D02*
G37*
G36*
X321930Y12700D02*
X318060D01*
Y8830D01*
X321930D01*
Y12700D01*
D02*
G37*
G36*
X258520D02*
X254650D01*
Y8830D01*
X258520D01*
Y12700D01*
D02*
G37*
G36*
X116230Y137790D02*
X111960D01*
Y132020D01*
X116230D01*
Y137790D01*
D02*
G37*
G36*
X109962Y105222D02*
X105351D01*
Y100590D01*
X109962D01*
Y105222D01*
D02*
G37*
%LPD*%
D10*
X109861Y154553D02*
X113925Y150489D01*
X107853Y154553D02*
X109861D01*
X105664Y156742D02*
Y158750D01*
X113925Y150489D02*
X119259D01*
X105664Y158750D02*
X127000D01*
X105664Y156742D02*
X107853Y154553D01*
X101600Y158750D02*
X105664D01*
X101600Y162814D02*
X105664Y158750D01*
X294576Y98992D02*
X308356D01*
X294576Y102806D02*
Y112773D01*
X289576Y94629D02*
Y97806D01*
Y93992D02*
Y94629D01*
X294576Y102806D02*
X294640Y102870D01*
X289576Y97806D02*
X294576Y102806D01*
X237490Y124460D02*
Y139954D01*
X276860Y122736D02*
X279502Y120094D01*
Y115283D02*
Y120094D01*
X276860Y122736D02*
Y123698D01*
X54610Y83820D02*
Y104140D01*
X67209Y116739D01*
X73322D01*
X289576Y75212D02*
Y93992D01*
X127000Y118110D02*
Y142748D01*
X119259Y150489D02*
X127000Y142748D01*
Y118110D02*
X137668Y107442D01*
Y92202D02*
Y107442D01*
Y92202D02*
X140830Y89040D01*
X150168D01*
X54610Y83820D02*
X67197Y71233D01*
X73334D01*
X74575Y69992D01*
X73322Y116739D02*
X74646Y118063D01*
X90099D02*
X90170Y118134D01*
X74646Y118063D02*
X90099D01*
X90170Y118134D02*
X101600D01*
X284584Y70266D02*
Y75203D01*
X308356Y103992D02*
X312928D01*
X289576Y117840D02*
X289591Y117825D01*
Y115283D02*
Y117825D01*
X187398Y74422D02*
X190436Y77460D01*
X202490D01*
X186436Y74422D02*
X187398D01*
X183388Y83460D02*
X196490D01*
X217490Y124460D02*
Y135890D01*
X243276Y118246D02*
X243490Y118460D01*
X228192Y116940D02*
X237590D01*
X220218Y108966D02*
X228192Y116940D01*
X237590D02*
X238896Y118246D01*
X243276D01*
D16*
X442722Y13462D02*
G03*
X449072Y19812I0J6350D01*
G01*
Y167894D02*
G03*
X442722Y174244I-6350J0D01*
G01*
X425704Y13462D02*
X442722D01*
X449072Y141986D02*
Y167894D01*
X425704Y174244D02*
X442722D01*
X338836Y141732D02*
Y174244D01*
Y104140D02*
Y141732D01*
Y42926D02*
Y67310D01*
Y13462D02*
Y42926D01*
X449072Y19812D02*
Y45466D01*
X380492Y174244D02*
X425704D01*
X338836D02*
X380492D01*
Y13462D02*
X425704D01*
X338836D02*
X380492D01*
D17*
X74575Y125992D02*
D03*
Y61992D02*
D03*
D18*
X156210Y130750D02*
D03*
Y160766D02*
D03*
D19*
X74575Y69992D02*
D03*
Y117992D02*
D03*
D20*
Y76492D02*
D03*
Y81492D02*
D03*
Y111492D02*
D03*
Y106492D02*
D03*
Y101492D02*
D03*
Y86492D02*
D03*
Y91492D02*
D03*
Y96492D02*
D03*
D21*
X237490Y124460D02*
D03*
X232490D02*
D03*
X227490D02*
D03*
X222490D02*
D03*
X217490D02*
D03*
X212490D02*
D03*
X207490D02*
D03*
X202490D02*
D03*
Y77460D02*
D03*
X207490D02*
D03*
X212490D02*
D03*
X217490D02*
D03*
X222490D02*
D03*
X227490D02*
D03*
X232490D02*
D03*
X237490D02*
D03*
D22*
X243490Y83460D02*
D03*
Y88460D02*
D03*
Y93460D02*
D03*
Y98460D02*
D03*
Y103460D02*
D03*
Y108460D02*
D03*
Y113460D02*
D03*
Y118460D02*
D03*
X196490D02*
D03*
Y113460D02*
D03*
Y108460D02*
D03*
Y103460D02*
D03*
Y98460D02*
D03*
Y93460D02*
D03*
Y88460D02*
D03*
Y83460D02*
D03*
D23*
X219990Y100960D02*
D03*
D24*
X327152Y85992D02*
D03*
Y93992D02*
D03*
D25*
X336042Y85992D02*
D03*
Y76992D02*
D03*
D26*
X366180Y64262D02*
D03*
X356180D02*
D03*
Y76992D02*
D03*
X366180D02*
D03*
X289576Y159512D02*
D03*
X299576D02*
D03*
X289576Y171704D02*
D03*
X299576D02*
D03*
Y144526D02*
D03*
X309576D02*
D03*
X389810Y93992D02*
D03*
X379810D02*
D03*
X293290Y13970D02*
D03*
X283290D02*
D03*
D27*
X282798Y143510D02*
D03*
X274798D02*
D03*
X259790Y13970D02*
D03*
X267790D02*
D03*
X316790D02*
D03*
X308790D02*
D03*
D28*
X270795Y103992D02*
D03*
D29*
Y98992D02*
D03*
Y93992D02*
D03*
Y88992D02*
D03*
Y83992D02*
D03*
X308356D02*
D03*
Y88992D02*
D03*
Y93992D02*
D03*
Y98992D02*
D03*
Y103992D02*
D03*
D30*
X279576Y75212D02*
D03*
X284576D02*
D03*
X289576D02*
D03*
X294576D02*
D03*
X299576D02*
D03*
Y112773D02*
D03*
X294576D02*
D03*
X289576D02*
D03*
X284576D02*
D03*
X279576D02*
D03*
D31*
X90170Y118134D02*
D03*
Y125706D02*
D03*
D32*
X438150Y66992D02*
D03*
Y120992D02*
D03*
D33*
Y93992D02*
D03*
D34*
X219964Y165106D02*
D03*
Y157106D02*
D03*
X178816Y165106D02*
D03*
Y157106D02*
D03*
D35*
X256032Y145462D02*
D03*
Y135462D02*
D03*
X88900Y23020D02*
D03*
Y33020D02*
D03*
D36*
X193040Y142106D02*
D03*
Y157106D02*
D03*
X204470Y142106D02*
D03*
Y157106D02*
D03*
D37*
X125168Y98540D02*
D03*
Y89040D02*
D03*
Y79540D02*
D03*
X150168D02*
D03*
Y89040D02*
D03*
Y98540D02*
D03*
D38*
X94038Y76492D02*
D03*
X104081D02*
D03*
X94038Y106492D02*
D03*
X104081D02*
D03*
D39*
X368990Y93992D02*
D03*
X359990D02*
D03*
D40*
X101600Y131634D02*
D03*
Y118134D02*
D03*
D41*
X94029Y143256D02*
D03*
X101600D02*
D03*
D42*
X127000Y158750D02*
D03*
X136500Y130750D02*
D03*
X117500D02*
D03*
D43*
X71584Y162814D02*
D03*
X101600D02*
D03*
D44*
X267790Y40640D02*
D03*
X308790D02*
D03*
D45*
X400558Y101992D02*
D03*
Y93992D02*
D03*
D51*
X289576D02*
D03*
D67*
X74862Y125706D02*
X90170D01*
Y134112D01*
X104081Y76471D02*
X108741Y71811D01*
X112847D02*
X113284Y71374D01*
X108741Y71811D02*
X112847D01*
X104081Y76471D02*
Y76492D01*
X74575Y125992D02*
X74862Y125706D01*
X438150Y120992D02*
Y147320D01*
X137738Y77654D02*
Y85274D01*
X125497Y88711D02*
X134301D01*
X137738Y85274D01*
X125168Y89040D02*
X125497Y88711D01*
X85344Y143256D02*
X94029D01*
X74575Y61992D02*
X74694Y62111D01*
X90051D02*
X90170Y62230D01*
X104175Y106586D02*
X112936D01*
X104081Y106492D02*
X104175Y106586D01*
X112936D02*
X113030Y106680D01*
X136500Y130750D02*
X156210D01*
X117500Y118110D02*
Y130750D01*
X74930Y33020D02*
X88900D01*
X284584Y61884D02*
Y70266D01*
X312928Y103992D02*
X321310D01*
X289576Y117840D02*
Y159512D01*
D68*
X146964Y114808D02*
X160172D01*
X172466D01*
X172618Y125476D02*
Y136906D01*
X172466Y114808D02*
Y125476D01*
X172618D01*
X274320Y171704D02*
X289576D01*
X156210Y160766D02*
Y178308D01*
X366180Y64262D02*
X380746D01*
X366180Y76992D02*
X380492D01*
X289576Y159512D02*
Y171704D01*
X289560Y159496D02*
X289576Y159512D01*
X316790Y13970D02*
X324612D01*
X249936D02*
X259790D01*
X438150Y39116D02*
Y66992D01*
X309576Y144526D02*
X322580D01*
X299576Y171704D02*
X312420D01*
X299576Y159512D02*
X312420D01*
D69*
X101600Y140462D02*
Y158750D01*
Y162814D01*
X289576Y93992D02*
X294576Y98992D01*
X74694Y62111D02*
X90051D01*
X101600Y131634D02*
Y140462D01*
X400558Y101992D02*
Y113030D01*
X51054Y162814D02*
X71584D01*
D70*
X87703Y93726D02*
X88392Y94415D01*
X80913Y91492D02*
X83146Y93726D01*
X88392Y94415D02*
Y99314D01*
X83146Y93726D02*
X87703D01*
X82190Y90215D02*
X110256D01*
X82190Y87770D02*
X110350D01*
X86214Y101492D02*
X88392Y99314D01*
X74575Y101492D02*
X86214D01*
X74575Y91492D02*
X80913D01*
X82190Y90215D01*
X80913Y86492D02*
X82190Y87770D01*
X74575Y86492D02*
X80913D01*
X60198Y93925D02*
X62766Y96492D01*
X74575D01*
X60198Y88900D02*
Y93925D01*
X62606Y86492D02*
X74575D01*
X60198Y88900D02*
X62606Y86492D01*
X110256Y90215D02*
X118580Y98540D01*
X125168D01*
X110350Y87770D02*
X118580Y79540D01*
X125168D01*
X171193Y89821D02*
X174752Y86262D01*
X170180Y87376D02*
X172307Y85249D01*
Y68837D02*
Y85249D01*
X174752Y69850D02*
X181102Y63500D01*
X174752Y69850D02*
Y86262D01*
X172307Y68837D02*
X180089Y61055D01*
X164773Y87376D02*
X170180D01*
X164773Y89821D02*
X171193D01*
X157243Y97351D02*
X164773Y89821D01*
X157243Y79846D02*
X164773Y87376D01*
X180089Y61055D02*
X218437D01*
X181102Y63500D02*
X217424D01*
X218437Y61055D02*
X226213Y68830D01*
X217424Y63500D02*
X223767Y69843D01*
X150474Y79846D02*
X157243D01*
X150168Y79540D02*
X150474Y79846D01*
X151356Y97351D02*
X157243D01*
X150168Y98540D02*
X151356Y97351D01*
X222490Y75960D02*
X223767Y74683D01*
X222490Y75960D02*
Y77460D01*
X223767Y69843D02*
Y74683D01*
X226213D02*
X227490Y75960D01*
Y77460D01*
X226213Y68830D02*
Y74683D01*
D71*
X258974Y103992D02*
X270795D01*
X293290Y13970D02*
X308790D01*
X267790D02*
X283290D01*
X308790D02*
Y40640D01*
X267790Y13970D02*
Y40640D01*
X192786Y131826D02*
Y141852D01*
X243558Y88392D02*
X247396D01*
X256286Y79502D02*
X260858D01*
X247396Y88392D02*
X256286Y79502D01*
X243490Y88460D02*
X243558Y88392D01*
X222490Y131050D02*
X227330Y135890D01*
X222490Y124460D02*
Y131050D01*
X237490Y13970D02*
Y77460D01*
X213360Y22860D02*
X227330D01*
X232490Y28020D02*
Y77460D01*
X227330Y22860D02*
X232490Y28020D01*
X232410Y8890D02*
X237490Y13970D01*
X190500Y8890D02*
X232410D01*
X187960Y11430D02*
X190500Y8890D01*
X204470Y133604D02*
Y142106D01*
X202490Y131624D02*
X204470Y133604D01*
X202490Y124460D02*
Y131624D01*
X192786Y141852D02*
X193040Y142106D01*
X196490Y118460D02*
Y128122D01*
X192786Y131826D02*
X196490Y128122D01*
X74575Y76492D02*
X94038D01*
X74575Y106492D02*
X94038D01*
X88900Y23020D02*
X88980Y22940D01*
X111680D01*
X111760Y22860D01*
X187960Y11430D02*
Y22860D01*
X178816Y157106D02*
X193040D01*
X204470D02*
X219964D01*
X250620Y113460D02*
X256032Y118872D01*
Y135462D01*
X243490Y113460D02*
X250620D01*
X248758Y98460D02*
X258226Y88992D01*
X270795D01*
X243490Y98460D02*
X248758D01*
X243502Y93472D02*
X248158D01*
X257638Y83992D02*
X270795D01*
X248158Y93472D02*
X257638Y83992D01*
X243490Y69946D02*
X248920Y64516D01*
X276098D01*
X243490Y69946D02*
Y83460D01*
X276098Y64516D02*
X279654Y68072D01*
Y75134D01*
X279576Y75212D02*
X279654Y75134D01*
X299576Y67708D02*
X308790Y58494D01*
Y40640D02*
Y58494D01*
X299576Y67708D02*
Y75212D01*
X267790Y42084D02*
X276507Y50800D01*
X286004D01*
X267790Y40640D02*
Y42084D01*
X294576Y59372D02*
Y75212D01*
X286004Y50800D02*
X294576Y59372D01*
X260858Y93980D02*
X260870Y93992D01*
X270795D01*
X321788Y76992D02*
X336042D01*
X314788Y83992D02*
X321788Y76992D01*
X308356Y83992D02*
X314788D01*
X315376Y88992D02*
X318376Y85992D01*
X308356Y88992D02*
X315376D01*
X308356Y93992D02*
X327152D01*
X309372D02*
X359990D01*
X318376Y85992D02*
X327152D01*
X336042D01*
Y76992D02*
X356180D01*
Y64262D02*
Y76992D01*
X400558Y93992D02*
X438150D01*
X389810D02*
X400558D01*
X368990D02*
X379810D01*
X284576Y112773D02*
Y141732D01*
X282798Y143510D02*
X284576Y141732D01*
X299576Y112773D02*
Y144526D01*
X256354Y98992D02*
X270795D01*
X243490Y93460D02*
X243502Y93472D01*
X251886Y103460D02*
X256354Y98992D01*
X243490Y103460D02*
X251886D01*
X254506Y108460D02*
X258974Y103992D01*
X243490Y108460D02*
X254506D01*
D72*
X178816Y165106D02*
Y174244D01*
X274798Y143510D02*
Y157480D01*
X256032Y145462D02*
Y157226D01*
X219964Y165106D02*
Y175514D01*
D73*
X21590Y20066D02*
D03*
Y166370D02*
D03*
D74*
X27025Y50792D02*
D03*
Y137192D02*
D03*
D75*
X63825Y65092D02*
D03*
Y122892D02*
D03*
D76*
X68825Y137192D02*
D03*
Y50792D02*
D03*
D77*
X111760Y22860D02*
D03*
X137160D02*
D03*
X111760Y48260D02*
D03*
X137160D02*
D03*
X162560Y22860D02*
D03*
Y48260D02*
D03*
X213360Y22860D02*
D03*
X187960Y48260D02*
D03*
Y22860D02*
D03*
D78*
X213360Y48260D02*
D03*
D79*
X172618Y136906D02*
D03*
X172466Y114808D02*
D03*
Y125476D02*
D03*
X90170Y134112D02*
D03*
X113284Y71374D02*
D03*
X338836Y67310D02*
D03*
X449072Y141986D02*
D03*
Y45466D02*
D03*
X338836Y104140D02*
D03*
X222758Y34290D02*
D03*
X160172Y114808D02*
D03*
X146964D02*
D03*
X274320Y171704D02*
D03*
X319532Y60960D02*
D03*
X287826Y38718D02*
D03*
X251968Y34798D02*
D03*
X237490Y139954D02*
D03*
X276860Y123698D02*
D03*
X289576Y94629D02*
D03*
X295656Y102870D02*
D03*
X231648Y108966D02*
D03*
X284584Y61884D02*
D03*
X338836Y42926D02*
D03*
X380746Y64262D02*
D03*
X380492Y76992D02*
D03*
X338836Y174244D02*
D03*
X274798Y157480D02*
D03*
X321310Y103992D02*
D03*
X283972Y102870D02*
D03*
Y86106D02*
D03*
X295656D02*
D03*
X186436Y74422D02*
D03*
X208788Y108966D02*
D03*
X220218Y91948D02*
D03*
Y108966D02*
D03*
X231902Y91948D02*
D03*
X156210Y178308D02*
D03*
X178816Y174244D02*
D03*
X219964Y175514D02*
D03*
X256032Y157226D02*
D03*
X312420Y171704D02*
D03*
Y159512D02*
D03*
X322580Y144526D02*
D03*
X400558Y113030D02*
D03*
X74930Y33020D02*
D03*
X117500Y118110D02*
D03*
X51054Y162814D02*
D03*
X85344Y143256D02*
D03*
X217490Y135890D02*
D03*
X208788Y91948D02*
D03*
X183388Y83460D02*
D03*
X338836Y141732D02*
D03*
X380492Y174244D02*
D03*
X425704D02*
D03*
Y13462D02*
D03*
X380492D02*
D03*
X338836D02*
D03*
X438150Y39116D02*
D03*
Y147320D02*
D03*
X324612Y13970D02*
D03*
X249936D02*
D03*
D80*
X137738Y77654D02*
D03*
X227330Y135890D02*
D03*
X90170Y62230D02*
D03*
X113030Y106680D02*
D03*
D81*
X260858Y79502D02*
D03*
Y93980D02*
D03*
M02*
