M48
;Layer_Color=9474304
;FILE_FORMAT=2:4
METRIC,LZ
;TYPE=PLATED
T1F00S00C0.2032
T2F00S00C0.2540
T4F00S00C1.1000
T5F00S00C2.0320
;TYPE=NON_PLATED
T6F00S00C0.6500
%
T01
X260858Y079502
Y09398
T02
X012446Y010922
X00889Y020066
X012446Y02921
X02159Y032766
X030734Y02921
X03429Y020066
X030734Y010922
X02159Y007366
X051308Y0127
Y03302
X07493
Y0127
X089311Y06655
X113284Y071374
X137738Y077654
X11303Y10668
X1175Y11811
X09017Y134112
X044196Y104394
Y084074
X020574
Y104394
X146964Y114808
X160172
X172466
Y125476
X172618Y136906
X21749Y13589
X22733
X23749Y139954
X231648Y108966
X220218
X208788
Y091948
X220218
X231902
X183388Y08346
X186436Y074422
X222758Y03429
X251968Y034798
X249936Y01397
X287826Y038718
X284584Y061884
X283972Y086106
X295656
X289576Y094629
X283972Y10287
X295656
X32131Y103992
X338836Y10414
Y06731
Y042926
Y013462
X324612Y01397
X319532Y06096
X380746Y064262
X380492Y076992
X400558Y11303
X43815Y135636
X449072Y141986
Y045466
X43815Y051054
X425704Y013462
X380492
X338836Y141732
X27686Y123698
X274798Y15748
X27432Y171704
X256032Y157226
X219964Y175514
X178816Y174244
X15621Y178308
X31242Y171704
Y159512
X32258Y144526
X338836Y174244
X380492
X425704
X085344Y143256
X051054Y162814
X03429Y16637
X030734Y157226
X02159Y15367
X012446Y157226
X00889Y16637
X012446Y175514
X02159Y17907
X030734Y175514
T04
X11176Y02286
X13716
Y04826
X11176
X16256
Y02286
X18796
X21336
Y04826
X18796
T05
X02159Y020066
Y16637
T06
X063825Y065092
Y122892
M30
